<?xml version="1.0" encoding="utf-8"?>
<svg xmlns="http://www.w3.org/2000/svg" fill="none" height="100%" overflow="visible" preserveAspectRatio="none" style="display: block;" viewBox="0 0 23.0245 23.0245" width="100%">
<path d="M18.0215 12.0123L12.9035 10.1211L11.0182 4.99902C10.9065 4.69572 10.7045 4.43395 10.4394 4.24906C10.1743 4.06416 9.85892 3.96502 9.53572 3.96502C9.21251 3.96502 8.89709 4.06416 8.632 4.24906C8.36691 4.43395 8.16492 4.69572 8.05327 4.99902L6.15607 10.1211L1.034 12.0064C0.730697 12.118 0.468935 12.32 0.284037 12.5851C0.0991375 12.8502 0 13.1656 0 13.4888C0 13.812 0.0991375 14.1275 0.284037 14.3925C0.468935 14.6576 0.730697 14.8596 1.034 14.9713L6.15607 16.8685L8.04137 21.9905C8.15301 22.2938 8.35501 22.5556 8.62009 22.7405C8.88518 22.9254 9.20061 23.0245 9.52381 23.0245C9.84701 23.0245 10.1624 22.9254 10.4275 22.7405C10.6926 22.5556 10.8946 22.2938 11.0062 21.9905L12.9035 16.8685L18.0255 14.9832C18.3288 14.8715 18.5906 14.6695 18.7755 14.4044C18.9604 14.1394 19.0595 13.8239 19.0595 13.5007C19.0595 13.1775 18.9604 12.8621 18.7755 12.597C18.5906 12.3319 18.3288 12.1299 18.0255 12.0183L18.0215 12.0123ZM12.0104 15.5011C11.9027 15.5408 11.8048 15.6035 11.7236 15.6847C11.6424 15.7659 11.5798 15.8637 11.5401 15.9715L9.52976 21.418L7.52341 15.9754C7.48376 15.8666 7.42075 15.7677 7.33881 15.6857C7.25687 15.6038 7.15799 15.5408 7.0491 15.5011L1.60654 13.4948L7.0491 11.4884C7.15799 11.4488 7.25687 11.3858 7.33881 11.3038C7.42075 11.2219 7.48376 11.123 7.52341 11.0141L9.52976 5.57156L11.5361 11.0141C11.5758 11.1219 11.6384 11.2197 11.7196 11.3009C11.8008 11.3821 11.8987 11.4447 12.0065 11.4845L17.453 13.4948L12.0104 15.5011ZM12.705 3.17524C12.705 2.96471 12.7886 2.7628 12.9375 2.61393C13.0864 2.46507 13.2883 2.38143 13.4988 2.38143H15.0864V0.793811C15.0864 0.583279 15.1701 0.38137 15.3189 0.232502C15.4678 0.0836333 15.6697 0 15.8802 0C16.0908 0 16.2927 0.0836333 16.4416 0.232502C16.5904 0.38137 16.6741 0.583279 16.6741 0.793811V2.38143H18.2617C18.4722 2.38143 18.6741 2.46507 18.823 2.61393C18.9719 2.7628 19.0555 2.96471 19.0555 3.17524C19.0555 3.38577 18.9719 3.58768 18.823 3.73655C18.6741 3.88542 18.4722 3.96905 18.2617 3.96905H16.6741V5.55667C16.6741 5.76721 16.5904 5.96911 16.4416 6.11798C16.2927 6.26685 16.0908 6.35049 15.8802 6.35049C15.6697 6.35049 15.4678 6.26685 15.3189 6.11798C15.1701 5.96911 15.0864 5.76721 15.0864 5.55667V3.96905H13.4988C13.2883 3.96905 13.0864 3.88542 12.9375 3.73655C12.7886 3.58768 12.705 3.38577 12.705 3.17524ZM23.0245 7.93811C23.0245 8.14864 22.9409 8.35055 22.792 8.49941C22.6432 8.64828 22.4413 8.73192 22.2307 8.73192H21.4369V9.52573C21.4369 9.73626 21.3533 9.93817 21.2044 10.087C21.0556 10.2359 20.8536 10.3195 20.6431 10.3195C20.4326 10.3195 20.2307 10.2359 20.0818 10.087C19.9329 9.93817 19.8493 9.73626 19.8493 9.52573V8.73192H19.0555C18.845 8.73192 18.643 8.64828 18.4942 8.49941C18.3453 8.35055 18.2617 8.14864 18.2617 7.93811C18.2617 7.72757 18.3453 7.52567 18.4942 7.3768C18.643 7.22793 18.845 7.1443 19.0555 7.1443H19.8493V6.35049C19.8493 6.13995 19.9329 5.93804 20.0818 5.78918C20.2307 5.64031 20.4326 5.55667 20.6431 5.55667C20.8536 5.55667 21.0556 5.64031 21.2044 5.78918C21.3533 5.93804 21.4369 6.13995 21.4369 6.35049V7.1443H22.2307C22.4413 7.1443 22.6432 7.22793 22.792 7.3768C22.9409 7.52567 23.0245 7.72757 23.0245 7.93811Z" fill="var(--fill-0, #1900FF)" id="Vector"/>
</svg>