<?xml version="1.0" encoding="utf-8"?>
<svg xmlns="http://www.w3.org/2000/svg" fill="none" height="100%" overflow="visible" preserveAspectRatio="none" style="display: block;" viewBox="0 0 60 60" width="100%">
<g id="Frame">
<path d="M53.2805 21.3224L30.7805 6.3224C30.5494 6.16822 30.2778 6.08594 30 6.08594C29.7222 6.08594 29.4506 6.16822 29.2195 6.3224L6.71953 21.3224C6.52673 21.451 6.36871 21.6253 6.25953 21.8298C6.15036 22.0342 6.09341 22.2625 6.09375 22.4943V46.8693C6.09375 47.7395 6.43945 48.5741 7.05481 49.1895C7.67016 49.8048 8.50476 50.1505 9.375 50.1505H50.625C51.4952 50.1505 52.3298 49.8048 52.9452 49.1895C53.5605 48.5741 53.9062 47.7395 53.9062 46.8693V22.4943C53.9066 22.2625 53.8496 22.0342 53.7405 21.8298C53.6313 21.6253 53.4733 21.451 53.2805 21.3224ZM23.4797 35.6193L8.90625 45.9083V25.2247L23.4797 35.6193ZM26.3555 37.0255H33.6445L48.2437 47.338H11.7563L26.3555 37.0255ZM36.5203 35.6193L51.0938 25.2247V45.9083L36.5203 35.6193ZM30 9.18412L50.0227 22.5435L33.6398 34.213H26.3602L9.97735 22.5341L30 9.18412Z" fill="var(--fill-0, #1900FF)" id="Vector"/>
</g>
</svg>