<?xml version="1.0" encoding="utf-8"?>
<svg xmlns="http://www.w3.org/2000/svg" fill="none" height="100%" overflow="visible" preserveAspectRatio="none" style="display: block;" viewBox="0 0 51.75 51.75" width="100%">
<g id="icon">
<rect fill="var(--fill-0, #F0EFFF)" height="51.75" rx="25.875" width="51.75"/>
<path d="M29.9469 33.2561L33.4637 29.7646L32.4011 28.702L29.9469 31.1056L28.9601 30.1188L27.8975 31.2068L29.9469 33.2561ZM18.5362 21.8707H30.6806V19.8467H18.5362V21.8707ZM30.6806 36.0393C29.2806 36.0393 28.0874 35.5457 27.101 34.5586C26.1146 33.5716 25.6211 32.3784 25.6204 30.9791C25.6197 29.5798 26.1133 28.3866 27.101 27.3995C28.0888 26.4124 29.282 25.9189 30.6806 25.9189C32.0792 25.9189 33.2728 26.4124 34.2612 27.3995C35.2496 28.3866 35.7428 29.5798 35.7408 30.9791C35.7388 32.3784 35.2452 33.5719 34.2602 34.5597C33.2751 35.5474 32.0819 36.0406 30.6806 36.0393ZM15.5001 35.0272V17.8226C15.5001 17.266 15.6984 16.7896 16.0951 16.3936C16.4919 15.9976 16.9682 15.7992 17.5241 15.7985H31.6926C32.2493 15.7985 32.7259 15.9969 33.1226 16.3936C33.5194 16.7903 33.7174 17.2666 33.7167 17.8226V24.5779C33.3962 24.4261 33.0673 24.2996 32.73 24.1984C32.3926 24.0972 32.0469 24.0213 31.6926 23.9707V17.8226H17.5241V32.0417H23.6722C23.7566 32.5646 23.8875 33.0622 24.0649 33.5345C24.2424 34.0067 24.4741 34.4537 24.7602 34.8754L24.6084 35.0272L23.0903 33.5092L21.5723 35.0272L20.0542 33.5092L18.5362 35.0272L17.0181 33.5092L15.5001 35.0272ZM18.5362 29.967H23.6722C23.7229 29.6128 23.7988 29.267 23.9 28.9297C24.0012 28.5923 24.1277 28.2634 24.2795 27.943H18.5362V29.967ZM18.5362 25.9189H25.7216C26.3626 25.2948 27.1091 24.8013 27.9613 24.4383C28.8134 24.0753 29.7198 23.8941 30.6806 23.8948H18.5362V25.9189Z" fill="var(--fill-0, #1900FF)" id="Vector"/>
</g>
</svg>