<?xml version="1.0" encoding="utf-8"?>
<svg xmlns="http://www.w3.org/2000/svg" fill="none" height="100%" overflow="visible" preserveAspectRatio="none" style="display: block;" viewBox="0 0 14.56 11.2" width="100%">
<path d="M14 0H0.56C0.411479 0 0.269041 0.0589999 0.16402 0.16402C0.0589998 0.269041 0 0.411479 0 0.56V10.08C0 10.377 0.118 10.6619 0.32804 10.872C0.538081 11.082 0.822958 11.2 1.12 11.2H13.44C13.737 11.2 14.0219 11.082 14.232 10.872C14.442 10.6619 14.56 10.377 14.56 10.08V0.56C14.56 0.411479 14.501 0.269041 14.396 0.16402C14.291 0.0589999 14.1485 0 14 0ZM7.28 5.9605L1.9999 1.12H12.5601L7.28 5.9605ZM5.2297 5.6L1.12 9.3667V1.8333L5.2297 5.6ZM6.0585 6.3595L6.8985 7.133C7.00182 7.22784 7.13696 7.28046 7.2772 7.28046C7.41745 7.28046 7.55259 7.22784 7.6559 7.133L8.4959 6.3595L12.5559 10.08H1.9999L6.0585 6.3595ZM9.3303 5.6L13.44 1.8326V9.3674L9.3303 5.6Z" fill="var(--fill-0, #1900FF)" id="Vector"/>
</svg>