<?xml version="1.0" encoding="utf-8"?>
<svg xmlns="http://www.w3.org/2000/svg" fill="none" height="100%" overflow="visible" preserveAspectRatio="none" style="display: block;" viewBox="0 0 18.0346 18.0346" width="100%">
<path d="M16.3648 0H1.66987C1.227 0 0.802257 0.175933 0.489095 0.489095C0.175933 0.802257 0 1.227 0 1.66987V16.3648C0 16.8077 0.175933 17.2324 0.489095 17.5456C0.802257 17.8587 1.227 18.0346 1.66987 18.0346H16.3648C16.8077 18.0346 17.2324 17.8587 17.5456 17.5456C17.8587 17.2324 18.0346 16.8077 18.0346 16.3648V1.66987C18.0346 1.227 17.8587 0.802257 17.5456 0.489095C17.2324 0.175933 16.8077 0 16.3648 0ZM16.0308 16.0308H2.00385V2.00385H16.0308V16.0308ZM7.68142 13.025V8.34937C7.68162 8.14116 7.74668 7.93817 7.86756 7.76864C7.98844 7.5991 8.15914 7.47144 8.35593 7.4034C8.55271 7.33535 8.76581 7.33031 8.96559 7.38897C9.16538 7.44762 9.34193 7.56706 9.4707 7.73069C9.97959 7.46394 10.5487 7.333 11.123 7.35052C11.6973 7.36804 12.2574 7.53342 12.7491 7.83069C13.2408 8.12796 13.6474 8.54705 13.9298 9.04745C14.2122 9.54785 14.3607 10.1126 14.3609 10.6872V13.025C14.3609 13.2908 14.2554 13.5456 14.0675 13.7335C13.8796 13.9214 13.6247 14.0269 13.359 14.0269C13.0933 14.0269 12.8384 13.9214 12.6505 13.7335C12.4626 13.5456 12.3571 13.2908 12.3571 13.025V10.6872C12.3571 10.3329 12.2163 9.99311 11.9658 9.74258C11.7153 9.49205 11.3755 9.3513 11.0212 9.3513C10.6669 9.3513 10.3271 9.49205 10.0766 9.74258C9.82602 9.99311 9.68527 10.3329 9.68527 10.6872V13.025C9.68527 13.2908 9.57971 13.5456 9.39182 13.7335C9.20392 13.9214 8.94908 14.0269 8.68335 14.0269C8.41762 14.0269 8.16278 13.9214 7.97488 13.7335C7.78698 13.5456 7.68142 13.2908 7.68142 13.025ZM6.34552 8.34937V13.025C6.34552 13.2908 6.23997 13.5456 6.05207 13.7335C5.86417 13.9214 5.60933 14.0269 5.3436 14.0269C5.07787 14.0269 4.82303 13.9214 4.63513 13.7335C4.44723 13.5456 4.34167 13.2908 4.34167 13.025V8.34937C4.34167 8.08365 4.44723 7.8288 4.63513 7.64091C4.82303 7.45301 5.07787 7.34745 5.3436 7.34745C5.60933 7.34745 5.86417 7.45301 6.05207 7.64091C6.23997 7.8288 6.34552 8.08365 6.34552 8.34937ZM4.0077 5.00962C4.0077 4.74541 4.08605 4.48713 4.23284 4.26744C4.37963 4.04775 4.58827 3.87653 4.83237 3.77541C5.07648 3.6743 5.34508 3.64785 5.60422 3.69939C5.86336 3.75094 6.10139 3.87817 6.28822 4.065C6.47505 4.25183 6.60228 4.48986 6.65383 4.749C6.70538 5.00814 6.67892 5.27675 6.57781 5.52085C6.4767 5.76496 6.30547 5.97359 6.08579 6.12038C5.8661 6.26718 5.60782 6.34552 5.3436 6.34552C4.9893 6.34552 4.64951 6.20478 4.39898 5.95425C4.14845 5.70372 4.0077 5.36393 4.0077 5.00962Z" fill="var(--fill-0, black)" id="Vector"/>
</svg>