<?xml version="1.0" encoding="utf-8"?>
<svg xmlns="http://www.w3.org/2000/svg" fill="none" height="100%" overflow="visible" preserveAspectRatio="none" style="display: block;" viewBox="0 0 25.6 25.6" width="100%">
<g id="icon">
<path d="M7.9832 3.11993C8.33866 3.07656 8.69884 3.14995 9.00957 3.32793C9.3202 3.50596 9.56545 3.7797 9.70781 4.10821H9.70684L11.782 8.73125L11.7898 8.74981V8.76641C11.891 9.01203 11.9331 9.27792 11.91 9.54278C11.892 9.74721 11.8368 9.9465 11.7469 10.1297L11.6453 10.3074C11.6258 10.3368 11.6052 10.364 11.5848 10.3895L11.5828 10.3914L9.58574 12.7654C10.3123 14.2046 11.81 15.6912 13.2684 16.4178L15.6072 14.4246V14.4236C15.6332 14.4017 15.6609 14.3818 15.6893 14.3631L15.867 14.2596C16.0511 14.1674 16.2515 14.1097 16.4578 14.0906C16.664 14.0716 16.8713 14.0914 17.0691 14.1482L17.2635 14.2176L17.2654 14.2186L17.2781 14.2244H17.2771L21.8943 16.2928H21.8934C22.2216 16.4354 22.4949 16.6804 22.6727 16.991C22.8282 17.2629 22.9032 17.5724 22.8904 17.8836L22.8797 18.0174C22.702 19.3674 22.0389 20.6068 21.0145 21.5037C19.9899 22.4006 18.6739 22.8947 17.3123 22.8924C9.48035 22.8924 3.10844 16.5202 3.1082 8.68828C3.10576 7.32654 3.59892 6.00975 4.4959 4.98516C5.39286 3.96073 6.63224 3.29757 7.98223 3.11993H7.9832ZM8.1248 4.86993C7.22678 5.00754 6.40546 5.45834 5.80742 6.14434C5.1933 6.84881 4.8566 7.75275 4.86016 8.68731C4.86376 11.9887 6.17707 15.1546 8.51152 17.4891C10.8459 19.8233 14.011 21.1359 17.3123 21.1395C18.248 21.1426 19.1526 20.8049 19.8572 20.1893C20.5437 19.5894 20.9928 18.7659 21.1287 17.866L16.6307 15.8514L14.2928 17.8465C14.267 17.8685 14.2399 17.8892 14.2117 17.908C13.9728 18.0674 13.6964 18.1617 13.41 18.1824C13.195 18.198 12.9798 18.1716 12.7762 18.1053L12.577 18.0262C10.8388 17.1864 9.10854 15.5246 8.15996 13.8084L7.98125 13.4647C7.85682 13.2073 7.80102 12.9218 7.81914 12.6365C7.83731 12.3512 7.92872 12.0753 8.08477 11.8357C8.10371 11.8055 8.1248 11.7767 8.14824 11.7498L10.1355 9.3709L8.1248 4.86993Z" fill="var(--fill-0, black)" id="Vector" stroke="var(--stroke-0, black)" stroke-width="0.184107"/>
</g>
</svg>