<?xml version="1.0" encoding="utf-8"?>
<svg xmlns="http://www.w3.org/2000/svg" fill="none" height="100%" overflow="visible" preserveAspectRatio="none" style="display: block;" viewBox="0 0 26.3843 26.3843" width="100%">
<g id="Avatar">
<rect fill="var(--fill-0, white)" height="26.3843" rx="4.05912" width="26.3843"/>
<rect height="25.8769" rx="3.80542" stroke="var(--stroke-0, #969695)" stroke-opacity="0.24" stroke-width="0.507389" width="25.8769" x="0.253695" y="0.253695"/>
<g clip-path="url(#clip0_0_4589)" id="Logo">
<path clip-rule="evenodd" d="M15.4472 9.81709C14.7797 9.37108 13.9949 9.13301 13.1921 9.13301V5.07389C14.7977 5.07389 16.3673 5.55002 17.7024 6.44206C19.0374 7.3341 20.0779 8.602 20.6924 10.0854C21.3068 11.5688 21.4676 13.2011 21.1544 14.7759C20.8411 16.3507 20.0679 17.7972 18.9326 18.9326C17.7972 20.0679 16.3507 20.8411 14.7759 21.1544C13.2011 21.4676 11.5688 21.3068 10.0854 20.6924C8.602 20.0779 7.3341 19.0374 6.44206 17.7024C5.55002 16.3673 5.07389 14.7977 5.07389 13.1921H9.13301C9.13301 13.9949 9.37108 14.7797 9.81709 15.4472C10.2631 16.1148 10.8971 16.635 11.6388 16.9423C12.3805 17.2495 13.1966 17.3299 13.984 17.1732C14.7714 17.0166 15.4947 16.63 16.0624 16.0624C16.63 15.4947 17.0166 14.7714 17.1732 13.984C17.3299 13.1966 17.2495 12.3805 16.9423 11.6388C16.635 10.8971 16.1148 10.2631 15.4472 9.81709Z" fill="var(--fill-0, #1B1B1D)" fill-rule="evenodd" id="Vector"/>
<path clip-rule="evenodd" d="M9.13285 5.0739C9.13285 5.60693 9.02786 6.13474 8.82388 6.62719C8.6199 7.11965 8.32092 7.5671 7.94401 7.94401C7.5671 8.32092 7.11965 8.6199 6.62719 8.82388C6.13473 9.02786 5.60692 9.13285 5.07389 9.13285L5.07389 13.1918C6.13995 13.1918 7.19557 12.9818 8.18049 12.5739C9.1654 12.1659 10.0603 11.5679 10.8141 10.8141C11.5679 10.0603 12.1659 9.1654 12.5739 8.18049C12.9818 7.19557 13.1918 6.13995 13.1918 5.07389L9.13285 5.0739Z" fill="var(--fill-0, #1B1B1D)" fill-rule="evenodd" id="Vector_2"/>
</g>
</g>
<defs>
<clipPath id="clip0_0_4589">
<rect fill="white" height="16.2365" transform="translate(5.07389 5.07389)" width="16.2365"/>
</clipPath>
</defs>
</svg>