<?xml version="1.0" encoding="utf-8"?>
<svg xmlns="http://www.w3.org/2000/svg" fill="none" height="100%" overflow="visible" preserveAspectRatio="none" style="display: block;" viewBox="0 0 60 60" width="100%">
<g id="Frame">
<path d="M49.6138 27.9163C49.5475 27.6308 49.413 27.3664 49.2222 27.1465C49.0314 26.9267 48.7902 26.7582 48.52 26.656L35.9179 21.8444L39.1247 5.51704C39.1974 5.13768 39.1468 4.74457 38.9806 4.39704C38.8145 4.0495 38.5418 3.7664 38.2037 3.59044C37.8657 3.41449 37.4805 3.35523 37.1065 3.42161C36.7324 3.488 36.3897 3.67642 36.13 3.95845L11.6301 30.6772C11.4311 30.8906 11.2871 31.1509 11.2111 31.4347C11.135 31.7186 11.1292 32.0172 11.1942 32.3039C11.2592 32.5906 11.393 32.8564 11.5836 33.0777C11.7741 33.2989 12.0156 33.4686 12.2863 33.5717L24.8929 38.3833L21.6947 54.6929C21.6221 55.0723 21.6727 55.4654 21.8388 55.8129C22.005 56.1604 22.2777 56.4435 22.6157 56.6195C22.9538 56.7954 23.3389 56.8547 23.713 56.7883C24.0871 56.7219 24.4298 56.5335 24.6894 56.2515L49.1894 29.5327C49.3848 29.3193 49.5257 29.0602 49.5997 28.7784C49.6737 28.4965 49.6785 28.2005 49.6138 27.9163ZM26.3344 49.2534L28.6247 37.5907C28.7067 37.177 28.6418 36.7472 28.4415 36.3778C28.2411 36.0084 27.9185 35.7233 27.531 35.5734L15.9722 31.1537L34.4829 10.9677L32.1947 22.6304C32.1128 23.044 32.1777 23.4738 32.378 23.8433C32.5783 24.2127 32.901 24.4978 33.2885 24.6477L44.8385 29.0563L26.3344 49.2534Z" fill="var(--fill-0, #1900FF)" id="Vector"/>
</g>
</svg>