<?xml version="1.0" encoding="utf-8"?>
<svg xmlns="http://www.w3.org/2000/svg" fill="none" height="100%" overflow="visible" preserveAspectRatio="none" style="display: block;" viewBox="0 0 32 32" width="100%">
<g id="icon">
<path d="M25.7966 3.9769H6.2034C5.6129 3.9769 5.04658 4.21148 4.62903 4.62903C4.21148 5.04658 3.9769 5.6129 3.9769 6.2034V25.7966C3.9769 26.3871 4.21148 26.9534 4.62903 27.371C5.04658 27.7885 5.6129 28.0231 6.2034 28.0231H25.7966C26.3871 28.0231 26.9534 27.7885 27.371 27.371C27.7885 26.9534 28.0231 26.3871 28.0231 25.7966V6.2034C28.0231 5.6129 27.7885 5.04658 27.371 4.62903C26.9534 4.21148 26.3871 3.9769 25.7966 3.9769ZM25.3513 25.3513H6.6487V6.6487H25.3513V25.3513ZM14.2188 21.3436V15.1094C14.2191 14.8318 14.3058 14.5611 14.467 14.3351C14.6282 14.109 14.8558 13.9388 15.1181 13.8481C15.3805 13.7574 15.6646 13.7506 15.931 13.8289C16.1974 13.9071 16.4328 14.0663 16.6045 14.2845C17.283 13.9288 18.0418 13.7542 18.8076 13.7776C19.5733 13.801 20.3201 14.0215 20.9757 14.4178C21.6312 14.8142 22.1735 15.373 22.55 16.0402C22.9265 16.7074 23.1245 17.4604 23.1248 18.2265V21.3436C23.1248 21.6979 22.9841 22.0377 22.7335 22.2882C22.483 22.5388 22.1432 22.6795 21.7889 22.6795C21.4346 22.6795 21.0948 22.5388 20.8443 22.2882C20.5937 22.0377 20.453 21.6979 20.453 21.3436V18.2265C20.453 17.7541 20.2653 17.301 19.9313 16.967C19.5973 16.633 19.1442 16.4453 18.6718 16.4453C18.1994 16.4453 17.7463 16.633 17.4123 16.967C17.0783 17.301 16.8906 17.7541 16.8906 18.2265V21.3436C16.8906 21.6979 16.7499 22.0377 16.4993 22.2882C16.2488 22.5388 15.909 22.6795 15.5547 22.6795C15.2004 22.6795 14.8606 22.5388 14.6101 22.2882C14.3595 22.0377 14.2188 21.6979 14.2188 21.3436ZM12.4376 15.1094V21.3436C12.4376 21.6979 12.2969 22.0377 12.0463 22.2882C11.7958 22.5388 11.456 22.6795 11.1017 22.6795C10.7474 22.6795 10.4076 22.5388 10.1571 22.2882C9.90655 22.0377 9.7658 21.6979 9.7658 21.3436V15.1094C9.7658 14.7551 9.90655 14.4153 10.1571 14.1648C10.4076 13.9142 10.7474 13.7735 11.1017 13.7735C11.456 13.7735 11.7958 13.9142 12.0463 14.1648C12.2969 14.4153 12.4376 14.7551 12.4376 15.1094ZM9.3205 10.6564C9.3205 10.3041 9.42497 9.95974 9.62069 9.66682C9.81641 9.3739 10.0946 9.1456 10.4201 9.01079C10.7455 8.87597 11.1037 8.8407 11.4492 8.90943C11.7947 8.97815 12.1121 9.1478 12.3612 9.3969C12.6103 9.64601 12.7799 9.96339 12.8487 10.3089C12.9174 10.6544 12.8821 11.0126 12.7473 11.338C12.6125 11.6635 12.3842 11.9417 12.0913 12.1374C11.7984 12.3331 11.454 12.4376 11.1017 12.4376C10.6293 12.4376 10.1762 12.2499 9.8422 11.9159C9.50816 11.5819 9.3205 11.1288 9.3205 10.6564Z" fill="var(--fill-0, black)" id="Vector"/>
</g>
</svg>