<?xml version="1.0" encoding="utf-8"?>
<svg xmlns="http://www.w3.org/2000/svg" fill="none" height="100%" overflow="visible" preserveAspectRatio="none" style="display: block;" viewBox="0 0 26.3843 26.3843" width="100%">
<g id="Avatar">
<rect fill="var(--fill-0, white)" height="26.3843" rx="4.05912" width="26.3843"/>
<rect height="25.8769" rx="3.80542" stroke="var(--stroke-0, #969695)" stroke-opacity="0.24" stroke-width="0.507389" width="25.8769" x="0.253695" y="0.253695"/>
<g clip-path="url(#clip0_0_4581)" id="Logo">
<path clip-rule="evenodd" d="M7.34896 7.46017L1.52228 13.1924C2.68772 14.339 4.01906 15.3053 5.4706 16.0613C5.87181 17.1083 6.5007 18.0902 7.35726 18.9329C10.5799 22.1032 15.8047 22.1032 19.0272 18.9329C19.8838 18.0902 20.5127 17.1083 20.9139 16.0613C22.3654 15.3053 23.6968 14.339 24.8622 13.1924L19.0402 7.46484C19.0359 7.46055 19.0316 7.45627 19.0272 7.45199C15.8047 4.28163 10.5799 4.28163 7.35726 7.45199C7.3545 7.45472 7.35173 7.45744 7.34896 7.46017ZM18.4697 17.0955C16.7717 17.6593 14.9892 17.948 13.1922 17.948C11.3952 17.948 9.61283 17.6593 7.91485 17.0955C8.09882 17.3356 8.30194 17.5661 8.52425 17.7848C11.1023 20.3211 15.2821 20.3211 17.8602 17.7848C18.0825 17.5661 18.2857 17.3356 18.4697 17.0955ZM8.64393 8.48526C9.08173 8.76981 9.54724 9.01331 10.0343 9.21182C11.0355 9.6198 12.1086 9.82978 13.1922 9.82978C14.2759 9.82978 15.349 9.6198 16.3501 9.21182C16.8372 9.01331 17.3027 8.76981 17.7406 8.48525C15.1947 6.10206 11.1898 6.10206 8.64393 8.48526Z" fill="var(--fill-0, #1B1B1D)" fill-rule="evenodd" id="Vector"/>
</g>
</g>
<defs>
<clipPath id="clip0_0_4581">
<rect fill="white" height="16.2365" transform="translate(1.52217 5.07389)" width="23.3399"/>
</clipPath>
</defs>
</svg>