<?xml version="1.0" encoding="utf-8"?>
<svg xmlns="http://www.w3.org/2000/svg" fill="none" height="100%" overflow="visible" preserveAspectRatio="none" style="display: block;" viewBox="0 0 49.5 49.5" width="100%">
<g id="Vector">
<path d="M49.5 2.0625V12.375C49.5 12.922 49.2827 13.4466 48.8959 13.8334C48.5091 14.2202 47.9845 14.4375 47.4375 14.4375C46.8905 14.4375 46.3659 14.2202 45.9791 13.8334C45.5923 13.4466 45.375 12.922 45.375 12.375V4.125H37.125C36.578 4.125 36.0534 3.9077 35.6666 3.52091C35.2798 3.13411 35.0625 2.60951 35.0625 2.0625C35.0625 1.51549 35.2798 0.990886 35.6666 0.604093C36.0534 0.217299 36.578 0 37.125 0H47.4375C47.9845 0 48.5091 0.217299 48.8959 0.604093C49.2827 0.990886 49.5 1.51549 49.5 2.0625ZM12.375 45.375H4.125V37.125C4.125 36.578 3.9077 36.0534 3.52091 35.6666C3.13411 35.2798 2.60951 35.0625 2.0625 35.0625C1.51549 35.0625 0.990886 35.2798 0.604093 35.6666C0.217299 36.0534 0 36.578 0 37.125V47.4375C0 47.9845 0.217299 48.5091 0.604093 48.8959C0.990886 49.2827 1.51549 49.5 2.0625 49.5H12.375C12.922 49.5 13.4466 49.2827 13.8334 48.8959C14.2202 48.5091 14.4375 47.9845 14.4375 47.4375C14.4375 46.8905 14.2202 46.3659 13.8334 45.9791C13.4466 45.5923 12.922 45.375 12.375 45.375ZM47.4375 35.0625C46.8905 35.0625 46.3659 35.2798 45.9791 35.6666C45.5923 36.0534 45.375 36.578 45.375 37.125V45.375H37.125C36.578 45.375 36.0534 45.5923 35.6666 45.9791C35.2798 46.3659 35.0625 46.8905 35.0625 47.4375C35.0625 47.9845 35.2798 48.5091 35.6666 48.8959C36.0534 49.2827 36.578 49.5 37.125 49.5H47.4375C47.9845 49.5 48.5091 49.2827 48.8959 48.8959C49.2827 48.5091 49.5 47.9845 49.5 47.4375V37.125C49.5 36.578 49.2827 36.0534 48.8959 35.6666C48.5091 35.2798 47.9845 35.0625 47.4375 35.0625ZM2.0625 14.4375C2.60951 14.4375 3.13411 14.2202 3.52091 13.8334C3.9077 13.4466 4.125 12.922 4.125 12.375V4.125H12.375C12.922 4.125 13.4466 3.9077 13.8334 3.52091C14.2202 3.13411 14.4375 2.60951 14.4375 2.0625C14.4375 1.51549 14.2202 0.990886 13.8334 0.604093C13.4466 0.217299 12.922 0 12.375 0H2.0625C1.51549 0 0.990886 0.217299 0.604093 0.604093C0.217299 0.990886 0 1.51549 0 2.0625V12.375C0 12.922 0.217299 13.4466 0.604093 13.8334C0.990886 14.2202 1.51549 14.4375 2.0625 14.4375Z" fill="var(--fill-0, #1900FF)"/>
<path d="M30.1803 29.7461C31.788 28.4822 32.9617 26.7485 33.538 24.7863C34.1144 22.8242 34.0647 20.7311 33.396 18.7985C32.7272 16.8659 31.4727 15.1898 29.8068 14.0035C28.141 12.8172 26.1468 12.1797 24.1018 12.1797C22.0567 12.1797 20.0625 12.8172 18.3967 14.0035C16.7309 15.1898 15.4763 16.8659 14.8076 18.7985C14.1388 20.7311 14.0892 22.8242 14.6655 24.7863C15.2419 26.7485 16.4156 28.4822 18.0233 29.7461C15.4378 30.8004 13.1531 32.4774 11.3724 34.6281C11.0928 34.961 10.9568 35.3914 10.9944 35.8246C11.0321 36.2577 11.2403 36.6582 11.5732 36.9379C11.9062 37.2176 12.3365 37.3535 12.7697 37.3159C13.2029 37.2782 13.6034 37.07 13.8831 36.7371C15.7531 34.5106 19.0477 31.8579 24.1018 31.8579C29.1558 31.8579 32.4505 34.5106 34.3205 36.7371C34.6002 37.07 35.0007 37.2782 35.4338 37.3159C35.867 37.3535 36.2974 37.2176 36.6303 36.9379C36.9633 36.6582 37.1715 36.2577 37.2091 35.8246C37.2468 35.3914 37.1108 34.961 36.8311 34.6281C35.0508 32.477 32.766 30.7999 30.1803 29.7461ZM17.5452 22.023C17.5452 20.7262 17.9297 19.4586 18.6502 18.3804C19.3706 17.3021 20.3946 16.4618 21.5927 15.9655C22.7907 15.4692 24.1091 15.3394 25.3809 15.5924C26.6528 15.8454 27.821 16.4698 28.738 17.3868C29.655 18.3037 30.2794 19.472 30.5324 20.7439C30.7854 22.0157 30.6555 23.334 30.1593 24.5321C29.663 25.7302 28.8227 26.7542 27.7444 27.4746C26.6662 28.1951 25.3986 28.5796 24.1018 28.5796C22.3634 28.5778 20.6968 27.8864 19.4676 26.6572C18.2384 25.428 17.547 23.7614 17.5452 22.023ZM43.8385 27.0074L39.4674 31.3784C39.3152 31.5313 39.1342 31.6525 38.935 31.7352C38.7357 31.818 38.5221 31.8606 38.3064 31.8606C38.0906 31.8606 37.877 31.818 37.6778 31.7352C37.4785 31.6525 37.2976 31.5313 37.1453 31.3784L34.9598 29.1929C34.6518 28.885 34.4788 28.4673 34.4788 28.0318C34.4788 27.5964 34.6518 27.1787 34.9598 26.8708C35.2677 26.5629 35.6854 26.3899 36.1208 26.3899C36.5563 26.3899 36.974 26.5629 37.2819 26.8708L38.3077 27.8966L41.5191 24.6839C41.6716 24.5314 41.8526 24.4105 42.0518 24.3279C42.251 24.2454 42.4645 24.203 42.6802 24.203C42.8958 24.203 43.1093 24.2454 43.3085 24.3279C43.5077 24.4105 43.6888 24.5314 43.8412 24.6839C43.9937 24.8364 44.1146 25.0174 44.1972 25.2166C44.2797 25.4158 44.3222 25.6293 44.3222 25.8449C44.3222 26.0606 44.2797 26.2741 44.1972 26.4733C44.1146 26.6725 43.9937 26.8535 43.8412 27.006L43.8385 27.0074Z" fill="var(--fill-0, #1900FF)"/>
</g>
</svg>