<?xml version="1.0" encoding="utf-8"?>
<svg xmlns="http://www.w3.org/2000/svg" fill="none" height="100%" overflow="visible" preserveAspectRatio="none" style="display: block;" viewBox="0 0 13.125 13.125" width="100%">
<path d="M12.2965 5.08711C12.0756 4.85625 11.8471 4.61836 11.7609 4.40918C11.6813 4.21758 11.6766 3.9 11.6719 3.59238C11.6631 3.02051 11.6537 2.37246 11.2031 1.92187C10.7525 1.47129 10.1045 1.46191 9.53262 1.45312C9.225 1.44844 8.90742 1.44375 8.71582 1.36406C8.50723 1.27793 8.26875 1.04941 8.03789 0.828516C7.63359 0.440039 7.17422 0 6.5625 0C5.95078 0 5.49199 0.440039 5.08711 0.828516C4.85625 1.04941 4.61836 1.27793 4.40918 1.36406C4.21875 1.44375 3.9 1.44844 3.59238 1.45312C3.02051 1.46191 2.37246 1.47129 1.92187 1.92187C1.47129 2.37246 1.46484 3.02051 1.45312 3.59238C1.44844 3.9 1.44375 4.21758 1.36406 4.40918C1.27793 4.61777 1.04941 4.85625 0.828516 5.08711C0.440039 5.49141 0 5.95078 0 6.5625C0 7.17422 0.440039 7.63301 0.828516 8.03789C1.04941 8.26875 1.27793 8.50664 1.36406 8.71582C1.44375 8.90742 1.44844 9.225 1.45312 9.53262C1.46191 10.1045 1.47129 10.7525 1.92187 11.2031C2.37246 11.6537 3.02051 11.6631 3.59238 11.6719C3.9 11.6766 4.21758 11.6813 4.40918 11.7609C4.61777 11.8471 4.85625 12.0756 5.08711 12.2965C5.49141 12.685 5.95078 13.125 6.5625 13.125C7.17422 13.125 7.63301 12.685 8.03789 12.2965C8.26875 12.0756 8.50664 11.8471 8.71582 11.7609C8.90742 11.6813 9.225 11.6766 9.53262 11.6719C10.1045 11.6631 10.7525 11.6537 11.2031 11.2031C11.6537 10.7525 11.6631 10.1045 11.6719 9.53262C11.6766 9.225 11.6813 8.90742 11.7609 8.71582C11.8471 8.50723 12.0756 8.26875 12.2965 8.03789C12.685 7.63359 13.125 7.17422 13.125 6.5625C13.125 5.95078 12.685 5.49199 12.2965 5.08711ZM11.6197 7.38926C11.3391 7.68223 11.0484 7.98516 10.8943 8.35723C10.7467 8.71465 10.7402 9.12305 10.7344 9.51855C10.7285 9.92871 10.7221 10.3582 10.5398 10.5398C10.3576 10.7215 9.93105 10.7285 9.51855 10.7344C9.12305 10.7402 8.71465 10.7467 8.35723 10.8943C7.98516 11.0484 7.68223 11.3391 7.38926 11.6197C7.09629 11.9004 6.79688 12.1875 6.5625 12.1875C6.32812 12.1875 6.02637 11.8992 5.73574 11.6197C5.44512 11.3402 5.13984 11.0484 4.76777 10.8943C4.41035 10.7467 4.00195 10.7402 3.60645 10.7344C3.19629 10.7285 2.7668 10.7221 2.58516 10.5398C2.40352 10.3576 2.39648 9.93105 2.39062 9.51855C2.38477 9.12305 2.37832 8.71465 2.23066 8.35723C2.07656 7.98516 1.78594 7.68223 1.50527 7.38926C1.22461 7.09629 0.9375 6.79688 0.9375 6.5625C0.9375 6.32812 1.22578 6.02637 1.50527 5.73574C1.78477 5.44512 2.07656 5.13984 2.23066 4.76777C2.37832 4.41035 2.38477 4.00195 2.39062 3.60645C2.39648 3.19629 2.40293 2.7668 2.58516 2.58516C2.76738 2.40352 3.19395 2.39648 3.60645 2.39062C4.00195 2.38477 4.41035 2.37832 4.76777 2.23066C5.13984 2.07656 5.44277 1.78594 5.73574 1.50527C6.02871 1.22461 6.32812 0.9375 6.5625 0.9375C6.79688 0.9375 7.09863 1.22578 7.38926 1.50527C7.67988 1.78477 7.98516 2.07656 8.35723 2.23066C8.71465 2.37832 9.12305 2.38477 9.51855 2.39062C9.92871 2.39648 10.3582 2.40293 10.5398 2.58516C10.7215 2.76738 10.7285 3.19395 10.7344 3.60645C10.7402 4.00195 10.7467 4.41035 10.8943 4.76777C11.0484 5.13984 11.3391 5.44277 11.6197 5.73574C11.9004 6.02871 12.1875 6.32812 12.1875 6.5625C12.1875 6.79688 11.8992 7.09863 11.6197 7.38926ZM9.23789 4.82461C9.28147 4.86814 9.31605 4.91984 9.33964 4.97675C9.36323 5.03365 9.37537 5.09465 9.37537 5.15625C9.37537 5.21785 9.36323 5.27885 9.33964 5.33575C9.31605 5.39266 9.28147 5.44436 9.23789 5.48789L5.95664 8.76914C5.91311 8.81272 5.86141 8.8473 5.8045 8.87089C5.7476 8.89448 5.6866 8.90662 5.625 8.90662C5.5634 8.90662 5.5024 8.89448 5.4455 8.87089C5.38859 8.8473 5.33689 8.81272 5.29336 8.76914L3.88711 7.36289C3.79915 7.27493 3.74974 7.15564 3.74974 7.03125C3.74974 6.90686 3.79915 6.78757 3.88711 6.69961C3.97507 6.61165 4.09436 6.56224 4.21875 6.56224C4.34314 6.56224 4.46243 6.61165 4.55039 6.69961L5.625 7.7748L8.57461 4.82461C8.61814 4.78103 8.66984 4.74645 8.72675 4.72286C8.78365 4.69927 8.84465 4.68713 8.90625 4.68713C8.96785 4.68713 9.02885 4.69927 9.08575 4.72286C9.14266 4.74645 9.19436 4.78103 9.23789 4.82461Z" fill="var(--fill-0, #1900FF)" id="Vector"/>
</svg>