<?xml version="1.0" encoding="utf-8"?>
<svg xmlns="http://www.w3.org/2000/svg" fill="none" height="100%" overflow="visible" preserveAspectRatio="none" style="display: block;" viewBox="0 0 60 60" width="100%">
<g id="Frame">
<path d="M52.118 37.1386L41.0766 32.1909L41.0461 32.1769C40.4729 31.9317 39.8476 31.8333 39.2268 31.8906C38.606 31.9479 38.0093 32.1591 37.4906 32.505C37.4295 32.5453 37.3708 32.5891 37.3149 32.6362L31.6102 37.4995C27.9961 35.7441 24.2649 32.0409 22.5094 28.4737L27.3797 22.6823C27.4266 22.6237 27.4711 22.5652 27.5133 22.5019C27.8518 21.9846 28.0572 21.3917 28.1112 20.7759C28.1651 20.1601 28.066 19.5404 27.8227 18.9722V18.9441L22.861 7.8839C22.5393 7.14155 21.9861 6.52315 21.2841 6.12102C20.582 5.71889 19.7687 5.55459 18.9656 5.65265C15.7898 6.07056 12.8747 7.63023 10.7647 10.0404C8.65476 12.4505 7.49428 15.5463 7.50002 18.7495C7.50002 37.3589 22.6406 52.4995 41.25 52.4995C44.4532 52.5053 47.549 51.3448 49.9592 49.2348C52.3693 47.1249 53.929 44.2098 54.3469 41.0339C54.4451 40.2311 54.2812 39.418 53.8795 38.716C53.4778 38.014 52.8599 37.4607 52.118 37.1386ZM41.25 48.7495C33.2962 48.7408 25.6706 45.5773 20.0464 39.9531C14.4222 34.3289 11.2587 26.7034 11.25 18.7495C11.2412 16.4608 12.0658 14.2472 13.5697 12.522C15.0737 10.7968 17.1542 9.67796 19.4227 9.37453C19.4217 9.38388 19.4217 9.3933 19.4227 9.40265L24.3446 20.4183L19.5 26.2167C19.4508 26.2732 19.4061 26.3336 19.3664 26.3972C19.0137 26.9384 18.8068 27.5615 18.7658 28.2062C18.7247 28.8509 18.8509 29.4953 19.1321 30.0769C21.2555 34.4198 25.6313 38.7628 30.0211 40.8839C30.607 41.1625 31.2551 41.2843 31.9021 41.2374C32.5491 41.1906 33.1729 40.9767 33.7125 40.6167C33.7728 40.5764 33.8307 40.5325 33.886 40.4855L39.5836 35.6245L50.5992 40.5581H50.625C50.3253 42.8298 49.2082 44.9145 47.4826 46.4222C45.7571 47.9299 43.5414 48.7572 41.25 48.7495Z" fill="var(--fill-0, #1900FF)" id="Vector"/>
</g>
</svg>