<?xml version="1.0" encoding="utf-8"?>
<svg xmlns="http://www.w3.org/2000/svg" fill="none" height="100%" overflow="visible" preserveAspectRatio="none" style="display: block;" viewBox="0 0 18.3452 18.3452" width="100%">
<path d="M4.56518 0.0974053C4.8919 0.0575575 5.2229 0.124283 5.50854 0.287835C5.79396 0.451326 6.01914 0.702936 6.15014 1.00463L8.05541 5.2517L8.06323 5.2683V5.28686C8.15548 5.51197 8.19478 5.75521 8.17358 5.9978C8.15161 6.24844 8.06819 6.49039 7.93041 6.70092H7.92944C7.9114 6.72798 7.89255 6.75263 7.87377 6.77612L7.8728 6.77807L6.03881 8.95776C6.70584 10.2782 8.08059 11.6411 9.41869 12.3083L11.5652 10.4792H11.5662C11.5902 10.459 11.6151 10.4399 11.6414 10.4226L11.8054 10.3279C11.9745 10.2433 12.1581 10.1901 12.3474 10.1726C12.5369 10.1551 12.728 10.1731 12.9099 10.2253L13.0886 10.2888L13.1023 10.2956L17.3415 12.1951H17.3406C17.6424 12.3262 17.8939 12.5511 18.0574 12.8367C18.2208 13.1223 18.2877 13.4533 18.2478 13.78V13.781C18.0846 15.0213 17.4752 16.1601 16.5339 16.9841C15.6516 17.7565 14.5338 18.2026 13.3669 18.2537L13.1326 18.2585C5.93897 18.2585 0.0867625 12.4062 0.0866629 5.21264C0.0844204 3.96168 0.537108 2.75253 1.36108 1.81127C2.18511 0.869997 3.32388 0.260618 4.5642 0.0974053H4.56518ZM4.69506 1.70971C3.87107 1.83619 3.11687 2.24818 2.56811 2.87768C2.00453 3.52423 1.69577 4.35398 1.69897 5.21166V5.21264C1.70235 8.24398 2.90802 11.1502 5.05151 13.2937C7.195 15.4372 10.1012 16.6429 13.1326 16.6462C13.9915 16.6491 14.8227 16.3393 15.4695 15.7742C16.0993 15.2239 16.5095 14.4678 16.6345 13.6423L12.5066 11.7927L10.3611 13.6247C10.3373 13.645 10.3118 13.664 10.2859 13.6814C10.0664 13.8278 9.81272 13.9152 9.54955 13.9343C9.28623 13.9534 9.02236 13.9031 8.78393 13.7898H8.78295C7.08019 12.967 5.38625 11.2854 4.56225 9.60034L4.56127 9.59936C4.44702 9.36283 4.39618 9.10077 4.41283 8.83862C4.42954 8.57629 4.5135 8.32253 4.65698 8.10229C4.67443 8.07444 4.69397 8.04796 4.71557 8.02319L6.53979 5.83862L4.69506 1.70971Z" fill="var(--fill-0, black)" id="Vector" stroke="var(--stroke-0, black)" stroke-width="0.1726"/>
</svg>