<?xml version="1.0" encoding="utf-8"?>
<svg xmlns="http://www.w3.org/2000/svg" fill="none" height="100%" overflow="visible" preserveAspectRatio="none" style="display: block;" viewBox="0 0 25.8205 25.8205" width="100%">
<path d="M24.1906 10.0078C23.756 9.55359 23.3065 9.08559 23.137 8.67408C22.9803 8.29714 22.971 7.67238 22.9618 7.06721C22.9445 5.94218 22.9261 4.66729 22.0396 3.78086C21.1532 2.89443 19.8783 2.87599 18.7533 2.8587C18.1481 2.84948 17.5234 2.84026 17.1464 2.68349C16.7361 2.51404 16.2669 2.06449 15.8128 1.62992C15.0174 0.865679 14.1137 0 12.9103 0C11.7068 0 10.8043 0.865679 10.0078 1.62992C9.55359 2.06449 9.08559 2.51404 8.67408 2.68349C8.29945 2.84026 7.67238 2.84948 7.06721 2.8587C5.94218 2.87599 4.66729 2.89443 3.78086 3.78086C2.89443 4.66729 2.88175 5.94218 2.8587 7.06721C2.84948 7.67238 2.84026 8.29714 2.68349 8.67408C2.51404 9.08444 2.06449 9.55359 1.62992 10.0078C0.865679 10.8031 0 11.7068 0 12.9103C0 14.1137 0.865679 15.0162 1.62992 15.8128C2.06449 16.2669 2.51404 16.7349 2.68349 17.1464C2.84026 17.5234 2.84948 18.1481 2.8587 18.7533C2.87599 19.8783 2.89443 21.1532 3.78086 22.0396C4.66729 22.9261 5.94218 22.9445 7.06721 22.9618C7.67238 22.971 8.29714 22.9803 8.67408 23.137C9.08444 23.3065 9.55359 23.756 10.0078 24.1906C10.8031 24.9548 11.7068 25.8205 12.9103 25.8205C14.1137 25.8205 15.0162 24.9548 15.8128 24.1906C16.2669 23.756 16.7349 23.3065 17.1464 23.137C17.5234 22.9803 18.1481 22.971 18.7533 22.9618C19.8783 22.9445 21.1532 22.9261 22.0396 22.0396C22.9261 21.1532 22.9445 19.8783 22.9618 18.7533C22.971 18.1481 22.9803 17.5234 23.137 17.1464C23.3065 16.7361 23.756 16.2669 24.1906 15.8128C24.9548 15.0174 25.8205 14.1137 25.8205 12.9103C25.8205 11.7068 24.9548 10.8043 24.1906 10.0078ZM22.8592 14.5367C22.3071 15.1131 21.7353 15.709 21.4322 16.441C21.1417 17.1441 21.129 17.9476 21.1175 18.7256C21.106 19.5325 21.0933 20.3775 20.7348 20.7348C20.3763 21.0921 19.5371 21.106 18.7256 21.1175C17.9476 21.129 17.1441 21.1417 16.441 21.4322C15.709 21.7353 15.1131 22.3071 14.5367 22.8592C13.9604 23.4114 13.3713 23.9762 12.9103 23.9762C12.4492 23.9762 11.8555 23.4091 11.2838 22.8592C10.7121 22.3094 10.1115 21.7353 9.37953 21.4322C8.67638 21.1417 7.87295 21.129 7.09488 21.1175C6.28799 21.106 5.44306 21.0933 5.08572 20.7348C4.72838 20.3763 4.71455 19.5371 4.70302 18.7256C4.69149 17.9476 4.67881 17.1441 4.38833 16.441C4.08517 15.709 3.51343 15.1131 2.96129 14.5367C2.40915 13.9604 1.84432 13.3713 1.84432 12.9103C1.84432 12.4492 2.41145 11.8555 2.96129 11.2838C3.51113 10.7121 4.08517 10.1115 4.38833 9.37953C4.67881 8.67638 4.69149 7.87295 4.70302 7.09488C4.71455 6.28799 4.72723 5.44306 5.08572 5.08572C5.44421 4.72838 6.28338 4.71455 7.09488 4.70302C7.87295 4.69149 8.67638 4.67881 9.37953 4.38833C10.1115 4.08517 10.7074 3.51343 11.2838 2.96129C11.8601 2.40915 12.4492 1.84432 12.9103 1.84432C13.3713 1.84432 13.965 2.41145 14.5367 2.96129C15.1085 3.51113 15.709 4.08517 16.441 4.38833C17.1441 4.67881 17.9476 4.69149 18.7256 4.70302C19.5325 4.71455 20.3775 4.72723 20.7348 5.08572C21.0921 5.44421 21.106 6.28338 21.1175 7.09488C21.129 7.87295 21.1417 8.67638 21.4322 9.37953C21.7353 10.1115 22.3071 10.7074 22.8592 11.2838C23.4114 11.8601 23.9762 12.4492 23.9762 12.9103C23.9762 13.3713 23.4091 13.965 22.8592 14.5367ZM18.1735 9.49134C18.2592 9.57699 18.3272 9.67869 18.3737 9.79064C18.4201 9.90259 18.4439 10.0226 18.4439 10.1438C18.4439 10.265 18.4201 10.385 18.3737 10.4969C18.3272 10.6089 18.2592 10.7106 18.1735 10.7962L11.7184 17.2513C11.6327 17.3371 11.531 17.4051 11.4191 17.4515C11.3071 17.4979 11.1871 17.5218 11.0659 17.5218C10.9447 17.5218 10.8247 17.4979 10.7128 17.4515C10.6009 17.4051 10.4991 17.3371 10.4135 17.2513L7.64702 14.4848C7.47399 14.3118 7.37678 14.0771 7.37678 13.8324C7.37678 13.5877 7.47399 13.353 7.64702 13.18C7.82006 13.007 8.05474 12.9097 8.29945 12.9097C8.54416 12.9097 8.77884 13.007 8.95188 13.18L11.0659 15.2952L16.8686 9.49134C16.9543 9.4056 17.056 9.33759 17.1679 9.29118C17.2799 9.24477 17.3999 9.22089 17.5211 9.22089C17.6422 9.22089 17.7622 9.24477 17.8742 9.29118C17.9861 9.33759 18.0878 9.4056 18.1735 9.49134Z" fill="var(--fill-0, #1900FF)" id="Vector"/>
</svg>