<?xml version="1.0" encoding="utf-8"?>
<svg xmlns="http://www.w3.org/2000/svg" fill="none" height="100%" overflow="visible" preserveAspectRatio="none" style="display: block;" viewBox="0 0 240 152.994" width="100%">
<g id="Vector">
<path d="M179.973 0C181.689 0 182.745 1.87918 181.843 3.34077L91.6549 149.686C90.3901 151.741 88.1464 152.994 85.7267 152.994H59.5502C57.8345 152.994 56.7786 151.115 57.6805 149.653L147.857 3.3078C149.122 1.25279 151.366 0 153.786 0H179.973Z" fill="var(--fill-0, #1900FF)"/>
<path d="M60.0041 126.861L46.9159 148.115C45.97 149.642 43.7483 149.653 42.8025 148.115L1.32705 81.0246C-0.509705 78.0574 -0.432715 74.2991 1.51402 71.4089L47.2789 3.48363C48.7527 1.30773 51.2053 0 53.834 0H80.2304C82.0672 0 83.156 2.04402 82.1332 3.56055L35.8514 72.2551C33.9707 75.0464 33.9047 78.6728 35.6644 81.5411L59.9931 120.905C61.126 122.729 61.126 125.037 59.9931 126.872L60.0041 126.861Z" fill="var(--fill-0, #1900FF)"/>
<path d="M238.673 81.0139L196.516 149.225C195.075 151.555 192.534 152.972 189.785 152.972H164.268C162.475 152.972 161.375 151.005 162.321 149.489L204.336 81.5194C206.106 78.6622 206.029 75.0247 204.149 72.2334L178.401 34.0124C177.158 32.1662 177.103 29.7595 178.28 27.8583L191.06 7.1214C191.984 5.62685 194.14 5.58289 195.13 7.04448L238.486 71.3982C240.433 74.2884 240.51 78.0467 238.673 81.0139Z" fill="var(--fill-0, #1900FF)"/>
</g>
</svg>