<?xml version="1.0" encoding="utf-8"?>
<svg xmlns="http://www.w3.org/2000/svg" fill="none" height="100%" overflow="visible" preserveAspectRatio="none" style="display: block;" viewBox="0 0 74.502 74.502" width="100%">
<g id="icon">
<path d="M65.1893 13.9688H9.31278C8.6953 13.9688 8.10312 14.214 7.6665 14.6507C7.22988 15.0873 6.98459 15.6795 6.98459 16.2969V55.8761C6.98459 57.1111 7.47517 58.2954 8.34841 59.1687C9.22165 60.0419 10.406 60.5325 11.641 60.5325H62.8611C64.096 60.5325 65.2804 60.0419 66.1536 59.1687C67.0269 58.2954 67.5174 57.1111 67.5174 55.8761V16.2969C67.5174 15.6795 67.2721 15.0873 66.8355 14.6507C66.3989 14.214 65.8067 13.9688 65.1893 13.9688ZM59.2029 18.6251L37.251 38.7494L15.2991 18.6251H59.2029ZM62.8611 55.8761H11.641V21.5907L35.6766 43.624C36.1061 44.0183 36.6679 44.2371 37.251 44.2371C37.8341 44.2371 38.3959 44.0183 38.8255 43.624L62.8611 21.5907V55.8761Z" fill="var(--fill-0, #1900FF)" id="Vector"/>
</g>
</svg>