<?xml version="1.0" encoding="utf-8"?>
<svg xmlns="http://www.w3.org/2000/svg" fill="none" height="100%" overflow="visible" preserveAspectRatio="none" style="display: block;" viewBox="0 0 69 69" width="100%">
<g id="icon">
<rect fill="var(--fill-0, #F0EFFF)" height="69" rx="34.5" width="69"/>
<g id="Vector">
<path d="M46.0398 26.1237C46.0412 26.3508 45.9722 26.5727 45.8423 26.7589C45.7124 26.9452 45.528 27.0866 45.3145 27.1637L41.7241 28.4904L40.4016 32.0835C40.3233 32.2963 40.1816 32.4799 39.9956 32.6096C39.8097 32.7393 39.5884 32.8089 39.3617 32.8089C39.1349 32.8089 38.9137 32.7393 38.7277 32.6096C38.5418 32.4799 38.4001 32.2963 38.3217 32.0835L36.9908 28.4904L33.3977 27.1678C33.1849 27.0895 33.0013 26.9478 32.8716 26.7619C32.7419 26.5759 32.6724 26.3546 32.6724 26.1279C32.6724 25.9012 32.7419 25.6799 32.8716 25.494C33.0013 25.308 33.1849 25.1663 33.3977 25.088L36.9908 23.7571L38.3134 20.164C38.3917 19.9512 38.5334 19.7676 38.7194 19.6379C38.9053 19.5082 39.1266 19.4386 39.3533 19.4386C39.58 19.4386 39.8013 19.5082 39.9873 19.6379C40.1732 19.7676 40.3149 19.9512 40.3932 20.164L41.7241 23.7571L45.3173 25.0796C45.531 25.1574 45.7153 25.2997 45.8447 25.4867C45.9741 25.6737 46.0423 25.8963 46.0398 26.1237ZM42.1418 19.4414H43.2555V20.5552C43.2555 20.7028 43.3142 20.8445 43.4186 20.9489C43.523 21.0533 43.6647 21.112 43.8124 21.112C43.96 21.112 44.1017 21.0533 44.2061 20.9489C44.3105 20.8445 44.3692 20.7028 44.3692 20.5552V19.4414H45.4829C45.6306 19.4414 45.7723 19.3828 45.8767 19.2783C45.9811 19.1739 46.0398 19.0323 46.0398 18.8846C46.0398 18.7369 45.9811 18.5953 45.8767 18.4908C45.7723 18.3864 45.6306 18.3277 45.4829 18.3277H44.3692V17.214C44.3692 17.0663 44.3105 16.9247 44.2061 16.8203C44.1017 16.7158 43.96 16.6572 43.8124 16.6572C43.6647 16.6572 43.523 16.7158 43.4186 16.8203C43.3142 16.9247 43.2555 17.0663 43.2555 17.214V18.3277H42.1418C41.9941 18.3277 41.8525 18.3864 41.748 18.4908C41.6436 18.5953 41.5849 18.7369 41.5849 18.8846C41.5849 19.0323 41.6436 19.1739 41.748 19.2783C41.8525 19.3828 41.9941 19.4414 42.1418 19.4414ZM48.2672 21.6689H47.7104V21.112C47.7104 20.9643 47.6517 20.8227 47.5473 20.7183C47.4428 20.6138 47.3012 20.5552 47.1535 20.5552C47.0058 20.5552 46.8642 20.6138 46.7597 20.7183C46.6553 20.8227 46.5966 20.9643 46.5966 21.112V21.6689H46.0398C45.8921 21.6689 45.7505 21.7275 45.646 21.832C45.5416 21.9364 45.4829 22.078 45.4829 22.2257C45.4829 22.3734 45.5416 22.5151 45.646 22.6195C45.7505 22.7239 45.8921 22.7826 46.0398 22.7826H46.5966V23.3394C46.5966 23.4871 46.6553 23.6288 46.7597 23.7332C46.8642 23.8376 47.0058 23.8963 47.1535 23.8963C47.3012 23.8963 47.4428 23.8376 47.5473 23.7332C47.6517 23.6288 47.7104 23.4871 47.7104 23.3394V22.7826H48.2672C48.4149 22.7826 48.5566 22.7239 48.661 22.6195C48.7654 22.5151 48.8241 22.3734 48.8241 22.2257C48.8241 22.078 48.7654 21.9364 48.661 21.832C48.5566 21.7275 48.4149 21.6689 48.2672 21.6689Z" fill="var(--fill-0, #1900FF)"/>
<path d="M40.6118 46.5815C39.2948 44.27 37.2382 42.4689 34.7732 41.4682C35.999 40.5488 36.9045 39.2671 37.3614 37.8045C37.8183 36.3419 37.8034 34.7727 37.3188 33.319C36.8343 31.8654 35.9046 30.6011 34.6616 29.7051C33.4185 28.8092 31.9251 28.3271 30.3928 28.3271C28.8606 28.3271 27.3671 28.8092 26.1241 29.7051C24.881 30.6011 23.9514 31.8654 23.4668 33.319C22.9823 34.7727 22.9674 36.3419 23.4243 37.8045C23.8811 39.2671 24.7866 40.5488 26.0124 41.4682C23.5474 42.4689 21.4909 44.27 20.1739 46.5815C20.0923 46.7128 20.0379 46.8591 20.0139 47.0117C19.99 47.1644 19.997 47.3203 20.0345 47.4702C20.072 47.6201 20.1393 47.7609 20.2323 47.8843C20.3254 48.0077 20.4423 48.1111 20.5761 48.1884C20.7099 48.2657 20.8578 48.3153 21.0112 48.3343C21.1646 48.3533 21.3202 48.3412 21.4688 48.2989C21.6174 48.2565 21.756 48.1847 21.8763 48.0877C21.9966 47.9907 22.0961 47.8705 22.169 47.7343C23.9097 44.7256 26.9836 42.9312 30.3928 42.9312C33.802 42.9312 36.876 44.7266 38.6166 47.7343C38.7746 47.9884 39.0253 48.1711 39.3156 48.2437C39.6059 48.3164 39.913 48.2733 40.1721 48.1236C40.4313 47.9739 40.622 47.7293 40.704 47.4415C40.7861 47.1538 40.753 46.8454 40.6118 46.5815ZM25.3977 35.6306C25.3977 34.6426 25.6906 33.6769 26.2395 32.8554C26.7884 32.034 27.5685 31.3937 28.4813 31.0157C29.394 30.6376 30.3984 30.5387 31.3673 30.7314C32.3363 30.9241 33.2264 31.3999 33.9249 32.0985C34.6235 32.7971 35.0993 33.6871 35.292 34.6561C35.4848 35.625 35.3858 36.6294 35.0078 37.5422C34.6297 38.4549 33.9894 39.235 33.168 39.7839C32.3465 40.3328 31.3808 40.6258 30.3928 40.6258C29.0685 40.6242 27.7988 40.0975 26.8624 39.161C25.9259 38.2246 25.3992 36.9549 25.3977 35.6306Z" fill="var(--fill-0, #1900FF)"/>
</g>
</g>
</svg>