<?xml version="1.0" encoding="utf-8"?>
<svg xmlns="http://www.w3.org/2000/svg" fill="none" height="100%" overflow="visible" preserveAspectRatio="none" style="display: block;" viewBox="0 0 34.5 34.5" width="100%">
<g id="icon">
<rect fill="var(--fill-0, #F0EFFF)" height="34.5" rx="17.25" width="34.5"/>
<path d="M17.25 10.6362C15.8161 10.6362 14.4144 11.0706 13.2221 11.8845C12.0299 12.6984 11.1006 13.8552 10.5519 15.2086C10.0031 16.562 9.85957 18.0513 10.1393 19.4881C10.4191 20.9249 11.1095 22.2447 12.1235 23.2806C13.1374 24.3164 14.4292 25.0219 15.8356 25.3077C17.242 25.5935 18.6997 25.4468 20.0245 24.8862C21.3492 24.3256 22.4815 23.3762 23.2782 22.1582C24.0748 20.9401 24.5 19.508 24.5 18.0431C24.4978 16.0794 23.7333 14.1967 22.3741 12.8081C21.0149 11.4195 19.1721 10.6385 17.25 10.6362ZM17.25 23.5983C16.1746 23.5983 15.1233 23.2725 14.2291 22.6621C13.3349 22.0516 12.638 21.184 12.2264 20.169C11.8149 19.1539 11.7072 18.0369 11.917 16.9593C12.1268 15.8817 12.6447 14.8919 13.4051 14.115C14.1656 13.3381 15.1344 12.809 16.1892 12.5947C17.244 12.3803 18.3373 12.4903 19.3308 12.9108C20.3244 13.3313 21.1736 14.0433 21.7711 14.9568C22.3686 15.8704 22.6875 16.9444 22.6875 18.0431C22.6859 19.5159 22.1125 20.928 21.0931 21.9694C20.0737 23.0108 18.6916 23.5966 17.25 23.5983ZM20.0058 14.9191C20.0902 15.0051 20.1573 15.1073 20.203 15.2199C20.2488 15.3324 20.2723 15.4531 20.2723 15.5749C20.2723 15.6968 20.2488 15.8174 20.203 15.93C20.1573 16.0425 20.0902 16.1447 20.0058 16.2307L17.8912 18.3911C17.7209 18.565 17.49 18.6627 17.2492 18.6627C17.0085 18.6627 16.7776 18.565 16.6073 18.3911C16.4371 18.2171 16.3414 17.9812 16.3414 17.7353C16.3414 17.4893 16.4371 17.2534 16.6073 17.0794L18.7219 14.9191C18.8061 14.8328 18.9061 14.7643 19.0163 14.7176C19.1265 14.6708 19.2446 14.6468 19.3638 14.6468C19.4831 14.6468 19.6012 14.6708 19.7114 14.7176C19.8215 14.7643 19.9216 14.8328 20.0058 14.9191ZM14.5313 8.47586C14.5313 8.23031 14.6267 7.99481 14.7967 7.82118C14.9666 7.64755 15.1971 7.55 15.4375 7.55H19.0625C19.3029 7.55 19.5334 7.64755 19.7033 7.82118C19.8733 7.99481 19.9688 8.23031 19.9688 8.47586C19.9688 8.72142 19.8733 8.95691 19.7033 9.13055C19.5334 9.30418 19.3029 9.40172 19.0625 9.40172H15.4375C15.1971 9.40172 14.9666 9.30418 14.7967 9.13055C14.6267 8.95691 14.5313 8.72142 14.5313 8.47586Z" fill="var(--fill-0, #1900FF)" id="Vector"/>
</g>
</svg>