<?xml version="1.0" encoding="utf-8"?>
<svg xmlns="http://www.w3.org/2000/svg" fill="none" height="100%" overflow="visible" preserveAspectRatio="none" style="display: block;" viewBox="0 0 24 24" width="100%">
<g id="icon">
<path d="M7.35254 2.59961C7.74966 2.55112 8.15187 2.63221 8.49902 2.83106C8.84617 3.02991 9.12022 3.33605 9.2793 3.70313H9.27832L11.1816 7.94532L11.2188 8.02539V8.05664C11.3119 8.31151 11.3509 8.58335 11.3271 8.8545C11.3004 9.15888 11.1995 9.45233 11.0322 9.70801L11.0303 9.71094L10.9512 9.81641L9.25977 11.8272C9.89161 12.9616 11.0508 14.1118 12.2012 14.7432L14.1807 13.0566L14.1816 13.0557C14.2155 13.0272 14.2511 13 14.2881 12.9756C14.5441 12.8052 14.8393 12.7021 15.1455 12.6738C15.3757 12.6526 15.6072 12.6738 15.8281 12.7373L16.0449 12.8154L16.0557 12.8193L16.0674 12.8252H16.0664L20.2988 14.7217L20.4326 14.7861C20.7398 14.9499 20.996 15.1971 21.1699 15.501C21.3686 15.8481 21.449 16.2505 21.4004 16.6475V16.6514C21.2268 17.9706 20.5783 19.1811 19.5771 20.0576C18.5761 20.934 17.2905 21.4153 15.96 21.4131V21.4141C8.70045 21.414 2.77341 15.6009 2.58984 8.38477L2.58594 8.04004C2.58369 6.70954 3.06598 5.42395 3.94238 4.42285C4.81888 3.4217 6.02939 2.77324 7.34863 2.59961H7.35254ZM7.32812 4.90723C6.67668 5.05968 6.08663 5.4127 5.64355 5.9209C5.13221 6.50747 4.85154 7.25994 4.85449 8.03809V8.03907C4.85771 10.9836 6.02921 13.8066 8.11133 15.8887C10.1934 17.9708 13.0164 19.1423 15.9609 19.1455H15.9619C16.7409 19.148 17.4944 18.8671 18.0811 18.3545C18.5899 17.9099 18.9414 17.3172 19.0928 16.6641L15.3887 15.0049L13.4014 16.7022L13.2959 16.7813C13.0291 16.9593 12.7203 17.0657 12.4004 17.0889C12.0806 17.112 11.7603 17.0516 11.4707 16.9141L11.4678 16.9131C9.69924 16.0586 7.95128 14.3232 7.09473 12.5713L7.09375 12.5703C6.95471 12.2827 6.8918 11.9633 6.91211 11.6445C6.92992 11.3657 7.01083 11.0951 7.14746 10.8525L7.20996 10.75C7.23411 10.712 7.26079 10.6758 7.29004 10.6416L8.98438 8.61328L7.32812 4.90723Z" fill="var(--fill-0, black)" id="Vector" stroke="var(--stroke-0, black)" stroke-width="0.828697"/>
</g>
</svg>