<?xml version="1.0" encoding="utf-8"?>
<svg xmlns="http://www.w3.org/2000/svg" fill="none" height="100%" overflow="visible" preserveAspectRatio="none" style="display: block;" viewBox="0 0 50 50" width="100%">
<g id="Frame">
<path d="M49.668 21.0762L44.6836 11.1035C44.5 10.7365 44.2458 10.4092 43.9357 10.1403C43.6256 9.87149 43.2656 9.66638 42.8762 9.5367C42.4868 9.40702 42.0756 9.35532 41.6663 9.38454C41.2569 9.41377 40.8573 9.52335 40.4902 9.70703L35.6328 12.1348L25.4004 9.42773C25.1378 9.35941 24.8622 9.35941 24.5996 9.42773L14.3672 12.1348L9.50977 9.70703C9.14274 9.52335 8.74312 9.41377 8.33374 9.38454C7.92436 9.35532 7.51323 9.40702 7.12383 9.5367C6.73443 9.66638 6.37439 9.87149 6.06427 10.1403C5.75415 10.4092 5.50003 10.7365 5.31641 11.1035L0.332031 21.0742C0.148352 21.4412 0.0387702 21.8409 0.00954457 22.2502C-0.0196811 22.6596 0.0320217 23.0708 0.1617 23.4602C0.291379 23.8496 0.496493 24.2096 0.765329 24.5197C1.03417 24.8298 1.36146 25.084 1.72852 25.2676L7.00195 27.9063L17.8398 35.6465C17.9996 35.7599 18.1791 35.8427 18.3691 35.8906L30.8691 39.0156C31.1309 39.0813 31.4052 39.078 31.6654 39.0061C31.9255 38.9342 32.1626 38.7962 32.3535 38.6055L43.1094 27.8477L48.2695 25.2676C49.0103 24.8967 49.5736 24.2469 49.8354 23.461C50.0973 22.675 50.0364 21.8172 49.666 21.0762H49.668ZM38.9473 27.5938L32.2266 22.2109C31.9255 21.9698 31.5459 21.8486 31.1608 21.8706C30.7756 21.8926 30.4123 22.0562 30.1406 22.3301C26.6621 25.834 22.7852 25.3906 20.3125 23.8281L28.7578 15.625H34.9707L40.2852 26.252L38.9473 27.5938ZM8.11133 12.5L12.1094 14.4961L7.11523 24.4668L3.125 22.4727L8.11133 12.5ZM30.7676 35.7676L19.418 32.9316L9.80859 26.0684L15.2773 15.1309L25 12.5547L26.9141 13.0605L18.125 21.5918L18.1094 21.6094C17.7785 21.9402 17.5262 22.3411 17.371 22.7825C17.2158 23.2239 17.1617 23.6946 17.2127 24.1597C17.2637 24.6248 17.4185 25.0725 17.6656 25.4698C17.9127 25.8671 18.246 26.2038 18.6406 26.4551C22.6563 29.0195 27.502 28.6035 31.3184 25.4785L36.7187 29.8164L30.7676 35.7676ZM42.877 24.4648L37.8926 14.5039L41.8887 12.5L46.875 22.4727L42.877 24.4648ZM25.7383 42.5645C25.6539 42.9022 25.4591 43.202 25.1849 43.4164C24.9107 43.6308 24.5727 43.7476 24.2246 43.7481C24.0962 43.7481 23.9683 43.7324 23.8438 43.7012L15.7051 41.666C15.5147 41.619 15.3351 41.5361 15.1758 41.4219L10.0293 37.7461C9.71285 37.4976 9.50445 37.1367 9.44747 36.7384C9.39049 36.3402 9.48934 35.9352 9.72342 35.608C9.95751 35.2808 10.3088 35.0565 10.7041 34.9818C11.0995 34.9071 11.5084 34.9878 11.8457 35.207L16.75 38.7109L24.6094 40.6719C25.0113 40.7724 25.3569 41.0285 25.57 41.3838C25.7832 41.739 25.8465 42.1644 25.7461 42.5664L25.7383 42.5645Z" fill="var(--fill-0, #1900FF)" id="Vector"/>
</g>
</svg>