<?xml version="1.0" encoding="utf-8"?>
<svg xmlns="http://www.w3.org/2000/svg" fill="none" height="100%" overflow="visible" preserveAspectRatio="none" style="display: block;" viewBox="0 0 32 32" width="100%">
<g id="icon">
<path d="M9.85645 3.90039C10.2922 3.84719 10.7333 3.93617 11.1143 4.1543C11.4952 4.37248 11.7961 4.70762 11.9707 5.11036H11.9697L14.5107 10.7725L14.5205 10.7949V10.8125C14.6453 11.1144 14.6965 11.4419 14.668 11.7676C14.6387 12.1017 14.5264 12.4234 14.3428 12.7041V12.7051C14.3187 12.7412 14.2937 12.7743 14.2686 12.8057L14.2666 12.8076L11.8223 15.7129C12.7116 17.4737 14.5438 19.292 16.3281 20.1816L19.1904 17.7422H19.1914C19.2232 17.7154 19.2563 17.6899 19.291 17.667L19.3994 17.5996C19.6543 17.4517 19.9389 17.3612 20.2334 17.334C20.5283 17.3068 20.8255 17.3434 21.1035 17.4424L21.2207 17.4893L21.2236 17.4902L21.2393 17.4971H21.2383L26.8896 20.0293C27.2923 20.2041 27.6287 20.5048 27.8467 20.8857C28.0646 21.2667 28.1529 21.708 28.0996 22.1436V22.1445C27.882 23.7982 27.0703 25.3164 25.8154 26.415C24.5605 27.5137 22.9482 28.1181 21.2803 28.1152C11.6887 28.1152 3.88477 20.3114 3.88477 10.7197C3.88185 9.05182 4.48631 7.43954 5.58496 6.18457C6.68366 4.92965 8.20179 4.118 9.85547 3.90039H9.85645ZM10.0283 6.04786C8.93027 6.21672 7.92571 6.76757 7.19434 7.60645C6.44267 8.46869 6.03075 9.57586 6.03516 10.7197C6.03958 14.7616 7.64682 18.6371 10.5049 21.4951C13.3629 24.3532 17.2384 25.9604 21.2803 25.9648C22.4255 25.9687 23.5331 25.5553 24.3955 24.8018C25.235 24.0683 25.7843 23.0611 25.9512 21.9609L20.4463 19.4941L17.584 21.9365C17.5525 21.9634 17.5197 21.9887 17.4854 22.0117H17.4844C17.1916 22.207 16.8529 22.3232 16.502 22.3486C16.1509 22.374 15.7993 22.3074 15.4814 22.1563H15.4805C13.2101 21.0591 10.9512 18.8171 9.85254 16.5703V16.5693C9.69999 16.2538 9.6311 15.9044 9.65332 15.5547C9.67556 15.2056 9.78689 14.8675 9.97754 14.5742C10.0011 14.5365 10.0284 14.5013 10.0576 14.4678L12.4893 11.5547L10.0283 6.04786Z" fill="var(--fill-0, black)" id="Vector" stroke="var(--stroke-0, black)" stroke-width="0.230134"/>
</g>
</svg>