<?xml version="1.0" encoding="utf-8"?>
<svg xmlns="http://www.w3.org/2000/svg" fill="none" height="100%" overflow="visible" preserveAspectRatio="none" style="display: block;" viewBox="0 0 24.4603 24.4602" width="100%">
<path d="M6.08658 0.130525C6.52232 0.0773199 6.96346 0.166299 7.34439 0.384431C7.72529 0.60261 8.02623 0.937753 8.20084 1.34049H8.19986L10.7409 7.0026L10.7506 7.02506V7.04263C10.8754 7.34449 10.9266 7.67208 10.8981 7.99771C10.8688 8.33184 10.7566 8.65358 10.5729 8.93424V8.93521C10.5488 8.97137 10.5238 9.00442 10.4987 9.0358L10.4967 9.03775L8.0524 11.943C8.94176 13.7038 10.7739 15.5222 12.5583 16.4118L15.4206 13.9723H15.4215C15.4534 13.9455 15.4864 13.9201 15.5211 13.8971L15.6295 13.8297C15.8845 13.6818 16.1691 13.5913 16.4635 13.5641C16.7584 13.5369 17.0556 13.5735 17.3336 13.6725L17.4508 13.7194L17.4538 13.7204L17.4694 13.7272H17.4684L23.1198 16.2594C23.5224 16.4342 23.8588 16.7349 24.0768 17.1159C24.2947 17.4968 24.383 17.9381 24.3297 18.3737V18.3747C24.1121 20.0283 23.3005 21.5465 22.0456 22.6452C20.7906 23.7438 19.1783 24.3483 17.5104 24.3454C7.91878 24.3454 0.1149 16.5415 0.1149 6.94986C0.111979 5.28195 0.716442 3.66967 1.81509 2.4147C2.91379 1.15978 4.43193 0.348134 6.0856 0.130525H6.08658ZM6.25845 2.27799C5.1604 2.44685 4.15584 2.9977 3.42447 3.83658C2.67281 4.69882 2.26088 5.80599 2.26529 6.94986C2.26972 10.9918 3.87696 14.8672 6.73502 17.7253C9.59308 20.5833 13.4685 22.1906 17.5104 22.195C18.6556 22.1988 19.7632 21.7854 20.6256 21.0319C21.4651 20.2984 22.0144 19.2913 22.1813 18.1911L16.6764 15.7243L13.8141 18.1667C13.7826 18.1935 13.7499 18.2188 13.7155 18.2419H13.7145C13.4217 18.4371 13.0831 18.5534 12.7321 18.5788C12.3811 18.6041 12.0294 18.5375 11.7116 18.3864H11.7106C9.44021 17.2893 7.18132 15.0472 6.08267 12.8004V12.7995C5.93012 12.4839 5.86123 12.1346 5.88345 11.7848C5.90569 11.4357 6.01703 11.0976 6.20767 10.8044C6.2312 10.7666 6.25853 10.7314 6.28775 10.6979L8.71939 7.78482L6.25845 2.27799Z" fill="var(--fill-0, black)" id="Vector" stroke="var(--stroke-0, black)" stroke-width="0.230134"/>
</svg>