<?xml version="1.0" encoding="utf-8"?>
<svg xmlns="http://www.w3.org/2000/svg" fill="none" height="100%" overflow="visible" preserveAspectRatio="none" style="display: block;" viewBox="0 0 43.9738 43.9738" width="100%">
<g id="Avatar">
<rect fill="var(--fill-0, white)" height="43.9738" rx="6.76519" width="43.9738"/>
<rect height="43.1281" rx="6.34237" stroke="var(--stroke-0, #969695)" stroke-opacity="0.24" stroke-width="0.845649" width="43.1281" x="0.422825" y="0.422825"/>
<g clip-path="url(#clip0_0_4579)" id="Logo">
<path clip-rule="evenodd" d="M25.7452 16.3618C24.6327 15.6185 23.3247 15.2217 21.9867 15.2217V8.4565C24.6627 8.4565 27.2787 9.25005 29.5038 10.7368C31.7289 12.2235 33.463 14.3367 34.4872 16.809C35.5112 19.2814 35.7792 22.0019 35.2571 24.6265C34.735 27.2512 33.4464 29.6621 31.5541 31.5543C29.6619 33.4466 27.251 34.7352 24.6264 35.2573C22.0017 35.7794 19.2812 35.5114 16.8088 34.4873C14.3365 33.4632 12.2233 31.729 10.7366 29.504C9.24987 27.2789 8.45633 24.6629 8.45633 21.9869H15.2215C15.2215 23.3249 15.6183 24.6329 16.3617 25.7454C17.105 26.858 18.1616 27.7251 19.3978 28.2371C20.6339 28.7492 21.9942 28.8831 23.3065 28.6221C24.6188 28.3611 25.8243 27.7167 26.7704 26.7706C27.7166 25.8244 28.3609 24.619 28.6219 23.3067C28.8829 21.9944 28.749 20.6341 28.2369 19.398C27.7249 18.1618 26.8578 17.1052 25.7452 16.3618Z" fill="var(--fill-0, #1B1B1D)" fill-rule="evenodd" id="Vector"/>
<path clip-rule="evenodd" d="M15.2212 8.45651C15.2212 9.34489 15.0463 10.2246 14.7063 11.0453C14.3663 11.8661 13.868 12.6118 13.2398 13.24C12.6117 13.8682 11.8659 14.3665 11.0452 14.7065C10.2244 15.0465 9.34471 15.2214 8.45633 15.2214L8.45633 21.9864C10.2331 21.9864 11.9925 21.6364 13.634 20.9565C15.2755 20.2765 16.767 19.2799 18.0233 18.0235C19.2797 16.7672 20.2763 15.2757 20.9563 13.6342C21.6362 11.9926 21.9862 10.2333 21.9862 8.4565L15.2212 8.45651Z" fill="var(--fill-0, #1B1B1D)" fill-rule="evenodd" id="Vector_2"/>
</g>
</g>
<defs>
<clipPath id="clip0_0_4579">
<rect fill="white" height="27.0608" transform="translate(8.45633 8.4565)" width="27.0608"/>
</clipPath>
</defs>
</svg>