<?xml version="1.0" encoding="utf-8"?>
<svg xmlns="http://www.w3.org/2000/svg" fill="none" height="100%" overflow="visible" preserveAspectRatio="none" style="display: block;" viewBox="0 0 50 50" width="100%">
<g id="Frame">
<path d="M44.8555 44.8555C44.7104 45.0007 44.538 45.116 44.3483 45.1946C44.1587 45.2733 43.9553 45.3137 43.75 45.3137C43.5447 45.3137 43.3413 45.2733 43.1517 45.1946C42.962 45.116 42.7896 45.0007 42.6445 44.8555L32.8672 35.0762C29.4643 37.9106 25.0996 39.324 20.6811 39.0223C16.2627 38.7207 12.1306 36.7272 9.14448 33.4565C6.15837 30.1859 4.54815 25.8899 4.64878 21.4623C4.7494 17.0347 6.55313 12.8163 9.68473 9.68473C12.8163 6.55313 17.0347 4.7494 21.4623 4.64878C25.8899 4.54815 30.1859 6.15837 33.4565 9.14448C36.7272 12.1306 38.7207 16.2627 39.0223 20.6811C39.324 25.0996 37.9106 29.4643 35.0762 32.8672L44.8555 42.6445C45.0007 42.7896 45.116 42.962 45.1946 43.1517C45.2733 43.3413 45.3137 43.5447 45.3137 43.75C45.3137 43.9553 45.2733 44.1587 45.1946 44.3483C45.116 44.538 45.0007 44.7104 44.8555 44.8555ZM21.875 35.9375C24.6563 35.9375 27.3751 35.1128 29.6877 33.5675C32.0003 32.0223 33.8027 29.8261 34.8671 27.2565C35.9314 24.6869 36.2099 21.8594 35.6673 19.1315C35.1247 16.4037 33.7854 13.898 31.8187 11.9313C29.852 9.96463 27.3463 8.62531 24.6185 8.08271C21.8906 7.5401 19.0631 7.81859 16.4935 8.88294C13.9239 9.9473 11.7277 11.7497 10.1825 14.0623C8.63725 16.3749 7.8125 19.0937 7.8125 21.875C7.81664 25.6033 9.29954 29.1778 11.9359 31.8141C14.5722 34.4505 18.1467 35.9334 21.875 35.9375Z" fill="var(--fill-0, #1900FF)" id="Vector"/>
<g id="Group 2085663004">
<path d="M24.4297 26.312L16.3688 18.2511C15.6442 17.5265 15.6442 16.3517 16.3688 15.6271C17.0934 14.9025 18.2682 14.9025 18.9928 15.6271L27.0537 23.688C27.7783 24.4126 27.7783 25.5875 27.0537 26.312C26.3291 27.0366 25.1543 27.0366 24.4297 26.312Z" fill="var(--fill-0, #1900FF)" id="Vector 77 (Stroke)"/>
<path d="M16.3689 23.6866L24.4298 15.6257C25.1544 14.9011 26.3293 14.9011 27.0539 15.6257C27.7785 16.3503 27.7785 17.5252 27.0539 18.2498L18.993 26.3107C18.2683 27.0352 17.0935 27.0353 16.3689 26.3107C15.6443 25.5861 15.6444 24.4112 16.3689 23.6866Z" fill="var(--fill-0, #1900FF)" id="Vector 78 (Stroke)"/>
</g>
</g>
</svg>