<?xml version="1.0" encoding="utf-8"?>
<svg xmlns="http://www.w3.org/2000/svg" fill="none" height="100%" overflow="visible" preserveAspectRatio="none" style="display: block;" viewBox="0 0 50 50" width="100%">
<g id="Frame">
<path d="M40.625 6.64062H35.5469V4.6875C35.5469 4.3767 35.4234 4.07863 35.2036 3.85886C34.9839 3.63909 34.6858 3.51562 34.375 3.51562C34.0642 3.51562 33.7661 3.63909 33.5464 3.85886C33.3266 4.07863 33.2031 4.3767 33.2031 4.6875V6.64062H16.7969V4.6875C16.7969 4.3767 16.6734 4.07863 16.4536 3.85886C16.2339 3.63909 15.9358 3.51562 15.625 3.51562C15.3142 3.51562 15.0161 3.63909 14.7964 3.85886C14.5766 4.07863 14.4531 4.3767 14.4531 4.6875V6.64062H9.375C8.6498 6.64062 7.9543 6.92871 7.44151 7.44151C6.92871 7.9543 6.64062 8.6498 6.64062 9.375V40.625C6.64062 41.3502 6.92871 42.0457 7.44151 42.5585C7.9543 43.0713 8.6498 43.3594 9.375 43.3594H40.625C41.3502 43.3594 42.0457 43.0713 42.5585 42.5585C43.0713 42.0457 43.3594 41.3502 43.3594 40.625V9.375C43.3594 8.6498 43.0713 7.9543 42.5585 7.44151C42.0457 6.92871 41.3502 6.64062 40.625 6.64062ZM9.375 8.98438H14.4531V10.9375C14.4531 11.2483 14.5766 11.5464 14.7964 11.7661C15.0161 11.9859 15.3142 12.1094 15.625 12.1094C15.9358 12.1094 16.2339 11.9859 16.4536 11.7661C16.6734 11.5464 16.7969 11.2483 16.7969 10.9375V8.98438H33.2031V10.9375C33.2031 11.2483 33.3266 11.5464 33.5464 11.7661C33.7661 11.9859 34.0642 12.1094 34.375 12.1094C34.6858 12.1094 34.9839 11.9859 35.2036 11.7661C35.4234 11.5464 35.5469 11.2483 35.5469 10.9375V8.98438H40.625C40.7286 8.98438 40.828 9.02553 40.9012 9.09879C40.9745 9.17204 41.0156 9.2714 41.0156 9.375V16.0156H8.98438V9.375C8.98438 9.2714 9.02553 9.17204 9.09879 9.09879C9.17204 9.02553 9.2714 8.98438 9.375 8.98438ZM40.625 41.0156H9.375C9.2714 41.0156 9.17204 40.9745 9.09879 40.9012C9.02553 40.828 8.98438 40.7286 8.98438 40.625V18.3594H41.0156V40.625C41.0156 40.7286 40.9745 40.828 40.9012 40.9012C40.828 40.9745 40.7286 41.0156 40.625 41.0156ZM30.8594 29.6875C30.8594 29.9983 30.7359 30.2964 30.5161 30.5161C30.2964 30.7359 29.9983 30.8594 29.6875 30.8594H20.3125C20.0017 30.8594 19.7036 30.7359 19.4839 30.5161C19.2641 30.2964 19.1406 29.9983 19.1406 29.6875C19.1406 29.3767 19.2641 29.0786 19.4839 28.8589C19.7036 28.6391 20.0017 28.5156 20.3125 28.5156H29.6875C29.9983 28.5156 30.2964 28.6391 30.5161 28.8589C30.7359 29.0786 30.8594 29.3767 30.8594 29.6875Z" fill="var(--fill-0, #1900FF)" id="Vector"/>
</g>
</svg>