<?xml version="1.0" encoding="utf-8"?>
<svg xmlns="http://www.w3.org/2000/svg" fill="none" height="100%" overflow="visible" preserveAspectRatio="none" style="display: block;" viewBox="0 0 28.4156 21.8581" width="100%">
<path d="M27.3227 0H1.09291C0.80305 0 0.525065 0.115145 0.320105 0.320105C0.115145 0.525065 0 0.80305 0 1.09291V19.6723C0 20.252 0.23029 20.808 0.64021 21.2179C1.05013 21.6279 1.6061 21.8581 2.18581 21.8581H26.2298C26.8095 21.8581 27.3655 21.6279 27.7754 21.2179C28.1853 20.808 28.4156 20.252 28.4156 19.6723V1.09291C28.4156 0.80305 28.3004 0.525065 28.0955 0.320105C27.8905 0.115145 27.6125 0 27.3227 0ZM14.2078 11.6326L3.90304 2.18581H24.5125L14.2078 11.6326ZM10.2064 10.9291L2.18581 18.2802V3.57791L10.2064 10.9291ZM11.8239 12.4113L13.4633 13.9209C13.6649 14.106 13.9286 14.2087 14.2023 14.2087C14.476 14.2087 14.7398 14.106 14.9414 13.9209L16.5808 12.4113L24.5043 19.6723H3.90304L11.8239 12.4113ZM18.2092 10.9291L26.2298 3.57654V18.2816L18.2092 10.9291Z" fill="var(--fill-0, black)" id="Vector"/>
</svg>