<?xml version="1.0" encoding="utf-8"?>
<svg xmlns="http://www.w3.org/2000/svg" fill="none" height="100%" overflow="visible" preserveAspectRatio="none" style="display: block;" viewBox="0 0 24 24" width="100%">
<g id="icon">
<path d="M19.3474 2.98268H4.65255C4.20967 2.98268 3.78493 3.15861 3.47177 3.47177C3.15861 3.78493 2.98268 4.20967 2.98268 4.65255V19.3474C2.98268 19.7903 3.15861 20.2151 3.47177 20.5282C3.78493 20.8414 4.20967 21.0173 4.65255 21.0173H19.3474C19.7903 21.0173 20.2151 20.8414 20.5282 20.5282C20.8414 20.2151 21.0173 19.7903 21.0173 19.3474V4.65255C21.0173 4.20967 20.8414 3.78493 20.5282 3.47177C20.2151 3.15861 19.7903 2.98268 19.3474 2.98268ZM19.0135 19.0135H4.98652V4.98652H19.0135V19.0135ZM10.6641 16.0077V11.332C10.6643 11.1238 10.7294 10.9208 10.8502 10.7513C10.9711 10.5818 11.1418 10.4541 11.3386 10.3861C11.5354 10.318 11.7485 10.313 11.9483 10.3716C12.1481 10.4303 12.3246 10.5497 12.4534 10.7134C12.9623 10.4466 13.5314 10.3157 14.1057 10.3332C14.68 10.3507 15.24 10.5161 15.7317 10.8134C16.2234 11.1106 16.6301 11.5297 16.9125 12.0301C17.1948 12.5305 17.3433 13.0953 17.3436 13.6699V16.0077C17.3436 16.2734 17.238 16.5283 17.0501 16.7162C16.8622 16.9041 16.6074 17.0096 16.3417 17.0096C16.0759 17.0096 15.8211 16.9041 15.6332 16.7162C15.4453 16.5283 15.3397 16.2734 15.3397 16.0077V13.6699C15.3397 13.3156 15.199 12.9758 14.9485 12.7253C14.6979 12.4747 14.3582 12.334 14.0038 12.334C13.6495 12.334 13.3098 12.4747 13.0592 12.7253C12.8087 12.9758 12.6679 13.3156 12.6679 13.6699V16.0077C12.6679 16.2734 12.5624 16.5283 12.3745 16.7162C12.1866 16.9041 11.9318 17.0096 11.666 17.0096C11.4003 17.0096 11.1455 16.9041 10.9576 16.7162C10.7697 16.5283 10.6641 16.2734 10.6641 16.0077ZM9.3282 11.332V16.0077C9.3282 16.2734 9.22264 16.5283 9.03474 16.7162C8.84685 16.9041 8.592 17.0096 8.32627 17.0096C8.06055 17.0096 7.8057 16.9041 7.61781 16.7162C7.42991 16.5283 7.32435 16.2734 7.32435 16.0077V11.332C7.32435 11.0663 7.42991 10.8115 7.61781 10.6236C7.8057 10.4357 8.06055 10.3301 8.32627 10.3301C8.592 10.3301 8.84685 10.4357 9.03474 10.6236C9.22264 10.8115 9.3282 11.0663 9.3282 11.332ZM6.99037 7.9923C6.99037 7.72808 7.06872 7.4698 7.21551 7.25011C7.36231 7.03043 7.57094 6.8592 7.81505 6.75809C8.05915 6.65698 8.32776 6.63052 8.5869 6.68207C8.84604 6.73361 9.08407 6.86085 9.2709 7.04768C9.45773 7.23451 9.58496 7.47254 9.63651 7.73168C9.68805 7.99082 9.6616 8.25942 9.56049 8.50353C9.45937 8.74763 9.28815 8.95627 9.06846 9.10306C8.84877 9.24985 8.59049 9.3282 8.32627 9.3282C7.97197 9.3282 7.63218 9.18745 7.38165 8.93692C7.13112 8.68639 6.99037 8.3466 6.99037 7.9923Z" fill="var(--fill-0, black)" id="Vector"/>
</g>
</svg>