<?xml version="1.0" encoding="utf-8"?>
<svg xmlns="http://www.w3.org/2000/svg" fill="none" height="100%" overflow="visible" preserveAspectRatio="none" style="display: block;" viewBox="0 0 24 24" width="100%">
<g id="solar:phone-calling-rounded-bold">
<g id="Vector">
<path d="M10.0377 5.31514L10.6867 6.47814C11.2717 7.52814 11.0367 8.90414 10.1147 9.82714C10.1147 9.82714 8.99466 10.9461 11.0247 12.9751C13.0517 15.0021 14.1717 13.8851 14.1717 13.8851C15.0947 12.9621 16.4717 12.7271 17.5207 13.3121L18.6837 13.9621C20.2687 14.8461 20.4557 17.0681 19.0627 18.4621C18.2257 19.2981 17.1997 19.9501 16.0667 19.9921C14.1587 20.0651 10.9177 19.5821 7.66666 16.3321C4.41666 13.0811 3.93366 9.84014 4.00666 7.93214C4.04966 6.79914 4.70066 5.77314 5.53666 4.93614C6.93066 3.54314 9.15266 3.73014 10.0367 5.31614M13.2597 1.87914C13.2918 1.68284 13.4005 1.50732 13.5619 1.39108C13.7234 1.27484 13.9243 1.22739 14.1207 1.25914C14.1457 1.26414 14.2277 1.27914 14.2707 1.28914C14.3557 1.30714 14.4747 1.33714 14.6227 1.37914C14.9197 1.46614 15.3347 1.60914 15.8327 1.83714C16.8287 2.29414 18.1537 3.09314 19.5297 4.46814C20.9057 5.84414 21.7047 7.17014 22.1617 8.16614C22.3897 8.66414 22.5317 9.07814 22.6187 9.37614C22.6625 9.52587 22.7002 9.67733 22.7317 9.83014L22.7367 9.86114C22.7696 10.0592 22.7234 10.2622 22.6079 10.4265C22.4925 10.5907 22.3171 10.703 22.1197 10.7391C21.9239 10.7709 21.7234 10.7239 21.5623 10.6082C21.4011 10.4926 21.2923 10.3178 21.2597 10.1221C21.2392 10.0116 21.2122 9.90243 21.1787 9.79514C21.0765 9.45171 20.9495 9.11616 20.7987 8.79114C20.4087 7.94114 19.7067 6.76714 18.4687 5.52914C17.2317 4.29114 16.0577 3.59014 15.2067 3.20014C14.882 3.04936 14.5468 2.92236 14.2037 2.82014C14.0984 2.79046 13.9924 2.76378 13.8857 2.74014C13.6892 2.70744 13.5135 2.59885 13.3964 2.43779C13.2793 2.27672 13.2302 2.07609 13.2597 1.87914Z" fill="var(--fill-0, #0D062D)"/>
<path clip-rule="evenodd" d="M13.4861 5.33331C13.5131 5.23855 13.5584 5.15003 13.6196 5.07281C13.6808 4.99559 13.7566 4.93117 13.8427 4.88326C13.9288 4.83534 14.0235 4.80485 14.1213 4.79354C14.2192 4.78222 14.3183 4.7903 14.4131 4.81732L14.4191 4.81931L14.4271 4.82131L14.4471 4.82731L14.5031 4.84731C14.7689 4.9497 15.0255 5.07448 15.2701 5.22031C15.7591 5.51031 16.4271 5.99031 17.2121 6.77631C17.9971 7.56131 18.4781 8.22932 18.7681 8.71832C18.9131 8.96332 19.0091 9.16232 19.0711 9.30832C19.1043 9.38469 19.1344 9.46242 19.1611 9.54132L19.1661 9.56131L19.1691 9.56931V9.57232L19.1701 9.57331C19.1701 9.57331 19.1701 9.57531 18.4501 9.78131L19.1701 9.57531C19.2209 9.76454 19.1956 9.96612 19.0997 10.1369C19.0038 10.3078 18.8448 10.4343 18.6568 10.4894C18.4688 10.5446 18.2667 10.5239 18.0937 10.432C17.9207 10.34 17.7905 10.184 17.7311 9.99732L17.7281 9.98732C17.6578 9.81317 17.5742 9.64467 17.4781 9.48331C17.2541 9.10631 16.8511 8.53632 16.1511 7.83632C15.4511 7.13632 14.8821 6.73431 14.5051 6.51131C14.3438 6.41518 14.1753 6.3316 14.0011 6.26131L13.9911 6.25732C13.8022 6.20052 13.6433 6.0716 13.5487 5.89846C13.4542 5.72533 13.4317 5.52293 13.4861 5.33331Z" fill="var(--fill-0, #0D062D)" fill-rule="evenodd"/>
</g>
</g>
</svg>