<?xml version="1.0" encoding="utf-8"?>
<svg xmlns="http://www.w3.org/2000/svg" fill="none" height="100%" overflow="visible" preserveAspectRatio="none" style="display: block;" viewBox="0 0 269 43" width="100%">
<g id="logo">
<path d="M63.7117 21.0321C64.4083 22.1623 64.4083 23.6186 63.7117 24.7488L53.6206 41.8421C53.1788 42.5632 52.4039 43 51.5678 43H44.2572L44.2537 42.9968C43.7949 42.9968 43.5162 42.4834 43.7609 42.0846L53.3181 25.8515C54.4294 24.0485 54.4294 21.7219 53.3181 19.919L47.8394 11.0328C47.4587 10.4156 47.4554 9.6321 47.8292 9.0115L52.0096 2.05965L63.7117 21.0321Z" fill="var(--fill-0, black)"/>
<path d="M98.1302 1.14967C101.263 1.14969 103.917 1.73262 106.092 2.89822C108.266 4.02626 109.98 5.58657 111.234 7.57943C112.487 9.57231 113.261 11.8661 113.556 14.4606L106.313 14.799C106.128 13.3325 105.686 12.0539 104.986 10.9635C104.323 9.87309 103.401 9.02715 102.221 8.42554C101.079 7.78636 99.6781 7.46676 98.0194 7.46676C95.9554 7.46678 94.3153 7.95566 93.0989 8.93328C91.9195 9.8733 91.3297 11.1328 91.3297 12.712C91.3297 13.8025 91.5691 14.705 92.0483 15.4194C92.5643 16.1338 93.4674 16.7542 94.7574 17.2806C96.0475 17.7694 97.8538 18.2961 100.176 18.8601C103.678 19.6122 106.46 20.5708 108.525 21.7365C110.589 22.9021 112.063 24.2557 112.948 25.7973C113.832 27.3389 114.274 29.1064 114.274 31.0993C114.274 33.5433 113.666 35.6678 112.45 37.4727C111.234 39.2399 109.52 40.6125 107.308 41.5902C105.097 42.5302 102.498 43 99.5122 43C96.2687 43 93.4674 42.4171 91.1084 41.2515C88.7495 40.0858 86.888 38.4689 85.5242 36.4009C84.1973 34.2952 83.4232 31.8511 83.202 29.0687L90.5003 28.6176C90.7214 30.3472 91.2007 31.8136 91.9378 33.0168C92.7119 34.22 93.7255 35.1412 94.9786 35.7805C96.2687 36.3821 97.8169 36.6829 99.623 36.6829C101.171 36.6829 102.48 36.4952 103.548 36.1192C104.654 35.7056 105.483 35.1226 106.036 34.3706C106.626 33.581 106.921 32.622 106.921 31.494C106.921 30.4788 106.682 29.5762 106.202 28.7866C105.723 27.9594 104.802 27.2262 103.438 26.587C102.074 25.9102 100.047 25.2524 97.3561 24.6132C94.1125 23.8611 91.514 23.0149 89.5604 22.0748C87.6069 21.0972 86.1876 19.8939 85.3029 18.4651C84.4184 16.9986 83.9762 15.1749 83.9762 12.9941C83.9762 10.6628 84.5476 8.61361 85.6902 6.84636C86.8328 5.04149 88.4545 3.65016 90.5555 2.67252C92.6565 1.65728 95.1815 1.14967 98.1302 1.14967Z" fill="var(--fill-0, black)"/>
<path d="M23.5591 42.8787H14.0867L39.8116 0H49.2738L23.5591 42.8787Z" fill="var(--fill-0, black)"/>
<path clip-rule="evenodd" d="M151.674 11.3022C155.876 11.3023 159.046 12.3928 161.184 14.5736C163.359 16.7169 164.446 19.8001 164.446 23.8234V34.7654C164.446 35.555 164.575 36.1004 164.833 36.4012C165.128 36.702 165.552 36.8523 166.105 36.8523H167.044V42.0979C166.823 42.1731 166.455 42.2293 165.939 42.2669C165.46 42.3045 164.962 42.3233 164.446 42.3233C163.23 42.3233 162.142 42.1355 161.184 41.7595C160.226 41.3459 159.488 40.6502 158.972 39.6726C158.661 39.06 158.444 38.3171 158.321 37.4443C157.973 38.2002 157.49 38.9053 156.871 39.5596C155.913 40.5748 154.697 41.3645 153.222 41.9286C151.748 42.4926 150.089 42.7747 148.246 42.7747C145.15 42.7747 142.662 42.0602 140.782 40.6314C138.903 39.165 137.962 37.1345 137.962 34.54C137.962 31.9456 138.755 29.9151 140.34 28.4486C141.925 26.9822 144.339 25.9291 147.583 25.2899L157.369 23.316C157.369 21.1727 156.89 19.5746 155.931 18.5218C154.973 17.4313 153.554 16.8859 151.674 16.8859C149.979 16.8859 148.633 17.2995 147.638 18.1267C146.68 18.9163 146.016 20.0634 145.648 21.5675L138.46 21.2291C139.05 18.033 140.488 15.5889 142.773 13.8969C145.058 12.1672 148.025 11.3022 151.674 11.3022ZM149.739 29.8021C148.154 30.1405 147.012 30.6482 146.311 31.325C145.648 31.9641 145.316 32.8101 145.316 33.8629C145.316 35.0285 145.685 35.931 146.422 36.5702C147.196 37.2095 148.283 37.5294 149.684 37.5294C151.269 37.5294 152.633 37.2095 153.775 36.5702C154.918 35.931 155.803 35.0476 156.429 33.9196C157.056 32.7916 157.369 31.4564 157.369 29.9148V28.2229L149.739 29.8021Z" fill="var(--fill-0, black)" fill-rule="evenodd"/>
<path d="M128.51 11.979H136.305V17.563H128.51V32.7915C128.51 34.1827 128.805 35.1605 129.394 35.7245C129.984 36.2509 130.906 36.5139 132.159 36.5139H136.305V42.0979H130.003C127.054 42.0979 124.879 41.4022 123.478 40.011C122.115 38.6197 121.433 36.4387 121.433 33.4682V17.563H116.788V11.979H121.433V4.9288H128.51V11.979Z" fill="var(--fill-0, black)"/>
<path d="M186.439 7.63505H182.016C180.874 7.63505 180.026 7.93591 179.473 8.53749C178.957 9.1391 178.699 10.0229 178.699 11.1885V12.7677H189.701V10.7938C189.701 8.08649 190.438 5.96201 191.913 4.42035C193.424 2.84111 195.728 2.05142 198.824 2.0514H204.574V7.63505H200.151C199.008 7.63505 198.16 7.9359 197.607 8.53749C197.091 9.1391 196.834 10.0229 196.834 11.1885V12.7677H204.187V18.3517H196.834V42.0968H189.701V18.3517H178.699V42.0968H171.566V18.3517H167.364V12.7677H171.566V10.7938C171.566 8.08648 172.304 5.96201 173.778 4.42035C175.289 2.8411 177.593 2.05141 180.689 2.0514H186.439V7.63505Z" fill="var(--fill-0, black)"/>
<path d="M236.388 42.0968H229.2V2.0514H236.388V42.0968Z" fill="var(--fill-0, black)"/>
<path d="M269 8.42482H257.113V42.0968H249.925V8.42482H237.983V2.0514H269V8.42482Z" fill="var(--fill-0, black)"/>
<path d="M22.5534 0C23.0223 0.00017671 23.3008 0.537398 23.0325 0.932583L10.9059 17.6897C9.79453 19.4925 9.79455 21.8188 10.9059 23.6217L15.9562 31.8043C16.3368 32.4215 16.3403 33.2053 15.9699 33.826L11.793 40.7846L0.522485 22.5158C-0.174167 21.3891 -0.174157 19.9294 0.522485 18.7991L13.2443 1.07145C13.6963 0.402309 14.444 0 15.2393 0H22.5534Z" fill="var(--fill-0, black)"/>
<path d="M224.283 28.674H205.485V22.5826H224.283V28.674Z" fill="var(--fill-0, black)"/>
</g>
</svg>