<?xml version="1.0" encoding="utf-8"?>
<svg xmlns="http://www.w3.org/2000/svg" fill="none" height="100%" overflow="visible" preserveAspectRatio="none" style="display: block;" viewBox="0 0 25.6 25.6" width="100%">
<g id="icon">
<path d="M23.4919 4.25674H2.50809C2.27621 4.25674 2.05382 4.34886 1.88985 4.51283C1.72588 4.67679 1.63377 4.89918 1.63377 5.13107V19.9946C1.63377 20.4584 1.818 20.9032 2.14593 21.2311C2.47387 21.559 2.91865 21.7433 3.38242 21.7433H22.6176C23.0814 21.7433 23.5261 21.559 23.8541 21.2311C24.182 20.9032 24.3662 20.4584 24.3662 19.9946V5.13107C24.3662 4.89918 24.2741 4.67679 24.1102 4.51283C23.9462 4.34886 23.7238 4.25674 23.4919 4.25674ZM13 13.5628L4.7562 6.00539H21.2438L13 13.5628ZM9.79887 13L3.38242 18.8809V7.11907L9.79887 13ZM11.0929 14.1858L12.4044 15.3935C12.5657 15.5415 12.7767 15.6237 12.9956 15.6237C13.2146 15.6237 13.4256 15.5415 13.5869 15.3935L14.8984 14.1858L21.2372 19.9946H4.7562L11.0929 14.1858ZM16.2011 13L22.6176 7.11797V18.882L16.2011 13Z" fill="var(--fill-0, black)" id="Vector"/>
</g>
</svg>