<?xml version="1.0" encoding="utf-8"?>
<svg xmlns="http://www.w3.org/2000/svg" fill="none" height="100%" overflow="visible" preserveAspectRatio="none" style="display: block;" viewBox="0 0 19.3654 19.3654" width="100%">
<path d="M18.1429 7.50581C17.817 7.16519 17.4799 6.81419 17.3528 6.50556C17.2352 6.22286 17.2283 5.75429 17.2214 5.30041C17.2084 4.45663 17.1946 3.50047 16.5297 2.83565C15.8649 2.17082 14.9088 2.15699 14.065 2.14402C13.6111 2.13711 13.1425 2.13019 12.8598 2.01262C12.5521 1.88553 12.2002 1.54837 11.8596 1.22244C11.263 0.649259 10.5853 0 9.68269 0C8.78013 0 8.1032 0.649259 7.50581 1.22244C7.16519 1.54837 6.81419 1.88553 6.50556 2.01262C6.22459 2.13019 5.75429 2.13711 5.30041 2.14402C4.45663 2.15699 3.50047 2.17082 2.83565 2.83565C2.17082 3.50047 2.16132 4.45663 2.14402 5.30041C2.13711 5.75429 2.13019 6.22286 2.01262 6.50556C1.88553 6.81333 1.54837 7.16519 1.22244 7.50581C0.649259 8.10234 0 8.78013 0 9.68269C0 10.5853 0.649259 11.2622 1.22244 11.8596C1.54837 12.2002 1.88553 12.5512 2.01262 12.8598C2.13019 13.1425 2.13711 13.6111 2.14402 14.065C2.15699 14.9088 2.17082 15.8649 2.83565 16.5297C3.50047 17.1946 4.45663 17.2084 5.30041 17.2214C5.75429 17.2283 6.22286 17.2352 6.50556 17.3528C6.81333 17.4799 7.16519 17.817 7.50581 18.1429C8.10234 18.7161 8.78013 19.3654 9.68269 19.3654C10.5853 19.3654 11.2622 18.7161 11.8596 18.1429C12.2002 17.817 12.5512 17.4799 12.8598 17.3528C13.1425 17.2352 13.6111 17.2283 14.065 17.2214C14.9088 17.2084 15.8649 17.1946 16.5297 16.5297C17.1946 15.8649 17.2084 14.9088 17.2214 14.065C17.2283 13.6111 17.2352 13.1425 17.3528 12.8598C17.4799 12.5521 17.817 12.2002 18.1429 11.8596C18.7161 11.263 19.3654 10.5853 19.3654 9.68269C19.3654 8.78013 18.7161 8.1032 18.1429 7.50581ZM17.1444 10.9025C16.7303 11.3348 16.3015 11.7818 16.0741 12.3307C15.8563 12.8581 15.8468 13.4607 15.8381 14.0442C15.8295 14.6494 15.82 15.2831 15.5511 15.5511C15.2822 15.8191 14.6529 15.8295 14.0442 15.8381C13.4607 15.8468 12.8581 15.8563 12.3307 16.0741C11.7818 16.3015 11.3348 16.7303 10.9025 17.1444C10.4703 17.5585 10.0285 17.9821 9.68269 17.9821C9.33688 17.9821 8.89165 17.5568 8.46285 17.1444C8.03404 16.732 7.58362 16.3015 7.03465 16.0741C6.50729 15.8563 5.90471 15.8468 5.32116 15.8381C4.71599 15.8295 4.08229 15.82 3.81429 15.5511C3.54629 15.2822 3.53591 14.6529 3.52727 14.0442C3.51862 13.4607 3.50911 12.8581 3.29125 12.3307C3.06388 11.7818 2.63508 11.3348 2.22097 10.9025C1.80686 10.4703 1.38324 10.0285 1.38324 9.68269C1.38324 9.33688 1.80859 8.89165 2.22097 8.46285C2.63335 8.03404 3.06388 7.58362 3.29125 7.03465C3.50911 6.50729 3.51862 5.90471 3.52727 5.32116C3.53591 4.71599 3.54542 4.08229 3.81429 3.81429C4.08316 3.54629 4.71253 3.53591 5.32116 3.52727C5.90471 3.51862 6.50729 3.50911 7.03465 3.29125C7.58362 3.06388 8.03058 2.63508 8.46285 2.22097C8.89511 1.80686 9.33688 1.38324 9.68269 1.38324C10.0285 1.38324 10.4737 1.80859 10.9025 2.22097C11.3313 2.63335 11.7818 3.06388 12.3307 3.29125C12.8581 3.50911 13.4607 3.51862 14.0442 3.52727C14.6494 3.53591 15.2831 3.54542 15.5511 3.81429C15.8191 4.08316 15.8295 4.71253 15.8381 5.32116C15.8468 5.90471 15.8563 6.50729 16.0741 7.03465C16.3015 7.58362 16.7303 8.03058 17.1444 8.46285C17.5585 8.89511 17.9821 9.33688 17.9821 9.68269C17.9821 10.0285 17.5568 10.4737 17.1444 10.9025ZM13.6301 7.11851C13.6944 7.18274 13.7454 7.25902 13.7802 7.34298C13.815 7.42694 13.833 7.51694 13.833 7.60783C13.833 7.69872 13.815 7.78872 13.7802 7.87268C13.7454 7.95664 13.6944 8.03292 13.6301 8.09715L8.78877 12.9385C8.72454 13.0028 8.64826 13.0538 8.5643 13.0886C8.48034 13.1234 8.39034 13.1413 8.29945 13.1413C8.20856 13.1413 8.11856 13.1234 8.0346 13.0886C7.95064 13.0538 7.87436 13.0028 7.81013 12.9385L5.73527 10.8636C5.60549 10.7339 5.53258 10.5578 5.53258 10.3743C5.53258 10.1908 5.60549 10.0148 5.73527 9.88499C5.86504 9.75521 6.04106 9.68231 6.22459 9.68231C6.40812 9.68231 6.58413 9.75521 6.71391 9.88499L8.29945 11.4714L12.6515 7.11851C12.7157 7.0542 12.792 7.00319 12.8759 6.96838C12.9599 6.93358 13.0499 6.91566 13.1408 6.91566C13.2317 6.91566 13.3217 6.93358 13.4056 6.96838C13.4896 7.00319 13.5659 7.0542 13.6301 7.11851Z" fill="var(--fill-0, #1900FF)" id="Vector"/>
</svg>