<?xml version="1.0" encoding="utf-8"?>
<svg xmlns="http://www.w3.org/2000/svg" fill="none" height="100%" overflow="visible" preserveAspectRatio="none" style="display: block;" viewBox="0 0 50 50" width="100%">
<g id="Frame">
<path d="M44.7261 41.8457C44.4026 42.1043 43.9896 42.2238 43.578 42.178C43.1663 42.1323 42.7897 41.9249 42.5308 41.6016C42.2633 41.2637 35.9371 33.1758 35.9371 17.1875C35.9371 14.2867 34.7847 11.5047 32.7336 9.45352C30.6824 7.40234 27.9004 6.25 24.9996 6.25C22.0988 6.25 19.3168 7.40234 17.2656 9.45352C15.2144 11.5047 14.0621 14.2867 14.0621 17.1875C14.0621 33.1758 7.73981 41.2637 7.47028 41.6016C7.21128 41.9256 6.83418 42.1334 6.42193 42.1794C6.00968 42.2254 5.59605 42.1057 5.27204 41.8467C4.94803 41.5877 4.74018 41.2106 4.69421 40.7983C4.64824 40.3861 4.76792 39.9724 5.02692 39.6484C5.05622 39.6094 6.52887 37.7148 7.982 34.0352C9.32966 30.625 10.9371 24.9297 10.9371 17.1875C10.9371 13.4579 12.4187 9.88104 15.0559 7.24381C17.6931 4.60658 21.27 3.125 24.9996 3.125C28.7292 3.125 32.306 4.60658 34.9433 7.24381C37.5805 9.88104 39.0621 13.4579 39.0621 17.1875C39.0621 24.9297 40.6695 30.625 42.0172 34.0391C43.4781 37.7383 44.9586 39.6328 44.9742 39.6523C45.2317 39.9763 45.3502 40.3891 45.3037 40.8003C45.2572 41.2115 45.0495 41.5875 44.7261 41.8457ZM19.5308 17.1875C19.0673 17.1875 18.6141 17.325 18.2287 17.5825C17.8433 17.84 17.5429 18.2061 17.3655 18.6343C17.1881 19.0626 17.1417 19.5338 17.2321 19.9885C17.3225 20.4431 17.5458 20.8608 17.8735 21.1885C18.2013 21.5163 18.6189 21.7395 19.0736 21.83C19.5282 21.9204 19.9995 21.874 20.4277 21.6966C20.856 21.5192 21.2221 21.2188 21.4796 20.8334C21.7371 20.4479 21.8746 19.9948 21.8746 19.5312C21.8746 18.9096 21.6276 18.3135 21.1881 17.874C20.7486 17.4344 20.1524 17.1875 19.5308 17.1875ZM32.8121 19.5312C32.8121 19.0677 32.6746 18.6146 32.4171 18.2291C32.1596 17.8437 31.7935 17.5433 31.3652 17.3659C30.937 17.1885 30.4657 17.1421 30.0111 17.2325C29.5564 17.323 29.1388 17.5462 28.811 17.874C28.4833 18.2017 28.26 18.6194 28.1696 19.074C28.0792 19.5286 28.1256 19.9999 28.303 20.4282C28.4804 20.8564 28.7808 21.2225 29.1662 21.48C29.5516 21.7375 30.0048 21.875 30.4683 21.875C31.0899 21.875 31.6861 21.6281 32.1256 21.1885C32.5651 20.749 32.8121 20.1528 32.8121 19.5312ZM19.4488 25.1641C19.0793 24.9886 18.6558 24.9649 18.2691 25.0982C17.8824 25.2315 17.5635 25.5112 17.3806 25.877C17.1978 26.2429 17.1658 26.6659 17.2913 27.0552C17.4169 27.4444 17.6901 27.7689 18.0523 27.959L24.3023 31.084C24.5189 31.1932 24.758 31.2501 25.0006 31.2501C25.2431 31.2501 25.4822 31.1932 25.6988 31.084L31.9488 27.959C32.3194 27.7735 32.6012 27.4485 32.7322 27.0553C32.8631 26.662 32.8325 26.2329 32.647 25.8623C32.4616 25.4917 32.1365 25.2099 31.7433 25.0789C31.3501 24.948 30.921 24.9786 30.5504 25.1641L24.9996 27.9395L19.4488 25.1641ZM24.9996 34.375C23.1192 34.39 21.277 34.9068 19.6632 35.872C18.0495 36.8371 16.7226 38.2157 15.8199 39.8652C15.6184 40.2278 15.5692 40.6556 15.6831 41.0545C15.797 41.4534 16.0647 41.7907 16.4273 41.9922C16.7899 42.1937 17.2177 42.2429 17.6166 42.129C18.0155 42.0151 18.3528 41.7474 18.5543 41.3848C19.175 40.2138 20.103 39.2341 21.2385 38.5508C22.3741 37.8676 23.6743 37.5065 24.9996 37.5065C26.3249 37.5065 27.6251 37.8676 28.7607 38.5508C29.8962 39.2341 30.8242 40.2138 31.4449 41.3848C31.6464 41.7474 31.9837 42.0151 32.3826 42.129C32.7814 42.2429 33.2092 42.1937 33.5718 41.9922C33.9344 41.7907 34.2021 41.4534 34.3161 41.0545C34.43 40.6556 34.3808 40.2278 34.1793 39.8652C33.2765 38.2157 31.9497 36.8371 30.3359 35.872C28.7221 34.9068 26.8799 34.39 24.9996 34.375Z" fill="var(--fill-0, #1900FF)" id="Vector"/>
</g>
</svg>