<?xml version="1.0" encoding="utf-8"?>
<svg xmlns="http://www.w3.org/2000/svg" fill="none" height="100%" overflow="visible" preserveAspectRatio="none" style="display: block;" viewBox="0 0 15 15" width="100%">
<path d="M14.5 7H12.9769C12.8584 5.72007 12.296 4.52188 11.387 3.61296C10.4781 2.70404 9.27993 2.14163 8 2.02312V0.5C8 0.367392 7.94732 0.240215 7.85355 0.146447C7.75979 0.0526784 7.63261 0 7.5 0C7.36739 0 7.24021 0.0526784 7.14645 0.146447C7.05268 0.240215 7 0.367392 7 0.5V2.02312C5.72007 2.14163 4.52188 2.70404 3.61296 3.61296C2.70404 4.52188 2.14163 5.72007 2.02312 7H0.5C0.367392 7 0.240215 7.05268 0.146447 7.14645C0.0526784 7.24021 0 7.36739 0 7.5C0 7.63261 0.0526784 7.75979 0.146447 7.85355C0.240215 7.94732 0.367392 8 0.5 8H2.02312C2.14163 9.27993 2.70404 10.4781 3.61296 11.387C4.52188 12.296 5.72007 12.8584 7 12.9769V14.5C7 14.6326 7.05268 14.7598 7.14645 14.8536C7.24021 14.9473 7.36739 15 7.5 15C7.63261 15 7.75979 14.9473 7.85355 14.8536C7.94732 14.7598 8 14.6326 8 14.5V12.9769C9.27993 12.8584 10.4781 12.296 11.387 11.387C12.296 10.4781 12.8584 9.27993 12.9769 8H14.5C14.6326 8 14.7598 7.94732 14.8536 7.85355C14.9473 7.75979 15 7.63261 15 7.5C15 7.36739 14.9473 7.24021 14.8536 7.14645C14.7598 7.05268 14.6326 7 14.5 7ZM7.5 12C6.60998 12 5.73995 11.7361 4.99993 11.2416C4.25991 10.7471 3.68314 10.0443 3.34254 9.22208C3.00195 8.39981 2.91283 7.49501 3.08647 6.62209C3.2601 5.74918 3.68868 4.94736 4.31802 4.31802C4.94736 3.68868 5.74918 3.2601 6.62209 3.08647C7.49501 2.91283 8.39981 3.00195 9.22208 3.34254C10.0443 3.68314 10.7471 4.25991 11.2416 4.99993C11.7361 5.73995 12 6.60998 12 7.5C11.9987 8.69307 11.5241 9.83689 10.6805 10.6805C9.83689 11.5241 8.69307 11.9987 7.5 12ZM7.5 5C7.00555 5 6.5222 5.14662 6.11107 5.42133C5.69995 5.69603 5.37952 6.08648 5.1903 6.54329C5.00108 7.00011 4.95157 7.50277 5.04804 7.98773C5.1445 8.47268 5.3826 8.91814 5.73223 9.26777C6.08186 9.6174 6.52732 9.8555 7.01227 9.95196C7.49723 10.0484 7.99989 9.99892 8.45671 9.8097C8.91352 9.62048 9.30397 9.30005 9.57867 8.88893C9.85338 8.4778 10 7.99445 10 7.5C10 6.83696 9.73661 6.20107 9.26777 5.73223C8.79893 5.26339 8.16304 5 7.5 5ZM7.5 9C7.20333 9 6.91332 8.91203 6.66664 8.7472C6.41997 8.58238 6.22771 8.34811 6.11418 8.07403C6.00065 7.79994 5.97094 7.49834 6.02882 7.20736C6.0867 6.91639 6.22956 6.64912 6.43934 6.43934C6.64912 6.22956 6.91639 6.0867 7.20736 6.02882C7.49834 5.97094 7.79994 6.00065 8.07403 6.11418C8.34811 6.22771 8.58238 6.41997 8.7472 6.66664C8.91203 6.91332 9 7.20333 9 7.5C9 7.89782 8.84196 8.27936 8.56066 8.56066C8.27936 8.84196 7.89782 9 7.5 9Z" fill="var(--fill-0, #1900FF)" id="Vector"/>
</svg>