<?xml version="1.0" encoding="utf-8"?>
<svg xmlns="http://www.w3.org/2000/svg" fill="none" height="100%" overflow="visible" preserveAspectRatio="none" style="display: block;" viewBox="0 0 26.3843 26.3843" width="100%">
<g id="Avatar">
<rect fill="var(--fill-0, white)" height="26.3843" rx="4.05912" width="26.3843"/>
<rect height="25.8769" rx="3.80542" stroke="var(--stroke-0, #969695)" stroke-opacity="0.24" stroke-width="0.507389" width="25.8769" x="0.253695" y="0.253695"/>
<g clip-path="url(#clip0_0_4583)" id="Logo">
<path clip-rule="evenodd" d="M7.34885 7.45985L1.52217 13.1921C2.68761 14.3387 4.01895 15.305 5.47049 16.061C5.8717 17.108 6.50059 18.0899 7.35715 18.9326C10.5797 22.1029 15.8046 22.1029 19.0271 18.9326C19.8837 18.0899 20.5126 17.108 20.9138 16.0609C22.3653 15.305 23.6967 14.3387 24.8621 13.1921L19.0401 7.46451C19.0358 7.46023 19.0315 7.45594 19.0271 7.45166C15.8046 4.2813 10.5797 4.2813 7.35715 7.45166C7.35439 7.45439 7.35162 7.45712 7.34885 7.45985ZM18.4696 17.0952C16.7716 17.6589 14.9891 17.9477 13.1921 17.9477C11.3951 17.9477 9.61272 17.6589 7.91474 17.0952C8.09871 17.3353 8.30183 17.5658 8.52414 17.7845C11.1022 20.3208 15.282 20.3208 17.8601 17.7845C18.0824 17.5658 18.2856 17.3353 18.4696 17.0952ZM8.64382 8.48494C9.08162 8.76949 9.54713 9.01298 10.0342 9.2115C11.0354 9.61947 12.1085 9.82946 13.1921 9.82946C14.2758 9.82946 15.3489 9.61947 16.35 9.2115C16.8371 9.01298 17.3026 8.76948 17.7405 8.48493C15.1946 6.10174 11.1897 6.10174 8.64382 8.48494Z" fill="var(--fill-0, #1B1B1D)" fill-rule="evenodd" id="Vector"/>
</g>
</g>
<defs>
<clipPath id="clip0_0_4583">
<rect fill="white" height="16.2365" transform="translate(1.52217 5.07389)" width="23.3399"/>
</clipPath>
</defs>
</svg>