<?xml version="1.0" encoding="utf-8"?>
<svg xmlns="http://www.w3.org/2000/svg" fill="none" height="100%" overflow="visible" preserveAspectRatio="none" style="display: block;" viewBox="0 0 34.1357 34.1357" width="100%">
<path d="M31.9809 13.2306C31.4064 12.6302 30.812 12.0115 30.588 11.4675C30.3808 10.9691 30.3686 10.1432 30.3564 9.34312C30.3335 7.85578 30.3091 6.17033 29.1372 4.99844C27.9654 3.82655 26.2799 3.80217 24.7926 3.77931C23.9925 3.76712 23.1665 3.75492 22.6682 3.54767C22.1257 3.32366 21.5055 2.72933 20.9051 2.15481C19.8536 1.14446 18.6588 0 17.0678 0C15.4769 0 14.2836 1.14446 13.2306 2.15481C12.6302 2.72933 12.0115 3.32366 11.4675 3.54767C10.9722 3.75492 10.1432 3.76712 9.34312 3.77931C7.85578 3.80217 6.17033 3.82655 4.99844 4.99844C3.82655 6.17033 3.80979 7.85578 3.77931 9.34312C3.76712 10.1432 3.75492 10.9691 3.54767 11.4675C3.32366 12.01 2.72933 12.6302 2.15481 13.2306C1.14446 14.2821 0 15.4769 0 17.0678C0 18.6588 1.14446 19.852 2.15481 20.9051C2.72933 21.5055 3.32366 22.1242 3.54767 22.6682C3.75492 23.1665 3.76712 23.9925 3.77931 24.7926C3.80217 26.2799 3.82655 27.9654 4.99844 29.1372C6.17033 30.3091 7.85578 30.3335 9.34312 30.3564C10.1432 30.3686 10.9691 30.3808 11.4675 30.588C12.01 30.812 12.6302 31.4064 13.2306 31.9809C14.2821 32.9912 15.4769 34.1357 17.0678 34.1357C18.6588 34.1357 19.852 32.9912 20.9051 31.9809C21.5055 31.4064 22.1242 30.812 22.6682 30.588C23.1665 30.3808 23.9925 30.3686 24.7926 30.3564C26.2799 30.3335 27.9654 30.3091 29.1372 29.1372C30.3091 27.9654 30.3335 26.2799 30.3564 24.7926C30.3686 23.9925 30.3808 23.1665 30.588 22.6682C30.812 22.1257 31.4064 21.5055 31.9809 20.9051C32.9912 19.8536 34.1357 18.6588 34.1357 17.0678C34.1357 15.4769 32.9912 14.2836 31.9809 13.2306ZM30.2207 19.2181C29.4908 19.98 28.7349 20.7679 28.3341 21.7356C27.9501 22.6652 27.9333 23.7273 27.9181 24.756C27.9029 25.8227 27.8861 26.9398 27.4122 27.4122C26.9382 27.8846 25.8288 27.9029 24.756 27.9181C23.7273 27.9333 22.6652 27.9501 21.7356 28.3341C20.7679 28.7349 19.98 29.4908 19.2181 30.2207C18.4561 30.9507 17.6774 31.6974 17.0678 31.6974C16.4583 31.6974 15.6735 30.9477 14.9176 30.2207C14.1617 29.4938 13.3678 28.7349 12.4001 28.3341C11.4705 27.9501 10.4083 27.9333 9.37969 27.9181C8.31295 27.9029 7.19592 27.8861 6.72351 27.4122C6.2511 26.9382 6.23281 25.8288 6.21757 24.756C6.20233 23.7273 6.18557 22.6652 5.80154 21.7356C5.40075 20.7679 4.64489 19.98 3.91494 19.2181C3.18498 18.4561 2.43826 17.6774 2.43826 17.0678C2.43826 16.4583 3.18803 15.6735 3.91494 14.9176C4.64184 14.1617 5.40075 13.3678 5.80154 12.4001C6.18557 11.4705 6.20233 10.4083 6.21757 9.37969C6.23281 8.31295 6.24957 7.19592 6.72351 6.72351C7.19745 6.2511 8.30686 6.23281 9.37969 6.21757C10.4083 6.20233 11.4705 6.18557 12.4001 5.80154C13.3678 5.40075 14.1556 4.64489 14.9176 3.91494C15.6796 3.18498 16.4583 2.43826 17.0678 2.43826C17.6774 2.43826 18.4622 3.18803 19.2181 3.91494C19.9739 4.64184 20.7679 5.40075 21.7356 5.80154C22.6652 6.18557 23.7273 6.20233 24.756 6.21757C25.8227 6.23281 26.9398 6.24957 27.4122 6.72351C27.8846 7.19745 27.9029 8.30686 27.9181 9.37969C27.9333 10.4083 27.9501 11.4705 28.3341 12.4001C28.7349 13.3678 29.4908 14.1556 30.2207 14.9176C30.9507 15.6796 31.6974 16.4583 31.6974 17.0678C31.6974 17.6774 30.9477 18.4622 30.2207 19.2181ZM24.026 12.5479C24.1394 12.6611 24.2293 12.7956 24.2907 12.9436C24.352 13.0916 24.3836 13.2502 24.3836 13.4104C24.3836 13.5707 24.352 13.7293 24.2907 13.8773C24.2293 14.0253 24.1394 14.1598 24.026 14.273L15.4921 22.8069C15.3789 22.9203 15.2444 23.0102 15.0964 23.0715C14.9484 23.1329 14.7898 23.1645 14.6296 23.1645C14.4694 23.1645 14.3107 23.1329 14.1627 23.0715C14.0147 23.0102 13.8803 22.9203 13.767 22.8069L10.1096 19.1495C9.88089 18.9207 9.75237 18.6105 9.75237 18.287C9.75237 17.9635 9.88089 17.6532 10.1096 17.4244C10.3384 17.1957 10.6487 17.0672 10.9722 17.0672C11.2957 17.0672 11.606 17.1957 11.8347 17.4244L14.6296 20.2208L22.301 12.5479C22.4142 12.4346 22.5486 12.3446 22.6966 12.2833C22.8446 12.2219 23.0033 12.1904 23.1635 12.1904C23.3237 12.1904 23.4824 12.2219 23.6304 12.2833C23.7784 12.3446 23.9128 12.4346 24.026 12.5479Z" fill="var(--fill-0, #1900FF)" id="Vector"/>
</svg>