<?xml version="1.0" encoding="utf-8"?>
<svg xmlns="http://www.w3.org/2000/svg" fill="none" height="100%" overflow="visible" preserveAspectRatio="none" style="display: block;" viewBox="0 0 60 60" width="100%">
<g clip-path="url(#clip0_0_4545)" id="Frame">
<path d="M56.1637 18.2946L28.9762 4.92514C28.7139 4.79639 28.4214 4.72905 28.1243 4.72905C27.8272 4.72905 27.5347 4.79639 27.2724 4.92514L0.0849367 18.2946C-0.205054 18.4371 -0.447574 18.6496 -0.616682 18.9094C-0.78579 19.1692 -0.875122 19.4665 -0.875122 19.7695C-0.875122 20.0724 -0.78579 20.3697 -0.616682 20.6295C-0.447574 20.8893 -0.205054 21.1018 0.0849367 21.2443L6.37431 24.3381V34.4529C6.37221 35.2738 6.6999 36.0664 7.29416 36.6777C10.2621 39.7255 16.9117 44.8372 28.1243 44.8372C31.8421 44.8656 35.5321 44.2447 38.9993 43.0073V49.8508C38.9993 50.294 39.1903 50.7191 39.5302 51.0325C39.8701 51.3459 40.3311 51.522 40.8118 51.522C41.2925 51.522 41.7535 51.3459 42.0934 51.0325C42.4334 50.7191 42.6243 50.294 42.6243 49.8508V41.3925C44.9879 40.1346 47.1237 38.5438 48.9545 36.6777C49.5487 36.0664 49.8764 35.2738 49.8743 34.4529V24.3381L56.1637 21.2443C56.4537 21.1018 56.6962 20.8893 56.8653 20.6295C57.0344 20.3697 57.1237 20.0724 57.1237 19.7695C57.1237 19.4665 57.0344 19.1692 56.8653 18.9094C56.6962 18.6496 56.4537 18.4371 56.1637 18.2946ZM28.1243 41.4949C18.321 41.4949 12.5549 37.0788 9.99931 34.4529V26.12L27.2724 34.6138C27.5347 34.7425 27.8272 34.8099 28.1243 34.8099C28.4214 34.8099 28.7139 34.7425 28.9762 34.6138L38.9993 29.6859V39.3662C36.1446 40.5945 32.5468 41.4949 28.1243 41.4949ZM46.2493 34.4446C45.1629 35.5562 43.9472 36.5545 42.6243 37.4214V27.9019L46.2493 26.12V34.4446ZM41.7181 24.5616L41.6682 24.5344L28.9807 18.2946C28.5574 18.0953 28.0661 18.0572 27.6127 18.1887C27.1592 18.3201 26.7799 18.6105 26.5565 18.9973C26.3331 19.3842 26.2834 19.8364 26.4181 20.2567C26.5529 20.677 26.8613 21.0317 27.277 21.2443L37.8665 26.4542L28.1243 31.2442L4.78837 19.7695L28.1243 8.29467L51.4602 19.7695L41.7181 24.5616Z" fill="var(--fill-0, #1900FF)" id="Vector"/>
</g>
<defs>
<clipPath id="clip0_0_4545">
<rect fill="white" height="60" width="60"/>
</clipPath>
</defs>
</svg>