<?xml version="1.0" encoding="utf-8"?>
<svg xmlns="http://www.w3.org/2000/svg" fill="none" height="100%" overflow="visible" preserveAspectRatio="none" style="display: block;" viewBox="0 0 60 60" width="100%">
<g id="Frame">
<path d="M50.1699 37.0156C50.1699 37.4808 49.9851 37.9269 49.6562 38.2558C49.3273 38.5847 48.8812 38.7695 48.416 38.7695H43.1543V42.2773H46.6621C47.1273 42.2773 47.5734 42.4621 47.9023 42.791C48.2312 43.12 48.416 43.5661 48.416 44.0312C48.416 44.4964 48.2312 44.9425 47.9023 45.2715C47.5734 45.6004 47.1273 45.7852 46.6621 45.7852H43.1543V49.293C43.1543 49.7581 42.9695 50.2042 42.6406 50.5332C42.3117 50.8621 41.8656 51.0469 41.4004 51.0469C40.9352 51.0469 40.4891 50.8621 40.1602 50.5332C39.8313 50.2042 39.6465 49.7581 39.6465 49.293V37.0156C39.6465 36.5505 39.8313 36.1043 40.1602 35.7754C40.4891 35.4465 40.9352 35.2617 41.4004 35.2617H48.416C48.8812 35.2617 49.3273 35.4465 49.6562 35.7754C49.9851 36.1043 50.1699 36.5505 50.1699 37.0156ZM21.2305 41.4004C21.2305 43.0285 20.5837 44.5899 19.4325 45.7411C18.2813 46.8923 16.7199 47.5391 15.0918 47.5391H13.3379V49.293C13.3379 49.7581 13.1531 50.2042 12.8242 50.5332C12.4953 50.8621 12.0491 51.0469 11.584 51.0469C11.1188 51.0469 10.6727 50.8621 10.3438 50.5332C10.0149 50.2042 9.83008 49.7581 9.83008 49.293V37.0156C9.83008 36.5505 10.0149 36.1043 10.3438 35.7754C10.6727 35.4465 11.1188 35.2617 11.584 35.2617H15.0918C16.7199 35.2617 18.2813 35.9085 19.4325 37.0597C20.5837 38.2109 21.2305 39.7723 21.2305 41.4004ZM17.7227 41.4004C17.7227 40.7026 17.4455 40.0335 16.9521 39.5401C16.4587 39.0467 15.7895 38.7695 15.0918 38.7695H13.3379V44.0312H15.0918C15.7895 44.0312 16.4587 43.7541 16.9521 43.2607C17.4455 42.7673 17.7227 42.0981 17.7227 41.4004ZM37.0156 43.1543C37.0156 45.2475 36.1841 47.255 34.7039 48.7352C33.2238 50.2153 31.2163 51.0469 29.123 51.0469H25.6152C25.1501 51.0469 24.704 50.8621 24.375 50.5332C24.0461 50.2042 23.8613 49.7581 23.8613 49.293V37.0156C23.8613 36.5505 24.0461 36.1043 24.375 35.7754C24.704 35.4465 25.1501 35.2617 25.6152 35.2617H29.123C31.2163 35.2617 33.2238 36.0933 34.7039 37.5734C36.1841 39.0535 37.0156 41.0611 37.0156 43.1543ZM33.5078 43.1543C33.5078 41.9914 33.0458 40.8761 32.2235 40.0538C31.4012 39.2315 30.286 38.7695 29.123 38.7695H27.3691V47.5391H29.123C30.286 47.5391 31.4012 47.0771 32.2235 46.2548C33.0458 45.4325 33.5078 44.3172 33.5078 43.1543ZM9.83008 28.2461V12.4609C9.83008 11.5306 10.1997 10.6384 10.8575 9.98054C11.5153 9.3227 12.4076 8.95313 13.3379 8.95313H34.3848C34.6152 8.95294 34.8433 8.99816 35.0562 9.08618C35.2692 9.17421 35.4627 9.30332 35.6257 9.46614L47.903 21.7435C48.0658 21.9065 48.1949 22.1 48.283 22.3129C48.371 22.5258 48.4162 22.754 48.416 22.9844V28.2461C48.416 28.7113 48.2312 29.1574 47.9023 29.4863C47.5734 29.8152 47.1273 30 46.6621 30C46.1969 30 45.7508 29.8152 45.4219 29.4863C45.093 29.1574 44.9082 28.7113 44.9082 28.2461V24.7383H34.3848C33.9196 24.7383 33.4735 24.5535 33.1446 24.2246C32.8156 23.8957 32.6309 23.4495 32.6309 22.9844V12.4609H13.3379V28.2461C13.3379 28.7113 13.1531 29.1574 12.8242 29.4863C12.4953 29.8152 12.0491 30 11.584 30C11.1188 30 10.6727 29.8152 10.3438 29.4863C10.0149 29.1574 9.83008 28.7113 9.83008 28.2461ZM36.1387 21.2305H42.4286L36.1387 14.9405V21.2305Z" fill="var(--fill-0, white)" id="Vector"/>
</g>
</svg>