<?xml version="1.0" encoding="utf-8"?>
<svg xmlns="http://www.w3.org/2000/svg" fill="none" height="100%" overflow="visible" preserveAspectRatio="none" style="display: block;" viewBox="0 0 69 69" width="100%">
<g id="icon">
<rect fill="var(--fill-0, #F0EFFF)" height="69" rx="34.5" width="69"/>
<g id="Vector">
<path d="M34.4375 19.3739C31.3843 19.3739 28.3996 20.2555 25.8609 21.9072C23.3222 23.5588 21.3435 25.9064 20.1751 28.653C19.0067 31.3996 18.701 34.4219 19.2966 37.3377C19.8923 40.2534 21.3626 42.9317 23.5215 45.0339C25.6805 47.1361 28.4312 48.5676 31.4258 49.1476C34.4204 49.7276 37.5243 49.4299 40.3452 48.2923C43.166 47.1546 45.577 45.228 47.2733 42.7561C48.9696 40.2842 49.875 37.3781 49.875 34.4052C49.8707 30.42 48.2429 26.5991 45.3487 23.7811C42.4545 20.9632 38.5305 19.3782 34.4375 19.3739ZM34.4375 47.124C31.854 47.124 29.3285 46.378 27.1804 44.9805C25.0323 43.5829 23.358 41.5965 22.3693 39.2725C21.3807 36.9484 21.122 34.3911 21.626 31.9239C22.13 29.4567 23.3741 27.1904 25.2009 25.4117C27.0277 23.6329 29.3553 22.4216 31.8891 21.9308C34.423 21.4401 37.0495 21.692 39.4363 22.6546C41.8232 23.6173 43.8633 25.2475 45.2986 27.339C46.7339 29.4306 47.5 31.8897 47.5 34.4052C47.4961 37.7772 46.1186 41.0101 43.6698 43.3945C41.2209 45.7789 37.9007 47.1201 34.4375 47.124Z" fill="var(--fill-0, #3726D8)"/>
<path d="M35.5212 25.748C36.4705 25.748 37.3494 25.8854 38.1571 26.1591C38.7033 26.3442 39.2144 26.5839 39.6906 26.8783C40.0904 27.1256 40.2046 27.641 40 28.0643L39.3731 29.361C39.1425 29.8379 38.5399 30.0024 38.0777 29.7436C37.7476 29.5497 37.3671 29.3871 36.9367 29.256C36.5122 29.1191 36.0401 29.0504 35.5212 29.0504C34.7018 29.0504 33.9882 29.2504 33.381 29.6495C32.7738 30.0488 32.3023 30.6704 31.9662 31.5144C31.8692 31.7624 32.0642 32.0188 32.3306 32.0188H36.5791C37.2647 32.0188 37.7182 32.731 37.4281 33.3522C37.2741 33.682 36.9431 33.8928 36.5791 33.8928H32.3716C31.8807 33.8928 31.4705 34.2746 31.4705 34.7655C31.4705 35.2366 31.8638 35.6039 32.3349 35.6039H36.5791C37.2923 35.6039 37.7486 36.3553 37.4281 36.9924C37.2654 37.3159 36.9412 37.52 36.5791 37.52H32.3308C32.064 37.52 31.8685 37.7769 31.9662 38.0251C32.3023 38.8576 32.7739 39.4705 33.381 39.864C33.9882 40.2517 34.7018 40.4455 35.5212 40.4456C36.0401 40.4456 36.5122 40.3803 36.9367 40.2492C37.3611 40.118 37.7324 39.9608 38.0507 39.7784C38.4887 39.5319 39.0652 39.6831 39.2862 40.1345L39.9446 41.4791C40.1507 41.9 40.0407 42.4149 39.642 42.6614C39.1713 42.9525 38.6617 43.1867 38.1132 43.3635C37.2995 43.6202 36.4351 43.748 35.5212 43.748C33.9766 43.7479 32.609 43.3943 31.4181 42.6872C30.233 41.9743 29.304 40.9508 28.6318 39.6163C28.4245 39.203 28.2495 38.7632 28.1064 38.2972C27.9686 37.8485 27.5681 37.52 27.0987 37.52H26.7314C26.063 37.52 25.6 36.8527 25.8341 36.2265L25.8476 36.1904C25.9794 35.8377 26.3163 35.6039 26.6928 35.6039H26.8084C27.2639 35.6039 27.6234 35.221 27.6234 34.7655C27.6234 34.2918 27.2501 33.8928 26.7763 33.8928H26.6795C26.0383 33.8928 25.5961 33.2503 25.825 32.6514L25.8365 32.6212C25.9752 32.2584 26.3233 32.0188 26.7118 32.0188H27.0976C27.5672 32.0188 27.9677 31.6901 28.1052 31.2411C28.2486 30.7731 28.424 30.3309 28.6318 29.9148C29.304 28.5687 30.2329 27.5393 31.4181 26.8264C32.609 26.1078 33.9766 25.748 35.5212 25.748Z" fill="var(--fill-0, #3726D8)"/>
</g>
</g>
</svg>