<?xml version="1.0" encoding="utf-8"?>
<svg xmlns="http://www.w3.org/2000/svg" fill="none" height="100%" overflow="visible" preserveAspectRatio="none" style="display: block;" viewBox="0 0 31.6611 31.6611" width="100%">
<g id="Avatar">
<rect fill="var(--fill-0, white)" height="31.6611" rx="4.87094" width="31.6611"/>
<rect height="31.0522" rx="4.56651" stroke="var(--stroke-0, #969695)" stroke-opacity="0.24" stroke-width="0.608867" width="31.0522" x="0.304434" y="0.304434"/>
<g clip-path="url(#clip0_0_4545)" id="Logo">
<path clip-rule="evenodd" d="M8.819 8.95179L1.82698 15.8305C3.22552 17.2064 4.82312 18.366 6.56497 19.2732C7.04642 20.5296 7.80109 21.7079 8.82896 22.7191C12.6961 26.5235 18.9659 26.5235 22.8329 22.7191C23.8608 21.7079 24.6155 20.5296 25.0969 19.2731C26.8387 18.366 28.4364 17.2064 29.8349 15.8305L22.8485 8.95738C22.8433 8.95224 22.8382 8.9471 22.8329 8.94196C18.9659 5.13753 12.6961 5.13753 8.82896 8.94196C8.82565 8.94524 8.82232 8.94851 8.819 8.95179ZM22.1639 20.5142C20.1263 21.1907 17.9873 21.5372 15.8309 21.5372C13.6745 21.5372 11.5356 21.1907 9.49807 20.5142C9.71884 20.8023 9.96258 21.0789 10.2294 21.3414C13.323 24.3849 18.3388 24.3849 21.4325 21.3414C21.6993 21.0789 21.9431 20.8023 22.1639 20.5142ZM10.373 10.1819C10.8983 10.5234 11.4569 10.8155 12.0415 11.0538C13.2429 11.5433 14.5305 11.7953 15.8309 11.7953C17.1313 11.7953 18.419 11.5433 19.6204 11.0538C20.2049 10.8155 20.7635 10.5233 21.289 10.1819C18.2339 7.32205 13.428 7.32205 10.373 10.1819Z" fill="var(--fill-0, #1B1B1D)" fill-rule="evenodd" id="Vector"/>
</g>
</g>
<defs>
<clipPath id="clip0_0_4545">
<rect fill="white" height="19.4838" transform="translate(1.82668 6.08875)" width="28.0079"/>
</clipPath>
</defs>
</svg>