<?xml version="1.0" encoding="utf-8"?>
<svg xmlns="http://www.w3.org/2000/svg" fill="none" height="100%" overflow="visible" preserveAspectRatio="none" style="display: block;" viewBox="0 0 55.8765 55.8765" width="100%">
<g id="Frame">
<path d="M48.8921 33.1765C48.8921 33.6396 48.7081 34.0838 48.3806 34.4112C48.0532 34.7387 47.609 34.9227 47.1459 34.9227H41.9075V38.4149H45.3998C45.8629 38.4149 46.307 38.5989 46.6345 38.9264C46.9619 39.2538 47.1459 39.698 47.1459 40.1611C47.1459 40.6242 46.9619 41.0683 46.6345 41.3958C46.307 41.7233 45.8629 41.9072 45.3998 41.9072H41.9075V45.3995C41.9075 45.8626 41.7235 46.3067 41.3961 46.6342C41.0686 46.9617 40.6245 47.1456 40.1614 47.1456C39.6982 47.1456 39.2541 46.9617 38.9266 46.6342C38.5992 46.3067 38.4152 45.8626 38.4152 45.3995V33.1765C38.4152 32.7134 38.5992 32.2693 38.9266 31.9418C39.2541 31.6143 39.6982 31.4304 40.1614 31.4304H47.1459C47.609 31.4304 48.0532 31.6143 48.3806 31.9418C48.7081 32.2693 48.8921 32.7134 48.8921 33.1765ZM20.0807 37.5419C20.0807 39.1627 19.4369 40.7172 18.2907 41.8633C17.1446 43.0095 15.5901 43.6534 13.9693 43.6534H12.2231V45.3995C12.2231 45.8626 12.0391 46.3067 11.7117 46.6342C11.3842 46.9617 10.9401 47.1456 10.477 47.1456C10.0139 47.1456 9.56973 46.9617 9.24227 46.6342C8.9148 46.3067 8.73083 45.8626 8.73083 45.3995V33.1765C8.73083 32.7134 8.9148 32.2693 9.24227 31.9418C9.56973 31.6143 10.0139 31.4304 10.477 31.4304H13.9693C15.5901 31.4304 17.1446 32.0743 18.2907 33.2204C19.4369 34.3665 20.0807 35.921 20.0807 37.5419ZM16.5885 37.5419C16.5885 36.8472 16.3125 36.181 15.8213 35.6898C15.3301 35.1986 14.6639 34.9227 13.9693 34.9227H12.2231V40.1611H13.9693C14.6639 40.1611 15.3301 39.8851 15.8213 39.3939C16.3125 38.9027 16.5885 38.2365 16.5885 37.5419ZM35.796 39.288C35.796 41.372 34.9681 43.3706 33.4946 44.8442C32.021 46.3178 30.0223 47.1456 27.9384 47.1456H24.4461C23.983 47.1456 23.5389 46.9617 23.2114 46.6342C22.8839 46.3067 22.7 45.8626 22.7 45.3995V33.1765C22.7 32.7134 22.8839 32.2693 23.2114 31.9418C23.5389 31.6143 23.983 31.4304 24.4461 31.4304H27.9384C30.0223 31.4304 32.021 32.2582 33.4946 33.7318C34.9681 35.2054 35.796 37.204 35.796 39.288ZM32.3037 39.288C32.3037 38.1302 31.8438 37.0199 31.0251 36.2012C30.2065 35.3826 29.0961 34.9227 27.9384 34.9227H26.1922V43.6534H27.9384C29.0961 43.6534 30.2065 43.1934 31.0251 42.3748C31.8438 41.5561 32.3037 40.4458 32.3037 39.288ZM8.73083 24.4458V8.73056C8.73083 7.80435 9.09877 6.91608 9.7537 6.26115C10.4086 5.60622 11.2969 5.23828 12.2231 5.23828H33.1768C33.4062 5.2381 33.6333 5.28311 33.8453 5.37075C34.0573 5.45839 34.2499 5.58693 34.4122 5.74903L46.6352 17.972C46.7973 18.1343 46.9258 18.3269 47.0134 18.5389C47.1011 18.7509 47.1461 18.978 47.1459 19.2074V24.4458C47.1459 24.9089 46.9619 25.3531 46.6345 25.6805C46.307 26.008 45.8629 26.192 45.3998 26.192C44.9367 26.192 44.4925 26.008 44.1651 25.6805C43.8376 25.3531 43.6536 24.9089 43.6536 24.4458V20.9535H33.1768C32.7137 20.9535 32.2696 20.7696 31.9421 20.4421C31.6146 20.1146 31.4307 19.6705 31.4307 19.2074V8.73056H12.2231V24.4458C12.2231 24.9089 12.0391 25.3531 11.7117 25.6805C11.3842 26.008 10.9401 26.192 10.477 26.192C10.0139 26.192 9.56973 26.008 9.24227 25.6805C8.9148 25.3531 8.73083 24.9089 8.73083 24.4458ZM34.9229 17.4613H41.185L34.9229 11.1992V17.4613Z" fill="var(--fill-0, #1900FF)" id="Vector"/>
</g>
</svg>