<?xml version="1.0" encoding="utf-8"?>
<svg xmlns="http://www.w3.org/2000/svg" fill="none" height="100%" overflow="visible" preserveAspectRatio="none" style="display: block;" viewBox="0 0 24 24" width="100%">
<g id="icon">
<path d="M21.8362 3.8032H2.16384C1.94644 3.8032 1.73795 3.88955 1.58423 4.04327C1.43051 4.19699 1.34416 4.40548 1.34416 4.62288V18.5574C1.34416 18.9922 1.51687 19.4092 1.82431 19.7166C2.13175 20.0241 2.54873 20.1968 2.98352 20.1968H21.0165C21.4513 20.1968 21.8682 20.0241 22.1757 19.7166C22.4831 19.4092 22.6558 18.9922 22.6558 18.5574V4.62288C22.6558 4.40548 22.5695 4.19699 22.4158 4.04327C22.262 3.88955 22.0536 3.8032 21.8362 3.8032ZM12 12.5277L4.27144 5.44256H19.7286L12 12.5277ZM8.99894 12L2.98352 17.5134V6.48662L8.99894 12ZM10.2121 13.1117L11.4416 14.2439C11.5928 14.3827 11.7906 14.4597 11.9959 14.4597C12.2012 14.4597 12.399 14.3827 12.5502 14.2439L13.7797 13.1117L19.7224 18.5574H4.27144L10.2121 13.1117ZM15.0011 12L21.0165 6.4856V17.5144L15.0011 12Z" fill="var(--fill-0, black)" id="Vector"/>
</g>
</svg>