<?xml version="1.0" encoding="utf-8"?>
<svg xmlns="http://www.w3.org/2000/svg" fill="none" height="100%" overflow="visible" preserveAspectRatio="none" style="display: block;" viewBox="0 0 69 69" width="100%">
<g id="icon">
<rect fill="var(--fill-0, #F0EFFF)" height="69" rx="34.5" width="69"/>
<path d="M34.5 21.1C31.6322 21.1 28.8287 21.9445 26.4442 23.5268C24.0597 25.1091 22.2012 27.3581 21.1038 29.9894C20.0063 32.6206 19.7191 35.516 20.2786 38.3093C20.8381 41.1026 22.2191 43.6685 24.247 45.6823C26.2748 47.6962 28.8585 49.0677 31.6712 49.6233C34.4839 50.1789 37.3994 49.8938 40.0489 48.8039C42.6984 47.714 44.963 45.8683 46.5563 43.5002C48.1496 41.1321 49 38.348 49 35.5C48.9956 31.6822 47.4665 28.0221 44.7482 25.3225C42.0299 22.6229 38.3443 21.1044 34.5 21.1ZM34.5 46.3C32.3491 46.3 30.2466 45.6666 28.4582 44.4799C26.6698 43.2931 25.2759 41.6064 24.4528 39.633C23.6297 37.6595 23.4144 35.488 23.834 33.393C24.2536 31.298 25.2893 29.3737 26.8102 27.8632C28.3311 26.3528 30.2689 25.3242 32.3784 24.9075C34.4879 24.4908 36.6745 24.7047 38.6617 25.5221C40.6488 26.3395 42.3473 27.7238 43.5422 29.4998C44.7372 31.2759 45.375 33.364 45.375 35.5C45.3718 38.3634 44.225 41.1085 42.1863 43.1332C40.1475 45.1579 37.3833 46.2968 34.5 46.3ZM40.0115 29.4265C40.1805 29.5937 40.3146 29.7924 40.406 30.0112C40.4975 30.23 40.5446 30.4646 40.5446 30.7015C40.5446 30.9384 40.4975 31.173 40.406 31.3918C40.3146 31.6106 40.1805 31.8093 40.0115 31.9765L35.7823 36.1765C35.4418 36.5146 34.98 36.7046 34.4985 36.7046C34.017 36.7046 33.5551 36.5146 33.2146 36.1765C32.8741 35.8383 32.6828 35.3797 32.6828 34.9015C32.6828 34.4233 32.8741 33.9646 33.2146 33.6265L37.4438 29.4265C37.6122 29.2587 37.8123 29.1255 38.0326 29.0347C38.2529 28.9438 38.4891 28.8971 38.7277 28.8971C38.9662 28.8971 39.2024 28.9438 39.4227 29.0347C39.643 29.1255 39.8431 29.2587 40.0115 29.4265ZM29.0625 16.9C29.0625 16.4226 29.2535 15.9648 29.5934 15.6272C29.9333 15.2896 30.3943 15.1 30.875 15.1H38.125C38.6057 15.1 39.0667 15.2896 39.4066 15.6272C39.7465 15.9648 39.9375 16.4226 39.9375 16.9C39.9375 17.3774 39.7465 17.8352 39.4066 18.1728C39.0667 18.5104 38.6057 18.7 38.125 18.7H30.875C30.3943 18.7 29.9333 18.5104 29.5934 18.1728C29.2535 17.8352 29.0625 17.3774 29.0625 16.9Z" fill="var(--fill-0, #1900FF)" id="Vector"/>
</g>
</svg>