<?xml version="1.0" encoding="utf-8"?>
<svg xmlns="http://www.w3.org/2000/svg" fill="none" height="100%" overflow="visible" preserveAspectRatio="none" style="display: block;" viewBox="0 0 60 60" width="100%">
<g id="Frame">
<path d="M13.6734 23.8276L6.17345 16.3276C5.99912 16.1535 5.86082 15.9467 5.76646 15.7191C5.6721 15.4914 5.62354 15.2474 5.62354 15.001C5.62354 14.7546 5.6721 14.5107 5.76646 14.283C5.86082 14.0554 5.99912 13.8486 6.17345 13.6745L13.6734 6.17448C14.0253 5.82265 14.5025 5.625 15 5.625C15.4976 5.625 15.9747 5.82265 16.3266 6.17448C16.6784 6.52631 16.8761 7.00349 16.8761 7.50104C16.8761 7.9986 16.6784 8.47578 16.3266 8.8276L10.1508 15.001L16.3266 21.1745C16.6784 21.5263 16.8761 22.0035 16.8761 22.501C16.8761 22.9986 16.6784 23.4758 16.3266 23.8276C15.9747 24.1794 15.4976 24.3771 15 24.3771C14.5025 24.3771 14.0253 24.1794 13.6734 23.8276ZM23.0484 23.8276C23.2226 24.0019 23.4294 24.1402 23.657 24.2346C23.8846 24.3289 24.1286 24.3775 24.375 24.3775C24.6214 24.3775 24.8654 24.3289 25.093 24.2346C25.3206 24.1402 25.5274 24.0019 25.7016 23.8276L33.2016 16.3276C33.3759 16.1535 33.5142 15.9467 33.6086 15.7191C33.7029 15.4914 33.7515 15.2474 33.7515 15.001C33.7515 14.7546 33.7029 14.5107 33.6086 14.283C33.5142 14.0554 33.3759 13.8486 33.2016 13.6745L25.7016 6.17448C25.3497 5.82265 24.8726 5.625 24.375 5.625C23.8775 5.625 23.4003 5.82265 23.0484 6.17448C22.6966 6.52631 22.499 7.00349 22.499 7.50104C22.499 7.9986 22.6966 8.47578 23.0484 8.8276L29.2242 15.001L23.0484 21.1745C22.8741 21.3486 22.7358 21.5554 22.6415 21.783C22.5471 22.0107 22.4985 22.2546 22.4985 22.501C22.4985 22.7474 22.5471 22.9914 22.6415 23.2191C22.7358 23.4467 22.8741 23.6535 23.0484 23.8276ZM46.875 9.37604H41.25C40.7527 9.37604 40.2758 9.57359 39.9242 9.92522C39.5726 10.2768 39.375 10.7538 39.375 11.251C39.375 11.7483 39.5726 12.2252 39.9242 12.5769C40.2758 12.9285 40.7527 13.126 41.25 13.126H46.875V46.876H13.125V31.876C13.125 31.3788 12.9275 30.9018 12.5758 30.5502C12.2242 30.1986 11.7473 30.001 11.25 30.001C10.7527 30.001 10.2758 30.1986 9.92419 30.5502C9.57255 30.9018 9.37501 31.3788 9.37501 31.876V46.876C9.37501 47.8706 9.7701 48.8244 10.4734 49.5277C11.1766 50.231 12.1304 50.626 13.125 50.626H46.875C47.8696 50.626 48.8234 50.231 49.5267 49.5277C50.2299 48.8244 50.625 47.8706 50.625 46.876V13.126C50.625 12.1315 50.2299 11.1777 49.5267 10.4744C48.8234 9.77113 47.8696 9.37604 46.875 9.37604Z" fill="var(--fill-0, #1900FF)" id="Vector"/>
</g>
</svg>