<?xml version="1.0" encoding="utf-8"?>
<svg xmlns="http://www.w3.org/2000/svg" fill="none" height="100%" overflow="visible" preserveAspectRatio="none" style="display: block;" viewBox="0 0 51.75 51.75" width="100%">
<g id="icon">
<rect fill="var(--fill-0, #F0EFFF)" height="51.75" rx="25.875" width="51.75"/>
<g id="Vector">
<path d="M25.5781 14.2805C23.2882 14.2805 21.0497 14.9416 19.1457 16.1804C17.2417 17.4191 15.7577 19.1798 14.8813 21.2397C14.005 23.2997 13.7757 25.5664 14.2225 27.7532C14.6692 29.9401 15.7719 31.9488 17.3912 33.5254C19.0104 35.102 21.0734 36.1757 23.3194 36.6107C25.5653 37.0457 27.8933 36.8225 30.0089 35.9692C32.1245 35.1159 33.9328 33.671 35.205 31.8171C36.4772 29.9632 37.1563 27.7836 37.1563 25.5539C37.153 22.565 35.9321 19.6994 33.7615 17.5859C31.5909 15.4724 28.6478 14.2836 25.5781 14.2805ZM25.5781 35.093C23.6405 35.093 21.7464 34.5335 20.1353 33.4853C18.5242 32.4372 17.2685 30.9474 16.527 29.2043C15.7855 27.4613 15.5915 25.5433 15.9695 23.6929C16.3475 21.8425 17.2806 20.1428 18.6507 18.8088C20.0208 17.4747 21.7664 16.5662 23.6669 16.1981C25.5673 15.8301 27.5371 16.019 29.3272 16.741C31.1174 17.4629 32.6474 18.6856 33.7239 20.2543C34.8004 21.823 35.375 23.6673 35.375 25.5539C35.3721 28.0829 34.3389 30.5076 32.5023 32.2959C30.6657 34.0842 28.1755 35.0901 25.5781 35.093Z" fill="var(--fill-0, #3726D8)"/>
<path d="M26.3909 19.061C27.1029 19.061 27.762 19.164 28.3679 19.3694C28.7774 19.5082 29.1608 19.6879 29.5179 19.9087C29.8178 20.0942 29.9035 20.4807 29.75 20.7982L29.2798 21.7708C29.1069 22.1284 28.6549 22.2518 28.3083 22.0577C28.0607 21.9122 27.7753 21.7903 27.4525 21.692C27.1341 21.5893 26.78 21.5378 26.3909 21.5378C25.7763 21.5378 25.2411 21.6878 24.7857 21.9872C24.3303 22.2866 23.9767 22.7528 23.7247 23.3858C23.6519 23.5718 23.7982 23.7641 23.9979 23.7641H27.1843C27.6985 23.7641 28.0386 24.2982 27.8211 24.7642C27.7056 25.0115 27.4573 25.1696 27.1843 25.1696H24.0287C23.6605 25.1696 23.3529 25.456 23.3529 25.8242C23.3529 26.1775 23.6478 26.453 24.0011 26.453H27.1843C27.7192 26.453 28.0614 27.0165 27.8211 27.4943C27.6991 27.7369 27.4559 27.89 27.1843 27.89H23.9981C23.798 27.89 23.6514 28.0827 23.7247 28.2689C23.9767 28.8932 24.3304 29.3529 24.7857 29.648C25.2411 29.9388 25.7763 30.0841 26.3909 30.0842C26.78 30.0842 27.1341 30.0353 27.4525 29.9369C27.7709 29.8385 28.0493 29.7206 28.2881 29.5838C28.6166 29.3989 29.0489 29.5123 29.2147 29.8509L29.7084 30.8593C29.863 31.175 29.7805 31.5612 29.4815 31.7461C29.1285 31.9644 28.7463 32.14 28.3349 32.2727C27.7246 32.4651 27.0763 32.561 26.3909 32.561C25.2324 32.5609 24.2067 32.2957 23.3136 31.7654C22.4248 31.2307 21.728 30.4631 21.2238 29.4623C21.0684 29.1523 20.9371 28.8224 20.8298 28.4729C20.7264 28.1363 20.4261 27.89 20.0741 27.89H19.7986C19.2972 27.89 18.95 27.3895 19.1255 26.9199L19.1357 26.8928C19.2345 26.6283 19.4873 26.453 19.7696 26.453H19.8563C20.1979 26.453 20.4675 26.1658 20.4675 25.8242C20.4675 25.4688 20.1875 25.1696 19.8322 25.1696H19.7596C19.2787 25.1696 18.9471 24.6877 19.1187 24.2386L19.1274 24.2159C19.2314 23.9438 19.4925 23.7641 19.7838 23.7641H20.0732C20.4254 23.7641 20.7258 23.5176 20.8289 23.1808C20.9364 22.8298 21.068 22.4982 21.2238 22.1861C21.728 21.1766 22.4247 20.4045 23.3136 19.8698C24.2068 19.3309 25.2324 19.061 26.3909 19.061Z" fill="var(--fill-0, #3726D8)"/>
</g>
</g>
</svg>