<?xml version="1.0" encoding="utf-8"?>
<svg xmlns="http://www.w3.org/2000/svg" fill="none" height="100%" overflow="visible" preserveAspectRatio="none" style="display: block;" viewBox="0 0 34.5 34.5" width="100%">
<g id="icon">
<rect fill="var(--fill-0, #F0EFFF)" height="34.5" rx="17.25" width="34.5"/>
<path d="M19.6313 21.8374L21.9758 19.5097L21.2674 18.8013L19.6313 20.4037L18.9734 19.7459L18.265 20.4712L19.6313 21.8374ZM12.0241 14.2472H20.1204V12.8978H12.0241V14.2472ZM20.1204 23.6928C19.1871 23.6928 18.3916 23.3638 17.734 22.7058C17.0764 22.0477 16.7474 21.2523 16.7469 20.3194C16.7465 19.3865 17.0755 18.591 17.734 17.933C18.3925 17.2749 19.188 16.9459 20.1204 16.9459C21.0528 16.9459 21.8485 17.2749 22.5075 17.933C23.1664 18.591 23.4952 19.3865 23.4939 20.3194C23.4925 21.2523 23.1635 22.0479 22.5068 22.7064C21.8501 23.3649 21.0546 23.6937 20.1204 23.6928ZM10 23.0181V11.5484C10 11.1773 10.1323 10.8598 10.3968 10.5957C10.6612 10.3317 10.9788 10.1995 11.3494 10.199H20.7951C21.1662 10.199 21.484 10.3313 21.7484 10.5957C22.0129 10.8602 22.1449 11.1778 22.1445 11.5484V16.052C21.9308 15.9508 21.7115 15.8664 21.4867 15.7989C21.2618 15.7315 21.0312 15.6809 20.7951 15.6471V11.5484H11.3494V21.0278H15.4482C15.5044 21.3764 15.5917 21.7081 15.7099 22.023C15.8282 22.3378 15.9827 22.6358 16.1735 22.9169L16.0723 23.0181L15.0602 22.0061L14.0482 23.0181L13.0361 22.0061L12.0241 23.0181L11.0121 22.0061L10 23.0181ZM12.0241 19.6447H15.4482C15.4819 19.4085 15.5325 19.178 15.6 18.9531C15.6674 18.7282 15.7518 18.509 15.853 18.2953H12.0241V19.6447ZM12.0241 16.9459H16.8144C17.2417 16.5299 17.7394 16.2008 18.3075 15.9588C18.8756 15.7169 19.4799 15.5961 20.1204 15.5965H12.0241V16.9459Z" fill="var(--fill-0, #1900FF)" id="Vector"/>
</g>
</svg>