<?xml version="1.0" encoding="utf-8"?>
<svg xmlns="http://www.w3.org/2000/svg" fill="none" height="100%" overflow="visible" preserveAspectRatio="none" style="display: block;" viewBox="0 0 84.7236 19.3711" width="100%">
<g id="Staff-IT">
<path d="M6.87305 0C8.31428 0 9.53762 0.265802 10.5391 0.795898C11.5404 1.32741 12.3283 2.0534 12.9053 2.97559C13.4823 3.89784 13.8387 4.95922 13.9746 6.16016L10.6406 6.31641C10.5552 5.63855 10.3566 5.04657 10.043 4.54102C9.72932 4.03697 9.30488 3.64079 8.77148 3.35352C8.23645 3.0662 7.58755 2.92188 6.82422 2.92188C5.87342 2.92188 5.12267 3.1432 4.57227 3.58691C4.02053 4.03073 3.74425 4.6186 3.74414 5.34961C3.74414 5.85385 3.85959 6.27213 4.08789 6.60254C4.3176 6.93293 4.72746 7.21656 5.32129 7.45215C5.91508 7.68772 6.74695 7.93487 7.81543 8.19629C9.42746 8.54392 10.7082 8.98722 11.6592 9.52734C12.6086 10.0674 13.2877 10.6939 13.6953 11.4062C14.1029 12.1202 14.3066 12.9381 14.3066 13.8604C14.3066 14.9924 14.0261 15.9709 13.4658 16.7969C12.9056 17.6228 12.1168 18.2587 11.0986 18.7012C10.0805 19.145 8.88462 19.3672 7.51074 19.3672L7.50781 19.3711C6.01494 19.3711 4.72504 19.1011 3.63965 18.5625C2.55417 18.0238 1.7011 17.2705 1.08203 16.3037C0.462993 15.3384 0.100856 14.2124 0 12.9238L3.36035 12.7158C3.46262 13.5158 3.68744 14.1951 4.03613 14.751C4.38342 15.3082 4.8493 15.7293 5.43457 16.0166C6.02002 16.3039 6.72902 16.4473 7.55957 16.4473C8.27248 16.4473 8.87889 16.3553 9.37891 16.1729C9.87889 15.9904 10.2611 15.7205 10.5244 15.3643C10.7877 15.008 10.9199 14.5687 10.9199 14.0459C10.9199 13.5762 10.8087 13.1538 10.5889 12.7803C10.3676 12.4068 9.9448 12.0663 9.31738 11.7617C8.68991 11.4572 7.75572 11.1563 6.51758 10.8604C5.02455 10.5127 3.82789 10.1167 2.92871 9.67285C2.02968 9.22898 1.37726 8.67276 0.969727 8.00195C0.56215 7.33251 0.359375 6.49187 0.359375 5.4834C0.359416 4.4047 0.622337 3.45237 1.14746 2.625C1.67264 1.79904 2.42042 1.15352 3.38672 0.692383C4.35308 0.231271 5.51596 2.88862e-05 6.87305 0Z" fill="var(--fill-0, black)"/>
<path clip-rule="evenodd" d="M31.4805 4.69922C33.4146 4.69922 34.8785 5.19907 35.8701 6.2002C36.8631 7.20145 37.3593 8.63245 37.3594 10.4941V15.5586C37.3594 15.9233 37.4224 16.1761 37.5498 16.3154C37.6772 16.4546 37.8675 16.5234 38.1221 16.5234H38.5557V18.9512C38.4534 18.9856 38.2879 19.0121 38.0596 19.0293C37.8299 19.0465 37.5974 19.0547 37.3594 19.0547C36.7991 19.0547 36.2986 18.9627 35.8574 18.7803C35.4165 18.5978 35.0779 18.2762 34.8398 17.8154C34.6965 17.5378 34.5967 17.1984 34.54 16.7979C34.3819 17.1447 34.1644 17.4672 33.8857 17.7637C33.4362 18.242 32.8712 18.6121 32.1934 18.8721C31.5141 19.1335 30.7506 19.2646 29.9033 19.2646C28.4777 19.2646 27.3333 18.9316 26.4678 18.2607C25.6023 17.5913 25.17 16.6559 25.1699 15.4551C25.1699 14.2542 25.5341 13.3148 26.2637 12.6367C26.9933 11.9587 28.1038 11.4712 29.5967 11.1738L34.1016 10.2598C34.1015 9.26875 33.8802 8.52433 33.4404 8.02734C32.9992 7.53184 32.3459 7.2832 31.4805 7.2832C30.7006 7.28326 30.0848 7.47087 29.6367 7.8457C29.1871 8.22065 28.8775 8.75489 28.708 9.4502L25.3994 9.29297C25.6711 7.81511 26.3322 6.67916 27.3838 5.8877C28.4356 5.0962 29.8013 4.69928 31.4805 4.69922ZM30.5918 13.2627C29.8621 13.4193 29.3397 13.651 29.0273 13.9541C28.7136 14.2586 28.5567 14.6547 28.5566 15.1416C28.5566 15.6818 28.7303 16.0986 29.0791 16.3945C29.4262 16.6901 29.9215 16.8367 30.5664 16.8369C31.2961 16.8369 31.9236 16.6904 32.4502 16.3945C32.9754 16.0986 33.3834 15.6894 33.6719 15.168C33.9604 14.6465 34.1045 14.0284 34.1045 13.3145V12.5312L30.5918 13.2627Z" fill="var(--fill-0, black)" fill-rule="evenodd"/>
<path d="M46.6494 3.00391H44.6133C44.0867 3.00391 43.7006 3.14318 43.4541 3.42188C43.2076 3.70057 43.0859 4.11075 43.0859 4.64941V5.37891H48.1504V4.46484C48.1504 3.21229 48.494 2.22404 49.1816 1.50293C49.8693 0.780372 50.9253 0.419961 52.3496 0.419922H54.9971V3.00391H52.9609C52.4343 3.00391 52.0483 3.14318 51.8018 3.42188C51.5553 3.70057 51.4336 4.11075 51.4336 4.64941V5.37891H54.8193V7.96289H51.4336V18.9541H48.1504V7.96289H43.0859V18.9541H39.8027V7.96289H37.8691V5.37891H39.8027V4.46484C39.8028 3.21228 40.1464 2.22404 40.834 1.50293C41.5216 0.780371 42.5776 0.41996 44.002 0.419922H46.6494V3.00391Z" fill="var(--fill-0, black)"/>
<path d="M20.5645 5.01367H24.1523V7.59863H20.5645V14.6445C20.5645 15.288 20.7001 15.7364 20.9717 15.9893C21.2434 16.2421 21.6681 16.3672 22.2451 16.3672H24.1543V18.9512H21.2539L21.251 18.9531C19.8938 18.9531 18.8966 18.6309 18.2607 17.9873C17.6249 17.3437 17.3066 16.3338 17.3066 14.959V7.59863H15.1689V5.01367H17.3066V1.75H20.5645V5.01367Z" fill="var(--fill-0, black)"/>
<path d="M69.1475 18.9531H65.8389V0.419922H69.1475V18.9531Z" fill="var(--fill-0, black)"/>
<path d="M84.7236 3.36914H79.251V18.9531H75.9434V3.36914H70.4463V0.419922H84.7236V3.36914Z" fill="var(--fill-0, black)"/>
<path d="M63.8281 12.7393H55.1748V9.9209H63.8281V12.7393Z" fill="var(--fill-0, black)"/>
</g>
</svg>