<?xml version="1.0" encoding="utf-8"?>
<svg xmlns="http://www.w3.org/2000/svg" fill="none" height="100%" overflow="visible" preserveAspectRatio="none" style="display: block;" viewBox="0 0 51.75 51.75" width="100%">
<g id="icon">
<rect fill="var(--fill-0, #F0EFFF)" height="51.75" rx="25.875" width="51.75"/>
<g id="Vector">
<path d="M34.5298 19.6675C34.5309 19.8396 34.4792 20.0078 34.3817 20.1489C34.2843 20.29 34.146 20.3972 33.9859 20.4557L31.2931 21.4612L30.3012 24.1843C30.2425 24.3456 30.1362 24.4848 29.9967 24.5831C29.8572 24.6814 29.6913 24.7341 29.5213 24.7341C29.3512 24.7341 29.1853 24.6814 29.0458 24.5831C28.9063 24.4848 28.8 24.3456 28.7413 24.1843L27.7431 21.4612L25.0483 20.4588C24.8887 20.3995 24.751 20.2921 24.6537 20.1511C24.5564 20.0102 24.5043 19.8425 24.5043 19.6707C24.5043 19.4988 24.5564 19.3311 24.6537 19.1902C24.751 19.0493 24.8887 18.9419 25.0483 18.8825L27.7431 17.8738L28.735 15.1506C28.7938 14.9894 28.9001 14.8502 29.0395 14.7519C29.179 14.6536 29.3449 14.6009 29.515 14.6009C29.685 14.6009 29.851 14.6536 29.9905 14.7519C30.1299 14.8502 30.2362 14.9894 30.2949 15.1506L31.2931 17.8738L33.9879 18.8762C34.1482 18.9352 34.2864 19.043 34.3835 19.1847C34.4806 19.3264 34.5317 19.4951 34.5298 19.6675ZM31.6063 14.603H32.4416V15.4471C32.4416 15.5591 32.4856 15.6664 32.5639 15.7455C32.6423 15.8247 32.7485 15.8692 32.8593 15.8692C32.97 15.8692 33.0763 15.8247 33.1546 15.7455C33.2329 15.6664 33.2769 15.5591 33.2769 15.4471V14.603H34.1122C34.223 14.603 34.3292 14.5586 34.4075 14.4794C34.4858 14.4003 34.5298 14.2929 34.5298 14.181C34.5298 14.0691 34.4858 13.9617 34.4075 13.8826C34.3292 13.8034 34.223 13.759 34.1122 13.759H33.2769V12.9149C33.2769 12.803 33.2329 12.6956 33.1546 12.6165C33.0763 12.5373 32.97 12.4929 32.8593 12.4929C32.7485 12.4929 32.6423 12.5373 32.5639 12.6165C32.4856 12.6956 32.4416 12.803 32.4416 12.9149V13.759H31.6063C31.4956 13.759 31.3893 13.8034 31.311 13.8826C31.2327 13.9617 31.1887 14.0691 31.1887 14.181C31.1887 14.2929 31.2327 14.4003 31.311 14.4794C31.3893 14.5586 31.4956 14.603 31.6063 14.603ZM36.2004 16.2912H35.7828V15.8692C35.7828 15.7572 35.7388 15.6499 35.6604 15.5707C35.5821 15.4916 35.4759 15.4471 35.3651 15.4471C35.2544 15.4471 35.1481 15.4916 35.0698 15.5707C34.9915 15.6499 34.9475 15.7572 34.9475 15.8692V16.2912H34.5298C34.4191 16.2912 34.3128 16.3357 34.2345 16.4148C34.1562 16.494 34.1122 16.6013 34.1122 16.7132C34.1122 16.8252 34.1562 16.9325 34.2345 17.0117C34.3128 17.0908 34.4191 17.1353 34.5298 17.1353H34.9475V17.5573C34.9475 17.6692 34.9915 17.7766 35.0698 17.8557C35.1481 17.9349 35.2544 17.9793 35.3651 17.9793C35.4759 17.9793 35.5821 17.9349 35.6604 17.8557C35.7388 17.7766 35.7828 17.6692 35.7828 17.5573V17.1353H36.2004C36.3112 17.1353 36.4174 17.0908 36.4957 17.0117C36.5741 16.9325 36.6181 16.8252 36.6181 16.7132C36.6181 16.6013 36.5741 16.494 36.4957 16.4148C36.4174 16.3357 36.3112 16.2912 36.2004 16.2912Z" fill="var(--fill-0, #1900FF)"/>
<path d="M30.4588 35.1723C29.4711 33.4204 27.9287 32.0554 26.0799 31.2969C26.9993 30.6001 27.6784 29.6287 28.021 28.5202C28.3637 27.4118 28.3525 26.2224 27.9891 25.1207C27.6257 24.019 26.9285 23.0608 25.9962 22.3818C25.0639 21.7028 23.9438 21.3374 22.7946 21.3374C21.6454 21.3374 20.5253 21.7028 19.5931 22.3818C18.6608 23.0608 17.9635 24.019 17.6001 25.1207C17.2367 26.2224 17.2255 27.4118 17.5682 28.5202C17.9109 29.6287 18.59 30.6001 19.5093 31.2969C17.6606 32.0554 16.1182 33.4204 15.1304 35.1723C15.0692 35.2717 15.0284 35.3826 15.0104 35.4983C14.9925 35.614 14.9977 35.7322 15.0259 35.8458C15.054 35.9594 15.1045 36.0661 15.1742 36.1596C15.244 36.2531 15.3317 36.3315 15.432 36.3901C15.5324 36.4487 15.6434 36.4863 15.7584 36.5007C15.8734 36.515 15.9901 36.5059 16.1016 36.4738C16.213 36.4417 16.317 36.3873 16.4072 36.3138C16.4974 36.2402 16.5721 36.1492 16.6268 36.0459C17.9323 33.7657 20.2377 32.4057 22.7946 32.4057C25.3515 32.4057 27.657 33.7664 28.9625 36.0459C29.081 36.2385 29.269 36.3769 29.4867 36.432C29.7044 36.4871 29.9348 36.4544 30.1291 36.341C30.3234 36.2275 30.4665 36.0422 30.528 35.824C30.5896 35.6059 30.5648 35.3722 30.4588 35.1723ZM19.0482 26.8726C19.0482 26.1239 19.268 25.3919 19.6796 24.7694C20.0913 24.1468 20.6764 23.6616 21.3609 23.375C22.0455 23.0885 22.7988 23.0135 23.5255 23.1596C24.2522 23.3057 24.9198 23.6662 25.4437 24.1957C25.9676 24.7251 26.3245 25.3997 26.469 26.1341C26.6136 26.8684 26.5394 27.6296 26.2558 28.3214C25.9723 29.0132 25.4921 29.6044 24.876 30.0204C24.2599 30.4364 23.5356 30.6584 22.7946 30.6584C21.8014 30.6573 20.8491 30.258 20.1468 29.5483C19.4445 28.8386 19.0494 27.8763 19.0482 26.8726Z" fill="var(--fill-0, #1900FF)"/>
</g>
</g>
</svg>