<?xml version="1.0" encoding="utf-8"?>
<svg xmlns="http://www.w3.org/2000/svg" fill="none" height="100%" overflow="visible" preserveAspectRatio="none" style="display: block;" viewBox="0 0 21.3117 16.3936" width="100%">
<path d="M20.492 0H0.81968C0.602288 0 0.393799 0.0863591 0.240079 0.240079C0.0863589 0.393799 0 0.602288 0 0.81968V14.7542C0 15.189 0.172718 15.606 0.480158 15.9134C0.787597 16.2209 1.20458 16.3936 1.63936 16.3936H19.6723C20.1071 16.3936 20.5241 16.2209 20.8315 15.9134C21.139 15.606 21.3117 15.189 21.3117 14.7542V0.81968C21.3117 0.602288 21.2253 0.393799 21.0716 0.240079C20.9179 0.0863591 20.7094 0 20.492 0ZM10.6558 8.72447L2.92728 1.63936H18.3844L10.6558 8.72447ZM7.65479 8.1968L1.63936 13.7102V2.68343L7.65479 8.1968ZM8.86792 9.3085L10.0974 10.4407C10.2487 10.5795 10.4465 10.6565 10.6517 10.6565C10.857 10.6565 11.0548 10.5795 11.2061 10.4407L12.4356 9.3085L18.3783 14.7542H2.92728L8.86792 9.3085ZM13.6569 8.1968L19.6723 2.6824V13.7112L13.6569 8.1968Z" fill="var(--fill-0, black)" id="Vector"/>
</svg>