<?xml version="1.0" encoding="utf-8"?>
<svg xmlns="http://www.w3.org/2000/svg" fill="none" height="100%" overflow="visible" preserveAspectRatio="none" style="display: block;" viewBox="0 0 51.75 51.75" width="100%">
<g id="icon">
<rect fill="var(--fill-0, #F0EFFF)" height="51.75" rx="25.875" width="51.75"/>
<path d="M25.875 15.8681C23.7241 15.8681 21.6216 16.5076 19.8332 17.7057C18.0448 18.9038 16.6509 20.6066 15.8278 22.599C15.0047 24.5913 14.7894 26.7836 15.209 28.8987C15.6286 31.0138 16.6643 32.9566 18.1852 34.4815C19.7061 36.0063 21.6439 37.0448 23.7534 37.4655C25.8629 37.8862 28.0495 37.6703 30.0367 36.845C32.0238 36.0198 33.7223 34.6222 34.9172 32.8292C36.1122 31.0361 36.75 28.928 36.75 26.7715C36.7467 23.8808 35.5999 21.1094 33.5611 19.0653C31.5224 17.0212 28.7582 15.8714 25.875 15.8681ZM25.875 34.9491C24.2618 34.9491 22.6849 34.4695 21.3436 33.571C20.0023 32.6724 18.9569 31.3952 18.3396 29.901C17.7223 28.4067 17.5608 26.7625 17.8755 25.1762C18.1902 23.5899 18.967 22.1328 20.1077 20.9891C21.2483 19.8455 22.7016 19.0666 24.2838 18.7511C25.866 18.4356 27.5059 18.5975 28.9963 19.2164C30.4866 19.8354 31.7605 20.8835 32.6567 22.2283C33.5529 23.5731 34.0313 25.1542 34.0313 26.7715C34.0289 28.9396 33.1688 31.0182 31.6397 32.5513C30.1106 34.0844 28.0374 34.9467 25.875 34.9491ZM30.0086 22.1728C30.1354 22.2994 30.2359 22.4499 30.3045 22.6155C30.3731 22.7812 30.4085 22.9588 30.4085 23.1382C30.4085 23.3176 30.3731 23.4952 30.3045 23.6609C30.2359 23.8265 30.1354 23.977 30.0086 24.1036L26.8368 27.2838C26.5814 27.5398 26.235 27.6837 25.8739 27.6837C25.5127 27.6837 25.1664 27.5398 24.911 27.2838C24.6556 27.0277 24.5121 26.6805 24.5121 26.3184C24.5121 25.9563 24.6556 25.609 24.911 25.353L28.0829 22.1728C28.2091 22.0457 28.3592 21.9449 28.5244 21.8761C28.6897 21.8073 28.8668 21.7719 29.0457 21.7719C29.2247 21.7719 29.4018 21.8073 29.567 21.8761C29.7323 21.9449 29.8823 22.0457 30.0086 22.1728ZM21.7969 12.6879C21.7969 12.3265 21.9401 11.9798 22.195 11.7242C22.45 11.4686 22.7957 11.325 23.1563 11.325H28.5938C28.9543 11.325 29.3 11.4686 29.555 11.7242C29.8099 11.9798 29.9531 12.3265 29.9531 12.6879C29.9531 13.0494 29.8099 13.3961 29.555 13.6517C29.3 13.9073 28.9543 14.0509 28.5938 14.0509H23.1563C22.7957 14.0509 22.45 13.9073 22.195 13.6517C21.9401 13.3961 21.7969 13.0494 21.7969 12.6879Z" fill="var(--fill-0, #1900FF)" id="Vector"/>
</g>
</svg>