<?xml version="1.0" encoding="utf-8"?>
<svg xmlns="http://www.w3.org/2000/svg" fill="none" height="100%" overflow="visible" preserveAspectRatio="none" style="display: block;" viewBox="0 0 69 69" width="100%">
<g id="icon">
<rect fill="var(--fill-0, #F0EFFF)" height="69" rx="34.5" width="69"/>
<path d="M40.2625 44.6749L44.9516 40.0195L43.5348 38.6026L40.2625 41.8074L38.9469 40.4918L37.53 41.9424L40.2625 44.6749ZM25.0482 29.4943H41.2408V26.7956H25.0482V29.4943ZM41.2408 48.3857C39.3742 48.3857 37.7832 47.7276 36.468 46.4115C35.1528 45.0954 34.4948 43.5045 34.4939 41.6388C34.493 39.773 35.151 38.1821 36.468 36.866C37.785 35.5499 39.376 34.8918 41.2408 34.8918C43.1056 34.8918 44.697 35.5499 46.0149 36.866C47.3328 38.1821 47.9904 39.773 47.9877 41.6388C47.985 43.5045 47.327 45.0959 46.0136 46.4129C44.7002 47.7299 43.1092 48.3875 41.2408 48.3857ZM21.0001 47.0363V24.0968C21.0001 23.3546 21.2646 22.7195 21.7935 22.1915C22.3225 21.6634 22.9576 21.3989 23.6988 21.398H42.5902C43.3323 21.398 43.9679 21.6625 44.4969 22.1915C45.0258 22.7204 45.2898 23.3555 45.2889 24.0968V33.1039C44.8616 32.9015 44.4231 32.7328 43.9733 32.5979C43.5235 32.463 43.0625 32.3618 42.5902 32.2943V24.0968H23.6988V43.0556H31.8963C32.0088 43.7528 32.1833 44.4162 32.4199 45.0459C32.6565 45.6757 32.9655 46.2716 33.3469 46.8339L33.1445 47.0363L31.1204 45.0122L29.0964 47.0363L27.0723 45.0122L25.0482 47.0363L23.0241 45.0122L21.0001 47.0363ZM25.0482 40.2894H31.8963C31.9638 39.8171 32.065 39.3561 32.1999 38.9063C32.3349 38.4565 32.5036 38.0179 32.706 37.5906H25.0482V40.2894ZM25.0482 34.8918H34.6288C35.4834 34.0597 36.4788 33.4017 37.615 32.9177C38.7512 32.4337 39.9598 32.1922 41.2408 32.1931H25.0482V34.8918Z" fill="var(--fill-0, #1900FF)" id="Vector"/>
</g>
</svg>