<?xml version="1.0" encoding="utf-8"?>
<svg xmlns="http://www.w3.org/2000/svg" fill="none" height="100%" overflow="visible" preserveAspectRatio="none" style="display: block;" viewBox="0 0 24 24" width="100%">
<g id="icon">
<path d="M7.39258 2.92481C7.7193 2.88496 8.0503 2.95169 8.33594 3.11524C8.62136 3.27873 8.84654 3.53034 8.97754 3.83203L10.8828 8.0791L10.8906 8.09571V8.11426C10.9829 8.33937 11.0222 8.58262 11.001 8.8252C10.979 9.07585 10.8956 9.31779 10.7578 9.52832H10.7568C10.7388 9.55538 10.72 9.58004 10.7012 9.60352L10.7002 9.60547L8.86621 11.7852C9.53323 13.1056 10.908 14.4685 12.2461 15.1357L14.3926 13.3066H14.3936C14.4176 13.2864 14.4425 13.2673 14.4688 13.25L14.6328 13.1553C14.8019 13.0707 14.9855 13.0175 15.1748 13C15.3643 12.9825 15.5554 13.0005 15.7373 13.0527L15.916 13.1162L15.9297 13.1231L20.1689 15.0225H20.168C20.4698 15.1536 20.7213 15.3785 20.8848 15.6641C21.0482 15.9497 21.1151 16.2807 21.0752 16.6074V16.6084C20.912 17.8487 20.3026 18.9875 19.3613 19.8115C18.479 20.5839 17.3612 21.03 16.1943 21.0811L15.96 21.0859C8.76637 21.0859 2.91416 15.2336 2.91406 8.04004C2.91182 6.78909 3.36451 5.57993 4.18848 4.63868C5.01251 3.6974 6.15128 3.08802 7.3916 2.92481H7.39258ZM7.52246 4.53711C6.69847 4.66359 5.94427 5.07558 5.39551 5.70508C4.83193 6.35163 4.52317 7.18138 4.52637 8.03907V8.04004C4.52975 11.0714 5.73542 13.9776 7.87891 16.1211C10.0224 18.2646 12.9286 19.4703 15.96 19.4736C16.8189 19.4765 17.6501 19.1667 18.2969 18.6016C18.9267 18.0513 19.3369 17.2952 19.4619 16.4697L15.334 14.6201L13.1885 16.4522C13.1647 16.4724 13.1392 16.4914 13.1133 16.5088C12.8938 16.6552 12.6401 16.7426 12.377 16.7617C12.1136 16.7808 11.8498 16.7305 11.6113 16.6172H11.6104C9.90759 15.7944 8.21365 14.1128 7.38965 12.4277L7.38867 12.4268C7.27442 12.1902 7.22358 11.9282 7.24023 11.666C7.25694 11.4037 7.3409 11.1499 7.48438 10.9297C7.50183 10.9018 7.52137 10.8754 7.54297 10.8506L9.36719 8.66602L7.52246 4.53711Z" fill="var(--fill-0, black)" id="Vector" stroke="var(--stroke-0, black)" stroke-width="0.1726"/>
</g>
</svg>