<?xml version="1.0" encoding="utf-8"?>
<svg xmlns="http://www.w3.org/2000/svg" fill="none" height="100%" overflow="visible" preserveAspectRatio="none" style="display: block;" viewBox="0 0 36 36" width="100%">
<g id="social">
<rect height="35" rx="17.5" stroke="var(--stroke-0, #0D062D)" stroke-opacity="0.16" width="35" x="0.5" y="0.5"/>
<g id="icon">
<path d="M18.3319 15.3301C17.8043 15.3303 17.2887 15.487 16.8501 15.7803C16.4116 16.0736 16.0698 16.4903 15.8681 16.9779C15.6664 17.4654 15.6137 18.0019 15.7167 18.5194C15.8198 19.0369 16.0739 19.5122 16.447 19.8853C16.8201 20.2583 17.2954 20.5123 17.8128 20.6152C18.3303 20.718 18.8666 20.6652 19.3539 20.4632C19.8413 20.2612 20.2579 19.9192 20.5509 19.4805C20.844 19.0417 21.0004 18.5259 21.0004 17.9982C20.9999 17.2906 20.7185 16.6121 20.2182 16.1118C19.7178 15.6115 19.0394 15.3304 18.3319 15.3301ZM24.5686 13.2793C24.4328 12.935 24.2278 12.6224 23.9662 12.3607C23.7046 12.0991 23.392 11.8939 23.0478 11.7581C21.9976 11.3434 19.4971 11.4365 18.3319 11.4365C17.1666 11.4365 14.6686 11.3399 13.6154 11.7581C13.2713 11.8939 12.9587 12.0991 12.6971 12.3607C12.4355 12.6224 12.2304 12.935 12.0946 13.2793C11.6805 14.3297 11.773 16.8333 11.773 17.9977C11.773 19.1622 11.6805 21.6628 12.0966 22.7167C12.2324 23.061 12.4375 23.3736 12.6991 23.6353C12.9607 23.8969 13.2733 24.1021 13.6174 24.2379C14.6676 24.6526 17.1681 24.5595 18.3339 24.5595C19.4996 24.5595 21.9966 24.6561 23.0498 24.2379C23.394 24.1021 23.7066 23.8969 23.9682 23.6353C24.2298 23.3736 24.4348 23.061 24.5706 22.7167C24.9882 21.6663 24.8922 19.1627 24.8922 17.9982C24.8922 16.8338 24.9882 14.3337 24.5706 13.2798L24.5686 13.2793ZM18.3319 22.1C17.5208 22.1 16.728 21.8594 16.0536 21.4087C15.3792 20.958 14.8536 20.3174 14.5432 19.5679C14.2328 18.8184 14.1516 17.9937 14.3098 17.198C14.4681 16.4024 14.8586 15.6715 15.4321 15.0979C16.0057 14.5243 16.7364 14.1336 17.5318 13.9753C18.3273 13.8171 19.1519 13.8983 19.9012 14.2087C20.6505 14.5192 21.291 15.0449 21.7416 15.7194C22.1922 16.394 22.4327 17.187 22.4327 17.9982C22.4334 18.5371 22.3277 19.0707 22.1219 19.5687C21.916 20.0666 21.614 20.5191 21.2331 20.9001C20.8521 21.2811 20.3998 21.5832 19.902 21.7891C19.4041 21.995 18.8706 22.1006 18.3319 22.1ZM22.6017 14.6818C22.4124 14.6819 22.2273 14.6259 22.0698 14.5207C21.9123 14.4156 21.7896 14.2661 21.7171 14.0912C21.6445 13.9162 21.6255 13.7237 21.6624 13.538C21.6993 13.3522 21.7904 13.1816 21.9242 13.0476C22.0581 12.9137 22.2286 12.8225 22.4143 12.7855C22.6 12.7485 22.7925 12.7674 22.9674 12.8399C23.1424 12.9123 23.2919 13.035 23.3971 13.1925C23.5023 13.3499 23.5584 13.5351 23.5584 13.7244C23.559 13.8502 23.5347 13.9748 23.4869 14.0912C23.4392 14.2075 23.369 14.3133 23.2803 14.4024C23.1916 14.4916 23.0861 14.5623 22.9701 14.6106C22.854 14.6589 22.7295 14.6838 22.6037 14.6839L22.6017 14.6818ZM26.2775 21.2996C26.213 22.5817 25.9204 23.7177 24.9847 24.6511C24.049 25.5844 22.9143 25.8831 21.634 25.9441C20.3133 26.0186 16.3535 26.0186 15.0327 25.9441C13.7509 25.8796 12.6192 25.5865 11.682 24.6511C10.7448 23.7157 10.4503 22.5792 10.3893 21.2996C10.3147 19.9781 10.3147 16.0169 10.3893 14.6969C10.4538 13.4148 10.7428 12.2788 11.682 11.3454C12.6212 10.412 13.7559 10.1169 15.0327 10.0559C16.3535 9.98137 20.3133 9.98137 21.634 10.0559C22.9158 10.1204 24.051 10.4135 24.9847 11.3489C25.9184 12.2843 26.2165 13.4208 26.2775 14.7029C26.352 16.0194 26.352 19.9771 26.2775 21.2996Z" fill="var(--fill-0, black)" id="social - instagram"/>
</g>
</g>
</svg>