<?xml version="1.0" encoding="utf-8"?>
<svg xmlns="http://www.w3.org/2000/svg" fill="none" height="100%" overflow="visible" preserveAspectRatio="none" style="display: block;" viewBox="0 0 26.3843 26.3843" width="100%">
<g id="Avatar">
<rect fill="var(--fill-0, white)" height="26.3843" rx="4.05912" width="26.3843"/>
<rect height="25.8769" rx="3.80542" stroke="var(--stroke-0, #969695)" stroke-opacity="0.24" stroke-width="0.507389" width="25.8769" x="0.253695" y="0.253695"/>
<g clip-path="url(#clip0_0_4576)" id="Logo">
<path clip-rule="evenodd" d="M15.4474 9.81741C14.7798 9.3714 13.995 9.13333 13.1922 9.13333V5.07422C14.7979 5.07422 16.3674 5.55034 17.7025 6.44239C19.0375 7.33443 20.078 8.60232 20.6925 10.0857C21.3069 11.5691 21.4677 13.2015 21.1545 14.7762C20.8412 16.351 20.0681 17.7976 18.9327 18.9329C17.7973 20.0683 16.3508 20.8414 14.776 21.1547C13.2012 21.4679 11.5689 21.3071 10.0855 20.6927C8.60211 20.0782 7.33421 19.0377 6.44217 17.7027C5.55013 16.3677 5.074 14.7981 5.074 13.1924H9.13312C9.13312 13.9953 9.37119 14.78 9.8172 15.4476C10.2632 16.1151 10.8972 16.6353 11.6389 16.9426C12.3806 17.2498 13.1967 17.3302 13.9841 17.1735C14.7715 17.0169 15.4948 16.6304 16.0625 16.0627C16.6301 15.495 17.0167 14.7717 17.1733 13.9843C17.33 13.197 17.2496 12.3808 16.9424 11.6391C16.6351 10.8974 16.1149 10.2634 15.4474 9.81741Z" fill="var(--fill-0, #1B1B1D)" fill-rule="evenodd" id="Vector"/>
<path clip-rule="evenodd" d="M9.13296 5.07422C9.13296 5.60725 9.02797 6.13506 8.82399 6.62751C8.62001 7.11997 8.32103 7.56742 7.94412 7.94433C7.56721 8.32125 7.11976 8.62022 6.6273 8.82421C6.13484 9.02819 5.60703 9.13317 5.074 9.13317L5.074 13.1921C6.14006 13.1921 7.19568 12.9822 8.1806 12.5742C9.16551 12.1662 10.0604 11.5683 10.8142 10.8144C11.568 10.0606 12.166 9.16573 12.574 8.18081C12.9819 7.1959 13.1919 6.14027 13.1919 5.07422L9.13296 5.07422Z" fill="var(--fill-0, #1B1B1D)" fill-rule="evenodd" id="Vector_2"/>
</g>
</g>
<defs>
<clipPath id="clip0_0_4576">
<rect fill="white" height="16.2365" transform="translate(5.07389 5.07389)" width="16.2365"/>
</clipPath>
</defs>
</svg>