<?xml version="1.0" encoding="utf-8"?>
<svg xmlns="http://www.w3.org/2000/svg" fill="none" height="100%" overflow="visible" preserveAspectRatio="none" style="display: block;" viewBox="0 0 41.4 41.4" width="100%">
<g id="icon">
<rect fill="var(--fill-0, #F0EFFF)" height="41.4" rx="20.7" width="41.4"/>
<path d="M20.7 12.591C18.9793 12.591 17.2973 13.0881 15.8665 14.0192C14.4358 14.9504 13.3207 16.274 12.6623 17.8225C12.0038 19.371 11.8315 21.0749 12.1672 22.7188C12.5029 24.3627 13.3315 25.8727 14.5482 27.0579C15.7649 28.2431 17.3151 29.0502 19.0027 29.3772C20.6904 29.7042 22.4396 29.5363 24.0293 28.8949C25.6191 28.2535 26.9778 27.1673 27.9338 25.7737C28.8898 24.3801 29.4 22.7416 29.4 21.0655C29.3974 18.8187 28.4799 16.6647 26.8489 15.076C25.2179 13.4873 23.0066 12.5936 20.7 12.591ZM20.7 27.4214C19.4095 27.4214 18.1479 27.0486 17.0749 26.3502C16.0019 25.6518 15.1656 24.6592 14.6717 23.4978C14.1778 22.3364 14.0486 21.0585 14.3004 19.8255C14.5521 18.5926 15.1736 17.4601 16.0861 16.5712C16.9987 15.6824 18.1613 15.077 19.427 14.8318C20.6928 14.5865 22.0047 14.7124 23.197 15.1935C24.3893 15.6745 25.4084 16.4892 26.1253 17.5344C26.8423 18.5796 27.225 19.8084 27.225 21.0655C27.2231 22.7506 26.535 24.3662 25.3118 25.5577C24.0885 26.7493 22.43 27.4195 20.7 27.4214ZM24.0069 17.4912C24.1083 17.5896 24.1887 17.7066 24.2436 17.8353C24.2985 17.9641 24.3268 18.1022 24.3268 18.2416C24.3268 18.381 24.2985 18.519 24.2436 18.6478C24.1887 18.7766 24.1083 18.8935 24.0069 18.9919L21.4694 21.4636C21.2651 21.6626 20.988 21.7744 20.6991 21.7744C20.4102 21.7744 20.1331 21.6626 19.9288 21.4636C19.7245 21.2646 19.6097 20.9947 19.6097 20.7133C19.6097 20.4319 19.7245 20.162 19.9288 19.963L22.4663 17.4912C22.5673 17.3925 22.6874 17.3141 22.8196 17.2606C22.9517 17.2072 23.0935 17.1797 23.2366 17.1797C23.3797 17.1797 23.5214 17.2072 23.6536 17.2606C23.7858 17.3141 23.9059 17.3925 24.0069 17.4912ZM17.4375 10.1193C17.4375 9.83836 17.5521 9.56892 17.756 9.37027C17.96 9.17161 18.2366 9.06 18.525 9.06H22.875C23.1634 9.06 23.44 9.17161 23.644 9.37027C23.8479 9.56892 23.9625 9.83836 23.9625 10.1193C23.9625 10.4003 23.8479 10.6697 23.644 10.8684C23.44 11.067 23.1634 11.1786 22.875 11.1786H18.525C18.2366 11.1786 17.96 11.067 17.756 10.8684C17.5521 10.6697 17.4375 10.4003 17.4375 10.1193Z" fill="var(--fill-0, #1900FF)" id="Vector"/>
</g>
</svg>