<?xml version="1.0" encoding="utf-8"?>
<svg xmlns="http://www.w3.org/2000/svg" fill="none" height="100%" overflow="visible" preserveAspectRatio="none" style="display: block;" viewBox="0 0 55.8765 55.8765" width="100%">
<g id="icon">
<path d="M19.2075 20.9535C19.2075 20.4904 19.3915 20.0463 19.7189 19.7188C20.0464 19.3913 20.4905 19.2074 20.9537 19.2074H34.9228C35.3859 19.2074 35.83 19.3913 36.1575 19.7188C36.4849 20.0463 36.6689 20.4904 36.6689 20.9535C36.6689 21.4166 36.4849 21.8607 36.1575 22.1882C35.83 22.5157 35.3859 22.6996 34.9228 22.6996H20.9537C20.4905 22.6996 20.0464 22.5157 19.7189 22.1882C19.3915 21.8607 19.2075 21.4166 19.2075 20.9535ZM20.9537 29.6842H34.9228C35.3859 29.6842 35.83 29.5002 36.1575 29.1728C36.4849 28.8453 36.6689 28.4012 36.6689 27.9381C36.6689 27.475 36.4849 27.0308 36.1575 26.7033C35.83 26.3759 35.3859 26.1919 34.9228 26.1919H20.9537C20.4905 26.1919 20.0464 26.3759 19.7189 26.7033C19.3915 27.0308 19.2075 27.475 19.2075 27.9381C19.2075 28.4012 19.3915 28.8453 19.7189 29.1728C20.0464 29.5002 20.4905 29.6842 20.9537 29.6842ZM27.9382 33.1765H20.9537C20.4905 33.1765 20.0464 33.3604 19.7189 33.6879C19.3915 34.0154 19.2075 34.4595 19.2075 34.9226C19.2075 35.3857 19.3915 35.8299 19.7189 36.1573C20.0464 36.4848 20.4905 36.6688 20.9537 36.6688H27.9382C28.4013 36.6688 28.8455 36.4848 29.1729 36.1573C29.5004 35.8299 29.6844 35.3857 29.6844 34.9226C29.6844 34.4595 29.5004 34.0154 29.1729 33.6879C28.8455 33.3604 28.4013 33.1765 27.9382 33.1765ZM48.8919 10.4767V34.2002C48.8934 34.6589 48.8036 35.1134 48.6279 35.5372C48.4521 35.961 48.1939 36.3456 47.8682 36.6688L36.6689 47.8681C36.3458 48.1938 35.9612 48.452 35.5374 48.6277C35.1136 48.8035 34.6591 48.8932 34.2003 48.8917H10.4768C9.5506 48.8917 8.66232 48.5238 8.00739 47.8689C7.35246 47.2139 6.98453 46.3257 6.98453 45.3995V10.4767C6.98453 9.55044 7.35246 8.66217 8.00739 8.00724C8.66232 7.35231 9.5506 6.98438 10.4768 6.98438H45.3996C46.3258 6.98438 47.2141 7.35231 47.869 8.00724C48.524 8.66217 48.8919 9.55044 48.8919 10.4767ZM10.4768 45.3995H33.1766V34.9226C33.1766 34.4595 33.3606 34.0154 33.6881 33.6879C34.0155 33.3604 34.4597 33.1765 34.9228 33.1765H45.3996V10.4767H10.4768V45.3995ZM36.6689 36.6688V42.933L42.931 36.6688H36.6689Z" fill="var(--fill-0, #1900FF)" id="Vector"/>
</g>
</svg>