<?xml version="1.0" encoding="utf-8"?>
<svg xmlns="http://www.w3.org/2000/svg" fill="none" height="100%" overflow="visible" preserveAspectRatio="none" style="display: block;" viewBox="0 0 11.375 8.75" width="100%">
<path d="M10.9375 0H0.4375C0.321468 0 0.210188 0.0460937 0.128141 0.128141C0.0460936 0.210188 0 0.321468 0 0.4375V7.875C0 8.10706 0.0921872 8.32962 0.256282 8.49372C0.420376 8.65781 0.642936 8.75 0.875 8.75H10.5C10.7321 8.75 10.9546 8.65781 11.1187 8.49372C11.2828 8.32962 11.375 8.10706 11.375 7.875V0.4375C11.375 0.321468 11.3289 0.210188 11.2469 0.128141C11.1648 0.0460937 11.0535 0 10.9375 0ZM5.6875 4.65664L1.56242 0.875H9.81258L5.6875 4.65664ZM4.0857 4.375L0.875 7.31773V1.43227L4.0857 4.375ZM4.7332 4.96836L5.38945 5.57266C5.47017 5.64675 5.57575 5.68786 5.68531 5.68786C5.79488 5.68786 5.90046 5.64675 5.98117 5.57266L6.63742 4.96836L9.8093 7.875H1.56242L4.7332 4.96836ZM7.2893 4.375L10.5 1.43172V7.31828L7.2893 4.375Z" fill="var(--fill-0, white)" id="Vector"/>
</svg>