<?xml version="1.0" encoding="utf-8"?>
<svg xmlns="http://www.w3.org/2000/svg" fill="none" height="100%" overflow="visible" preserveAspectRatio="none" style="display: block;" viewBox="0 0 41.4 41.4" width="100%">
<g id="icon">
<rect fill="var(--fill-0, #F0EFFF)" height="41.4" rx="20.7" width="41.4"/>
<path d="M24.1575 26.8049L26.971 24.0117L26.1209 23.1616L24.1575 25.0845L23.3681 24.2951L22.518 25.1654L24.1575 26.8049ZM15.0289 17.6966H24.7445V16.0773H15.0289V17.6966ZM24.7445 29.0314C23.6245 29.0314 22.6699 28.6366 21.8808 27.8469C21.0917 27.0573 20.6969 26.1027 20.6963 24.9833C20.6958 23.8638 21.0906 22.9093 21.8808 22.1196C22.671 21.3299 23.6256 20.9351 24.7445 20.9351C25.8634 20.9351 26.8182 21.3299 27.609 22.1196C28.3997 22.9093 28.7942 23.8638 28.7926 24.9833C28.791 26.1027 28.3962 27.0575 27.6081 27.8477C26.8201 28.6379 25.8655 29.0325 24.7445 29.0314ZM12.6 28.2218V14.4581C12.6 14.0128 12.7587 13.6317 13.0761 13.3149C13.3935 12.998 13.7745 12.8394 14.2193 12.8388H25.5541C25.9994 12.8388 26.3807 12.9975 26.6981 13.3149C27.0155 13.6323 27.1739 14.0133 27.1734 14.4581V19.8623C26.917 19.7409 26.6539 19.6397 26.384 19.5587C26.1141 19.4778 25.8375 19.4171 25.5541 19.3766V14.4581H14.2193V25.8334H19.1378C19.2053 26.2517 19.31 26.6497 19.4519 27.0276C19.5939 27.4054 19.7793 27.763 20.0082 28.1003L19.8867 28.2218L18.6723 27.0073L17.4578 28.2218L16.2434 27.0073L15.0289 28.2218L13.8145 27.0073L12.6 28.2218ZM15.0289 24.1736H19.1378C19.1783 23.8903 19.239 23.6136 19.32 23.3438C19.4009 23.0739 19.5021 22.8107 19.6236 22.5544H15.0289V24.1736ZM15.0289 20.9351H20.7773C21.2901 20.4358 21.8873 20.041 22.569 19.7506C23.2507 19.4602 23.9759 19.3153 24.7445 19.3158H15.0289V20.9351Z" fill="var(--fill-0, #1900FF)" id="Vector"/>
</g>
</svg>