<?xml version="1.0" encoding="utf-8"?>
<svg xmlns="http://www.w3.org/2000/svg" fill="none" height="100%" overflow="visible" preserveAspectRatio="none" style="display: block;" viewBox="0 0 336.552 160.539" width="100%">
<g filter="url(#filter0_d_0_4605)" id="Union">
<path d="M38.5 20.5C28.5589 20.5 20.5 28.5589 20.5 38.5V102.039C20.5 111.98 28.5589 120.039 38.5 120.039H254.028C262.127 120.039 268.976 114.69 271.236 107.333C278.15 109.106 286.114 109.736 294.828 108.151C290.019 106.09 271.47 93.7238 272.157 68.9922C272.115 69.0496 272.071 69.105 272.027 69.1611V38.5C272.027 28.559 263.969 20.5003 254.028 20.5H38.5Z" fill="var(--fill-0, white)"/>
<path d="M38.5 20.5C28.5589 20.5 20.5 28.5589 20.5 38.5V102.039C20.5 111.98 28.5589 120.039 38.5 120.039H254.028C262.127 120.039 268.976 114.69 271.236 107.333C278.15 109.106 286.114 109.736 294.828 108.151C290.019 106.09 271.47 93.7238 272.157 68.9922C272.115 69.0496 272.071 69.105 272.027 69.1611V38.5C272.027 28.559 263.969 20.5003 254.028 20.5H38.5Z" stroke="var(--stroke-0, #CFCFD5)"/>
</g>
<defs>
<filter color-interpolation-filters="sRGB" filterUnits="userSpaceOnUse" height="160.539" id="filter0_d_0_4605" width="336.552" x="0" y="0">
<feFlood flood-opacity="0" result="BackgroundImageFix"/>
<feColorMatrix in="SourceAlpha" result="hardAlpha" type="matrix" values="0 0 0 0 0 0 0 0 0 0 0 0 0 0 0 0 0 0 127 0"/>
<feOffset dx="10" dy="10"/>
<feGaussianBlur stdDeviation="15"/>
<feComposite in2="hardAlpha" operator="out"/>
<feColorMatrix type="matrix" values="0 0 0 0 0 0 0 0 0 0 0 0 0 0 0 0 0 0 0.12 0"/>
<feBlend in2="BackgroundImageFix" mode="normal" result="effect1_dropShadow_0_4605"/>
<feBlend in="SourceGraphic" in2="effect1_dropShadow_0_4605" mode="normal" result="shape"/>
</filter>
</defs>
</svg>