<?xml version="1.0" encoding="utf-8"?>
<svg xmlns="http://www.w3.org/2000/svg" fill="none" height="100%" overflow="visible" preserveAspectRatio="none" style="display: block;" viewBox="0 0 30.5633 20" width="100%">
<g id="Icon">
<path d="M22.9191 0C23.1375 0 23.2721 0.245465 23.1573 0.436523L11.673 19.5674C11.512 19.8359 11.226 19.9998 10.9181 20H7.5841C7.36573 20 7.23124 19.7545 7.34582 19.5635L18.8292 0.432617C18.9903 0.163978 19.2769 0 19.5851 0H22.9191Z" fill="var(--fill-0, black)"/>
<path d="M24.3312 0.932617C24.4488 0.737243 24.7237 0.731787 24.8497 0.922852L30.3702 9.33496C30.6181 9.71268 30.6284 10.204 30.3946 10.5918L25.0255 19.5088C24.8421 19.8132 24.519 19.9989 24.1691 19.999H20.9191C20.6908 19.9989 20.5506 19.7412 20.671 19.543L26.0216 10.6582C26.247 10.2848 26.2375 9.80919 25.9982 9.44434L22.7189 4.44824C22.5607 4.207 22.5536 3.89203 22.7032 3.64355L24.3312 0.932617Z" fill="var(--fill-0, black)"/>
<path d="M10.2169 0.00195312C10.4508 0.00195312 10.5892 0.26856 10.4591 0.466797L4.56555 9.44727C4.3261 9.81214 4.31803 10.2862 4.54211 10.6611L7.63977 15.8066C7.78403 16.0451 7.78403 16.347 7.63977 16.5869L5.97473 19.3623C5.8543 19.562 5.57178 19.5633 5.45129 19.3623L0.169062 10.5918C-0.0646565 10.204 -0.055306 9.71268 0.1925 9.33496L6.02062 0.457031C6.2083 0.172605 6.52086 0.0019716 6.85559 0.00195312H10.2169Z" fill="var(--fill-0, black)"/>
</g>
</svg>