<?xml version="1.0" encoding="utf-8"?>
<svg xmlns="http://www.w3.org/2000/svg" fill="none" height="100%" overflow="visible" preserveAspectRatio="none" style="display: block;" viewBox="0 0 326 207.817" width="100%">
<g id="Vector">
<path d="M244.463 0C246.794 0 248.228 2.55255 247.003 4.53787L124.498 203.324C122.78 206.115 119.732 207.817 116.445 207.817H80.889C78.5585 207.817 77.1243 205.264 78.3493 203.279L200.84 4.49309C202.558 1.7017 205.605 0 208.892 0H244.463Z" fill="var(--fill-0, #1900FF)"/>
<path d="M81.5056 172.32L63.7274 201.189C62.4426 203.264 59.4248 203.279 58.14 201.189L1.80257 110.058C-0.692349 106.028 -0.587772 100.923 2.05655 96.9971L64.2204 4.73193C66.2224 1.77634 69.5539 0 73.1245 0H108.98C111.475 0 112.954 2.77646 111.564 4.83642L48.6981 98.1465C46.1435 101.938 46.0538 106.864 48.4442 110.76L81.4907 164.229C83.0295 166.707 83.0295 169.842 81.4907 172.335L81.5056 172.32Z" fill="var(--fill-0, #1900FF)"/>
<path d="M324.197 110.044L266.934 202.697C264.977 205.862 261.526 207.787 257.791 207.787H223.131C220.696 207.787 219.202 205.115 220.486 203.055L277.556 110.73C279.961 106.849 279.857 101.909 277.302 98.117L242.328 46.2001C240.64 43.6924 240.565 40.4233 242.164 37.8409L259.524 9.67324C260.779 7.64314 263.707 7.58343 265.051 9.56875L323.943 96.9825C326.588 100.908 326.692 106.014 324.197 110.044Z" fill="var(--fill-0, #1900FF)"/>
</g>
</svg>