<?xml version="1.0" encoding="utf-8"?>
<svg xmlns="http://www.w3.org/2000/svg" fill="none" height="100%" overflow="visible" preserveAspectRatio="none" style="display: block;" viewBox="0 0 24.0462 24.0462" width="100%">
<path d="M21.8197 0H2.2265C1.636 0 1.06968 0.234577 0.652127 0.652127C0.234577 1.06968 0 1.636 0 2.2265V21.8197C0 22.4102 0.234577 22.9765 0.652127 23.3941C1.06968 23.8116 1.636 24.0462 2.2265 24.0462H21.8197C22.4102 24.0462 22.9765 23.8116 23.3941 23.3941C23.8116 22.9765 24.0462 22.4102 24.0462 21.8197V2.2265C24.0462 1.636 23.8116 1.06968 23.3941 0.652127C22.9765 0.234577 22.4102 0 21.8197 0ZM21.3744 21.3744H2.6718V2.6718H21.3744V21.3744ZM10.2419 17.3667V11.1325C10.2422 10.8549 10.3289 10.5842 10.4901 10.3582C10.6513 10.1321 10.8789 9.96192 11.1412 9.8712C11.4036 9.78047 11.6877 9.77375 11.9541 9.85195C12.2205 9.93016 12.4559 10.0894 12.6276 10.3076C13.3061 9.95192 14.0649 9.77733 14.8307 9.80069C15.5964 9.82405 16.3432 10.0446 16.9988 10.4409C17.6543 10.8373 18.1966 11.3961 18.5731 12.0633C18.9496 12.7305 19.1476 13.4835 19.1479 14.2496V17.3667C19.1479 17.721 19.0072 18.0608 18.7566 18.3113C18.5061 18.5619 18.1663 18.7026 17.812 18.7026C17.4577 18.7026 17.1179 18.5619 16.8674 18.3113C16.6168 18.0608 16.4761 17.721 16.4761 17.3667V14.2496C16.4761 13.7772 16.2884 13.3241 15.9544 12.9901C15.6204 12.6561 15.1673 12.4684 14.6949 12.4684C14.2225 12.4684 13.7694 12.6561 13.4354 12.9901C13.1014 13.3241 12.9137 13.7772 12.9137 14.2496V17.3667C12.9137 17.721 12.773 18.0608 12.5224 18.3113C12.2719 18.5619 11.9321 18.7026 11.5778 18.7026C11.2235 18.7026 10.8837 18.5619 10.6332 18.3113C10.3826 18.0608 10.2419 17.721 10.2419 17.3667ZM8.4607 11.1325V17.3667C8.4607 17.721 8.31995 18.0608 8.06942 18.3113C7.81889 18.5619 7.4791 18.7026 7.1248 18.7026C6.7705 18.7026 6.43071 18.5619 6.18018 18.3113C5.92965 18.0608 5.7889 17.721 5.7889 17.3667V11.1325C5.7889 10.7782 5.92965 10.4384 6.18018 10.1879C6.43071 9.93735 6.7705 9.7966 7.1248 9.7966C7.4791 9.7966 7.81889 9.93735 8.06942 10.1879C8.31995 10.4384 8.4607 10.7782 8.4607 11.1325ZM5.3436 6.6795C5.3436 6.32721 5.44807 5.98284 5.64379 5.68992C5.83951 5.397 6.11769 5.1687 6.44316 5.03389C6.76864 4.89907 7.12678 4.8638 7.47229 4.93252C7.81781 5.00125 8.13519 5.1709 8.3843 5.42C8.6334 5.66911 8.80305 5.98649 8.87177 6.332C8.9405 6.67752 8.90523 7.03566 8.77041 7.36114C8.6356 7.68661 8.4073 7.96479 8.11438 8.16051C7.82146 8.35623 7.47709 8.4607 7.1248 8.4607C6.6524 8.4607 6.19934 8.27304 5.8653 7.939C5.53126 7.60496 5.3436 7.1519 5.3436 6.6795Z" fill="var(--fill-0, black)" id="Vector"/>
</svg>