<?xml version="1.0" encoding="utf-8"?>
<svg xmlns="http://www.w3.org/2000/svg" fill="none" height="100%" overflow="visible" preserveAspectRatio="none" style="display: block;" viewBox="0 0 30 30" width="100%">
<g id="icon">
<path d="M6.9081 23.1303C7.41327 23.6331 8.23052 23.6316 8.73329 23.1264L15.0018 16.8276L21.286 23.1108C21.79 23.6148 22.6072 23.6148 23.1112 23.1108C23.615 22.6068 23.6151 21.7895 23.1112 21.2856L16.8222 14.9985L23.0956 8.69478C23.5984 8.18961 23.5969 7.37236 23.0917 6.86959C22.5866 6.36687 21.7693 6.36848 21.2665 6.8735L14.997 13.1733L8.71376 6.88912C8.20979 6.38515 7.39254 6.38515 6.88857 6.88912C6.38499 7.393 6.38503 8.20943 6.88857 8.71334L13.1767 15.0024L6.90321 21.3051C6.4005 21.8103 6.40303 22.6276 6.9081 23.1303Z" fill="var(--fill-0, black)" id="Close"/>
</g>
</svg>