<?xml version="1.0" encoding="utf-8"?>
<svg xmlns="http://www.w3.org/2000/svg" fill="none" height="100%" overflow="visible" preserveAspectRatio="none" style="display: block;" viewBox="0 0 25.6 25.6" width="100%">
<g id="icon">
<path d="M20.8373 3.38152H5.16272C4.69032 3.38152 4.23726 3.56918 3.90322 3.90322C3.56918 4.23726 3.38152 4.69032 3.38152 5.16272V20.8373C3.38152 21.3097 3.56918 21.7627 3.90322 22.0968C4.23726 22.4308 4.69032 22.6185 5.16272 22.6185H20.8373C21.3097 22.6185 21.7627 22.4308 22.0968 22.0968C22.4308 21.7627 22.6185 21.3097 22.6185 20.8373V5.16272C22.6185 4.69032 22.4308 4.23726 22.0968 3.90322C21.7627 3.56918 21.3097 3.38152 20.8373 3.38152ZM20.481 20.481H5.51896V5.51896H20.481V20.481ZM11.575 17.2749V12.2875C11.5752 12.0654 11.6446 11.8489 11.7736 11.6681C11.9025 11.4872 12.0846 11.3511 12.2945 11.2785C12.5044 11.2059 12.7317 11.2005 12.9448 11.2631C13.1579 11.3256 13.3462 11.4531 13.4836 11.6276C14.0264 11.3431 14.6335 11.2034 15.2461 11.2221C15.8586 11.2408 16.4561 11.4172 16.9805 11.7343C17.505 12.0513 17.9388 12.4984 18.24 13.0321C18.5412 13.5659 18.6996 14.1683 18.6998 14.7812V17.2749C18.6998 17.5583 18.5872 17.8302 18.3868 18.0306C18.1864 18.231 17.9146 18.3436 17.6311 18.3436C17.3477 18.3436 17.0758 18.231 16.8754 18.0306C16.675 17.8302 16.5624 17.5583 16.5624 17.2749V14.7812C16.5624 14.4033 16.4123 14.0408 16.145 13.7736C15.8778 13.5064 15.5154 13.3562 15.1374 13.3562C14.7595 13.3562 14.3971 13.5064 14.1298 13.7736C13.8626 14.0408 13.7125 14.4033 13.7125 14.7812V17.2749C13.7125 17.5583 13.5999 17.8302 13.3995 18.0306C13.199 18.231 12.9272 18.3436 12.6438 18.3436C12.3603 18.3436 12.0885 18.231 11.8881 18.0306C11.6876 17.8302 11.575 17.5583 11.575 17.2749ZM10.1501 12.2875V17.2749C10.1501 17.5583 10.0375 17.8302 9.83706 18.0306C9.63664 18.231 9.3648 18.3436 9.08136 18.3436C8.79792 18.3436 8.52608 18.231 8.32566 18.0306C8.12524 17.8302 8.01264 17.5583 8.01264 17.2749V12.2875C8.01264 12.0041 8.12524 11.7322 8.32566 11.5318C8.52608 11.3314 8.79792 11.2188 9.08136 11.2188C9.3648 11.2188 9.63664 11.3314 9.83706 11.5318C10.0375 11.7322 10.1501 12.0041 10.1501 12.2875ZM7.6564 8.72512C7.6564 8.44329 7.73997 8.16779 7.89655 7.93345C8.05313 7.69912 8.27567 7.51648 8.53605 7.40863C8.79643 7.30078 9.08294 7.27256 9.35936 7.32754C9.63577 7.38252 9.88967 7.51824 10.089 7.71752C10.2882 7.91681 10.424 8.17071 10.4789 8.44712C10.5339 8.72354 10.5057 9.01005 10.3979 9.27043C10.29 9.53081 10.1074 9.75335 9.87303 9.90993C9.63869 10.0665 9.36319 10.1501 9.08136 10.1501C8.70344 10.1501 8.34099 9.99995 8.07376 9.73272C7.80653 9.46549 7.6564 9.10304 7.6564 8.72512Z" fill="var(--fill-0, black)" id="Vector"/>
</g>
</svg>