<?xml version="1.0" encoding="utf-8"?>
<svg xmlns="http://www.w3.org/2000/svg" fill="none" height="100%" overflow="visible" preserveAspectRatio="none" style="display: block;" viewBox="0 0 32 32" width="100%">
<g id="icon">
<path d="M29.1149 5.07093H2.88511C2.59526 5.07093 2.31727 5.18607 2.11231 5.39103C1.90735 5.59599 1.79221 5.87398 1.79221 6.16383V24.7433C1.79221 25.323 2.0225 25.8789 2.43242 26.2889C2.84234 26.6988 3.39831 26.9291 3.97802 26.9291H28.022C28.6017 26.9291 29.1577 26.6988 29.5676 26.2889C29.9775 25.8789 30.2078 25.323 30.2078 24.7433V6.16383C30.2078 5.87398 30.0926 5.59599 29.8877 5.39103C29.6827 5.18607 29.4047 5.07093 29.1149 5.07093ZM16 16.7036L5.69525 7.25674H26.3047L16 16.7036ZM11.9986 16L3.97802 23.3512V8.64883L11.9986 16ZM13.6161 17.4823L15.2555 18.9918C15.4571 19.1769 15.7208 19.2796 15.9945 19.2796C16.2682 19.2796 16.532 19.1769 16.7336 18.9918L18.373 17.4823L26.2966 24.7433H5.69525L13.6161 17.4823ZM20.0014 16L28.022 8.64747V23.3525L20.0014 16Z" fill="var(--fill-0, black)" id="Vector"/>
</g>
</svg>