<?xml version="1.0" encoding="utf-8"?>
<svg xmlns="http://www.w3.org/2000/svg" fill="none" height="100%" overflow="visible" preserveAspectRatio="none" style="display: block;" viewBox="0 0 22.275 22.275" width="100%">
<g id="Vector">
<path d="M22.275 0.928125V5.56875C22.275 5.8149 22.1772 6.05098 22.0032 6.22503C21.8291 6.39909 21.593 6.49687 21.3469 6.49687C21.1007 6.49687 20.8646 6.39909 20.6906 6.22503C20.5165 6.05098 20.4187 5.8149 20.4187 5.56875V1.85625H16.7062C16.4601 1.85625 16.224 1.75847 16.05 1.58441C15.8759 1.41035 15.7781 1.17428 15.7781 0.928125C15.7781 0.681971 15.8759 0.445899 16.05 0.271842C16.224 0.0977845 16.4601 0 16.7062 0H21.3469C21.593 0 21.8291 0.0977845 22.0032 0.271842C22.1772 0.445899 22.275 0.681971 22.275 0.928125ZM5.56875 20.4187H1.85625V16.7062C1.85625 16.4601 1.75847 16.224 1.58441 16.05C1.41035 15.8759 1.17428 15.7781 0.928125 15.7781C0.681971 15.7781 0.445899 15.8759 0.271842 16.05C0.0977845 16.224 0 16.4601 0 16.7062V21.3469C0 21.593 0.0977845 21.8291 0.271842 22.0032C0.445899 22.1772 0.681971 22.275 0.928125 22.275H5.56875C5.8149 22.275 6.05098 22.1772 6.22503 22.0032C6.39909 21.8291 6.49687 21.593 6.49687 21.3469C6.49687 21.1007 6.39909 20.8646 6.22503 20.6906C6.05098 20.5165 5.8149 20.4187 5.56875 20.4187ZM21.3469 15.7781C21.1007 15.7781 20.8646 15.8759 20.6906 16.05C20.5165 16.224 20.4187 16.4601 20.4187 16.7062V20.4187H16.7062C16.4601 20.4187 16.224 20.5165 16.05 20.6906C15.8759 20.8646 15.7781 21.1007 15.7781 21.3469C15.7781 21.593 15.8759 21.8291 16.05 22.0032C16.224 22.1772 16.4601 22.275 16.7062 22.275H21.3469C21.593 22.275 21.8291 22.1772 22.0032 22.0032C22.1772 21.8291 22.275 21.593 22.275 21.3469V16.7062C22.275 16.4601 22.1772 16.224 22.0032 16.05C21.8291 15.8759 21.593 15.7781 21.3469 15.7781ZM0.928125 6.49687C1.17428 6.49687 1.41035 6.39909 1.58441 6.22503C1.75847 6.05098 1.85625 5.8149 1.85625 5.56875V1.85625H5.56875C5.8149 1.85625 6.05098 1.75847 6.22503 1.58441C6.39909 1.41035 6.49687 1.17428 6.49687 0.928125C6.49687 0.681971 6.39909 0.445899 6.22503 0.271842C6.05098 0.0977845 5.8149 0 5.56875 0H0.928125C0.681971 0 0.445899 0.0977845 0.271842 0.271842C0.0977845 0.445899 0 0.681971 0 0.928125V5.56875C0 5.8149 0.0977845 6.05098 0.271842 6.22503C0.445899 6.39909 0.681971 6.49687 0.928125 6.49687Z" fill="var(--fill-0, #1900FF)"/>
<path d="M13.5811 13.3858C14.3046 12.817 14.8327 12.0368 15.0921 11.1538C15.3515 10.2709 15.3291 9.32901 15.0282 8.45933C14.7273 7.58965 14.1627 6.83541 13.4131 6.30157C12.6635 5.76774 11.7661 5.48086 10.8458 5.48086C9.92553 5.48086 9.02814 5.76774 8.27853 6.30157C7.52891 6.83541 6.96435 7.58965 6.66342 8.45933C6.36248 9.32901 6.34014 10.2709 6.5995 11.1538C6.85886 12.0368 7.38701 12.817 8.11047 13.3858C6.94702 13.8602 5.9189 14.6148 5.11759 15.5826C4.99174 15.7324 4.93056 15.9261 4.9475 16.121C4.96445 16.316 5.05813 16.4962 5.20795 16.622C5.35777 16.7479 5.55145 16.8091 5.74638 16.7921C5.94131 16.7752 6.12152 16.6815 6.24738 16.5317C7.08887 15.5298 8.57148 14.3361 10.8458 14.3361C13.1201 14.3361 14.6027 15.5298 15.4442 16.5317C15.5701 16.6815 15.7503 16.7752 15.9452 16.7921C16.1402 16.8091 16.3338 16.7479 16.4837 16.622C16.6335 16.4962 16.7272 16.316 16.7441 16.121C16.761 15.9261 16.6999 15.7324 16.574 15.5826C15.7729 14.6147 14.7447 13.8599 13.5811 13.3858ZM7.89533 9.91035C7.89533 9.3268 8.06838 8.75636 8.39258 8.27116C8.71678 7.78596 9.17758 7.40779 9.71671 7.18447C10.2558 6.96116 10.8491 6.90273 11.4214 7.01658C11.9937 7.13042 12.5195 7.41143 12.9321 7.82406C13.3447 8.23669 13.6257 8.76241 13.7396 9.33474C13.8534 9.90708 13.795 10.5003 13.5717 11.0394C13.3484 11.5786 12.9702 12.0394 12.485 12.3636C11.9998 12.6878 11.4293 12.8608 10.8458 12.8608C10.0635 12.86 9.31355 12.5489 8.76041 11.9957C8.20726 11.4426 7.89615 10.6926 7.89533 9.91035ZM19.7273 12.1533L17.7603 14.1203C17.6918 14.1891 17.6104 14.2436 17.5207 14.2809C17.4311 14.3181 17.3349 14.3372 17.2379 14.3372C17.1408 14.3372 17.0447 14.3181 16.955 14.2809C16.8653 14.2436 16.7839 14.1891 16.7154 14.1203L15.7319 13.1368C15.5933 12.9982 15.5155 12.8103 15.5155 12.6143C15.5155 12.4184 15.5933 12.2304 15.7319 12.0919C15.8705 11.9533 16.0584 11.8754 16.2544 11.8754C16.4503 11.8754 16.6383 11.9533 16.7769 12.0919L17.2385 12.5535L18.6836 11.1077C18.7522 11.0391 18.8337 10.9847 18.9233 10.9476C19.013 10.9104 19.109 10.8913 19.2061 10.8913C19.3031 10.8913 19.3992 10.9104 19.4888 10.9476C19.5785 10.9847 19.6599 11.0391 19.7286 11.1077C19.7972 11.1764 19.8516 11.2578 19.8887 11.3475C19.9259 11.4371 19.945 11.5332 19.945 11.6302C19.945 11.7273 19.9259 11.8233 19.8887 11.913C19.8516 12.0026 19.7972 12.0841 19.7286 12.1527L19.7273 12.1533Z" fill="var(--fill-0, #1900FF)"/>
</g>
</svg>