<?xml version="1.0" encoding="utf-8"?>
<svg xmlns="http://www.w3.org/2000/svg" fill="none" height="100%" overflow="visible" preserveAspectRatio="none" style="display: block;" viewBox="0 0 31.6611 31.6611" width="100%">
<g id="Avatar">
<rect fill="var(--fill-0, white)" height="31.6611" rx="4.87094" width="31.6611"/>
<rect height="31.0522" rx="4.56651" stroke="var(--stroke-0, #969695)" stroke-opacity="0.24" stroke-width="0.608867" width="31.0522" x="0.304434" y="0.304434"/>
<g clip-path="url(#clip0_0_4584)" id="Logo">
<path clip-rule="evenodd" d="M18.5366 11.7806C17.7356 11.2454 16.7938 10.9597 15.8305 10.9597V6.08875C17.7572 6.08875 19.6407 6.6601 21.2428 7.73055C22.8448 8.801 24.0934 10.3225 24.8308 12.1026C25.5681 13.8826 25.761 15.8414 25.3852 17.7312C25.0093 19.6209 24.0814 21.3568 22.719 22.7192C21.3566 24.0816 19.6207 25.0094 17.731 25.3853C15.8413 25.7612 13.8825 25.5683 12.1024 24.831C10.3223 24.0936 8.80084 22.845 7.73039 21.2429C6.65994 19.6409 6.08859 17.7574 6.08859 15.8306H10.9595C10.9595 16.794 11.2452 17.7357 11.7804 18.5368C12.3156 19.3378 13.0764 19.9621 13.9665 20.3308C14.8565 20.6995 15.8359 20.7959 16.7807 20.6079C17.7256 20.42 18.5935 19.9561 19.2748 19.2749C19.956 18.5937 20.4199 17.7258 20.6078 16.7809C20.7958 15.836 20.6993 14.8566 20.3306 13.9666C19.9619 13.0766 19.3376 12.3158 18.5366 11.7806Z" fill="var(--fill-0, #1B1B1D)" fill-rule="evenodd" id="Vector"/>
<path clip-rule="evenodd" d="M10.9593 6.08875C10.9593 6.72839 10.8334 7.36176 10.5886 7.9527C10.3438 8.54365 9.98502 9.0806 9.53273 9.53289C9.08044 9.98518 8.54349 10.344 7.95254 10.5887C7.3616 10.8335 6.72822 10.9595 6.08859 10.9595L6.08859 15.8302C7.36786 15.8302 8.6346 15.5783 9.8165 15.0887C10.9984 14.5992 12.0723 13.8816 12.9768 12.977C13.8814 12.0725 14.599 10.9986 15.0886 9.81666C15.5781 8.63477 15.8301 7.36802 15.8301 6.08875L10.9593 6.08875Z" fill="var(--fill-0, #1B1B1D)" fill-rule="evenodd" id="Vector_2"/>
</g>
</g>
<defs>
<clipPath id="clip0_0_4584">
<rect fill="white" height="19.4838" transform="translate(6.08867 6.08867)" width="19.4838"/>
</clipPath>
</defs>
</svg>