<?xml version="1.0" encoding="utf-8"?>
<svg xmlns="http://www.w3.org/2000/svg" fill="none" height="100%" overflow="visible" preserveAspectRatio="none" style="display: block;" viewBox="0 0 14.0597 10.315" width="100%">
<path d="M7.49692 7.3664C8.23174 6.90873 8.79751 6.22419 9.10864 5.41633C9.41976 4.60848 9.45931 3.72127 9.2213 2.88894C8.9833 2.0566 8.48068 1.32443 7.7895 0.80319C7.09831 0.281949 6.25617 0 5.39047 0C4.52478 0 3.68264 0.281949 2.99145 0.80319C2.30027 1.32443 1.79765 2.0566 1.55964 2.88894C1.32163 3.72127 1.36118 4.60848 1.67231 5.41633C1.98343 6.22419 2.54921 6.90873 3.28403 7.3664C2.07407 7.7625 0.985395 8.50254 0.110004 9.54434C0.029973 9.63952 -0.00896914 9.76259 0.00174461 9.88649C0.0124584 10.0104 0.0719504 10.1249 0.167133 10.205C0.262316 10.285 0.385392 10.324 0.509287 10.3132C0.633182 10.3025 0.747747 10.243 0.827778 10.1479C2.00375 8.74394 3.62446 7.97109 5.38754 7.97109C7.15063 7.97109 8.77133 8.74394 9.95024 10.1479C10.0303 10.243 10.1448 10.3025 10.2687 10.3132C10.3926 10.324 10.5157 10.285 10.6109 10.205C10.7061 10.1249 10.7656 10.0104 10.7763 9.88649C10.787 9.76259 10.748 9.63952 10.668 9.54434C9.79262 8.50254 8.70395 7.7625 7.49692 7.3664ZM2.34067 3.98672C2.34067 3.3841 2.51936 2.79502 2.85416 2.29397C3.18895 1.79291 3.66481 1.40238 4.22156 1.17177C4.7783 0.941162 5.39092 0.880824 5.98196 0.998388C6.573 1.11595 7.1159 1.40614 7.54201 1.83225C7.96812 2.25837 8.25831 2.80127 8.37587 3.3923C8.49344 3.98334 8.4331 4.59596 8.20249 5.15271C7.97188 5.70945 7.58135 6.18531 7.0803 6.5201C6.57924 6.8549 5.99016 7.03359 5.38754 7.03359C4.57975 7.03266 3.8053 6.71135 3.23411 6.14016C2.66291 5.56896 2.3416 4.79451 2.34067 3.98672ZM13.9223 5.95898L12.0473 7.83398C12.0038 7.87757 11.9521 7.91214 11.8952 7.93573C11.8383 7.95932 11.7773 7.97146 11.7157 7.97146C11.6541 7.97146 11.5931 7.95932 11.5362 7.93573C11.4793 7.91214 11.4276 7.87757 11.384 7.83398L10.4465 6.89648C10.3586 6.80853 10.3092 6.68923 10.3092 6.56484C10.3092 6.44045 10.3586 6.32116 10.4465 6.2332C10.5345 6.14525 10.6538 6.09583 10.7782 6.09583C10.9026 6.09583 11.0219 6.14525 11.1098 6.2332L11.7157 6.83965L13.259 5.2957C13.347 5.20775 13.4663 5.15833 13.5907 5.15833C13.7151 5.15833 13.8344 5.20775 13.9223 5.2957C14.0103 5.38366 14.0597 5.50295 14.0597 5.62734C14.0597 5.75173 14.0103 5.87103 13.9223 5.95898Z" fill="var(--fill-0, #1900FF)" id="Vector"/>
</svg>