<?xml version="1.0" encoding="utf-8"?>
<svg xmlns="http://www.w3.org/2000/svg" fill="none" height="100%" overflow="visible" preserveAspectRatio="none" style="display: block;" viewBox="0 0 323.892 160.539" width="100%">
<g filter="url(#filter0_d_0_4554)" id="Union">
<path d="M265.392 20.5C275.333 20.5 283.392 28.5589 283.392 38.5V102.039C283.392 111.98 275.333 120.039 265.392 120.039H62.5245C54.4259 120.039 47.5763 114.69 45.3156 107.333C38.4024 109.106 30.4379 109.736 21.7238 108.151C26.5329 106.09 45.0816 93.7238 44.3947 68.9922C44.4364 69.0496 44.481 69.105 44.5245 69.1611V38.5C44.5245 28.5589 52.5834 20.5 62.5245 20.5H265.392Z" fill="var(--fill-0, white)"/>
<path d="M265.392 20.5V20V20.5ZM283.392 38.5H283.892V38.5H283.392ZM265.392 120.039V120.539V120.039ZM45.3156 107.333L45.7935 107.186L45.6534 106.73L45.1913 106.849L45.3156 107.333ZM21.7238 108.151L21.5268 107.692L20 108.346L21.6343 108.643L21.7238 108.151ZM44.3947 68.9922L44.799 68.6981L43.8501 67.3933L43.8949 69.0061L44.3947 68.9922ZM44.5245 69.1611L44.1296 69.4677L45.0245 70.6208V69.1611H44.5245ZM265.392 20.5V21C275.057 21 282.892 28.835 282.892 38.5H283.392H283.892C283.892 28.2827 275.609 20 265.392 20V20.5ZM283.392 38.5H282.892V102.039H283.392H283.892V38.5H283.392ZM283.392 102.039H282.892C282.892 111.704 275.057 119.539 265.392 119.539V120.039V120.539C275.609 120.539 283.892 112.256 283.892 102.039H283.392ZM265.392 120.039V119.539H62.5245V120.039V120.539H265.392V120.039ZM62.5245 120.039V119.539C54.6516 119.539 47.9916 114.34 45.7935 107.186L45.3156 107.333L44.8376 107.48C47.161 115.041 54.2002 120.539 62.5245 120.539V120.039ZM45.3156 107.333L45.1913 106.849C38.3411 108.606 30.4496 109.23 21.8132 107.659L21.7238 108.151L21.6343 108.643C30.4261 110.242 38.4637 109.607 45.4398 107.817L45.3156 107.333ZM21.7238 108.151L21.9207 108.611C24.4019 107.548 30.3075 103.89 35.5107 97.3856C40.7237 90.8692 45.2418 81.4821 44.8945 68.9783L44.3947 68.9922L43.8949 69.0061C44.2345 81.2339 39.8217 90.3959 34.7298 96.7609C29.6281 103.138 23.8548 106.694 21.5268 107.692L21.7238 108.151ZM44.3947 68.9922L43.9903 69.2863C44.0382 69.3521 44.0931 69.4207 44.1296 69.4677L44.5245 69.1611L44.9195 68.8546C44.8688 68.7893 44.8347 68.7471 44.799 68.6981L44.3947 68.9922ZM44.5245 69.1611H45.0245V38.5H44.5245H44.0245V69.1611H44.5245ZM44.5245 38.5H45.0245C45.0245 28.835 52.8596 21 62.5245 21V20.5V20C52.3073 20 44.0245 28.2827 44.0245 38.5H44.5245ZM62.5245 20.5V21H265.392V20.5V20H62.5245V20.5Z" fill="var(--stroke-0, #CFCFD5)"/>
</g>
<defs>
<filter color-interpolation-filters="sRGB" filterUnits="userSpaceOnUse" height="160.539" id="filter0_d_0_4554" width="323.892" x="-4.76837e-07" y="0">
<feFlood flood-opacity="0" result="BackgroundImageFix"/>
<feColorMatrix in="SourceAlpha" result="hardAlpha" type="matrix" values="0 0 0 0 0 0 0 0 0 0 0 0 0 0 0 0 0 0 127 0"/>
<feOffset dx="10" dy="10"/>
<feGaussianBlur stdDeviation="15"/>
<feComposite in2="hardAlpha" operator="out"/>
<feColorMatrix type="matrix" values="0 0 0 0 0 0 0 0 0 0 0 0 0 0 0 0 0 0 0.12 0"/>
<feBlend in2="BackgroundImageFix" mode="normal" result="effect1_dropShadow_0_4554"/>
<feBlend in="SourceGraphic" in2="effect1_dropShadow_0_4554" mode="normal" result="shape"/>
</filter>
</defs>
</svg>