<?xml version="1.0" encoding="utf-8"?>
<svg xmlns="http://www.w3.org/2000/svg" fill="none" height="100%" overflow="visible" preserveAspectRatio="none" style="display: block;" viewBox="0 0 491 313" width="100%">
<g id="Vector">
<path d="M368.195 0C371.705 0 373.865 3.84449 372.02 6.83465L187.511 306.233C184.923 310.437 180.333 313 175.383 313H121.83C118.32 313 116.16 309.156 118.005 306.165L302.491 6.7672C305.079 2.56299 309.669 0 314.62 0H368.195Z" fill="var(--fill-0, #1900FF)"/>
<path d="M122.758 259.537L95.9821 303.018C94.047 306.143 89.5018 306.165 87.5667 303.018L2.71492 165.763C-1.04277 159.693 -0.885263 152.004 3.09744 146.091L96.7247 7.12692C99.7398 2.67541 104.758 0 110.135 0H164.138C167.896 0 170.123 4.18173 168.031 7.2843L73.346 147.822C69.4983 153.532 69.3633 160.952 72.9635 166.819L122.736 247.351C125.054 251.083 125.054 255.805 122.736 259.559L122.758 259.537Z" fill="var(--fill-0, #1900FF)"/>
<path d="M488.285 165.741L402.038 305.289C399.091 310.055 393.893 312.956 388.268 312.956H336.065C332.397 312.956 330.147 308.931 332.082 305.829L418.037 166.775C421.659 160.93 421.502 153.488 417.654 147.777L364.979 69.5836C362.436 65.8066 362.324 60.883 364.731 56.9935L390.878 14.5692C392.768 11.5116 397.178 11.4217 399.203 14.4118L487.903 146.069C491.885 151.982 492.043 159.671 488.285 165.741Z" fill="var(--fill-0, #1900FF)"/>
</g>
</svg>