<?xml version="1.0" encoding="utf-8"?>
<svg xmlns="http://www.w3.org/2000/svg" fill="none" height="100%" overflow="visible" preserveAspectRatio="none" style="display: block;" viewBox="0 0 31.6611 31.6611" width="100%">
<g id="Avatar">
<rect fill="var(--fill-0, white)" height="31.6611" rx="4.87094" width="31.6611"/>
<rect height="31.0522" rx="4.56651" stroke="var(--stroke-0, #969695)" stroke-opacity="0.24" stroke-width="0.608867" width="31.0522" x="0.304434" y="0.304434"/>
<g clip-path="url(#clip0_0_4550)" id="Logo">
<path clip-rule="evenodd" d="M18.5363 11.7805C17.7353 11.2453 16.7935 10.9596 15.8302 10.9596V6.0887C17.7569 6.0887 19.6404 6.66005 21.2425 7.7305C22.8445 8.80095 24.0931 10.3224 24.8305 12.1025C25.5678 13.8826 25.7607 15.8414 25.3848 17.7311C25.009 19.6209 24.0811 21.3567 22.7187 22.7191C21.3563 24.0816 19.6204 25.0094 17.7307 25.3853C15.841 25.7612 13.8822 25.5682 12.1021 24.8309C10.322 24.0935 8.80054 22.8449 7.73009 21.2429C6.65964 19.6408 6.08829 17.7573 6.08829 15.8306H10.9592C10.9592 16.794 11.2449 17.7357 11.7801 18.5367C12.3153 19.3378 13.0761 19.9621 13.9662 20.3307C14.8562 20.6994 15.8356 20.7959 16.7804 20.6079C17.7253 20.42 18.5932 19.9561 19.2745 19.2749C19.9557 18.5936 20.4196 17.7257 20.6075 16.7808C20.7955 15.836 20.699 14.8566 20.3303 13.9666C19.9616 13.0765 19.3373 12.3158 18.5363 11.7805Z" fill="var(--fill-0, #1B1B1D)" fill-rule="evenodd" id="Vector"/>
<path clip-rule="evenodd" d="M10.959 6.0887C10.959 6.72834 10.833 7.36171 10.5883 7.95266C10.3435 8.5436 9.98472 9.08055 9.53242 9.53284C9.08013 9.98513 8.54319 10.3439 7.95224 10.5887C7.36129 10.8335 6.72792 10.9594 6.08829 10.9594L6.08829 15.8302C7.36756 15.8302 8.6343 15.5782 9.8162 15.0887C10.9981 14.5991 12.072 13.8816 12.9765 12.977C13.8811 12.0724 14.5987 10.9985 15.0883 9.81661C15.5778 8.63472 15.8298 7.36797 15.8298 6.0887L10.959 6.0887Z" fill="var(--fill-0, #1B1B1D)" fill-rule="evenodd" id="Vector_2"/>
</g>
</g>
<defs>
<clipPath id="clip0_0_4550">
<rect fill="white" height="19.4838" transform="translate(6.08867 6.08867)" width="19.4838"/>
</clipPath>
</defs>
</svg>