<?xml version="1.0" encoding="utf-8"?>
<svg xmlns="http://www.w3.org/2000/svg" fill="none" height="100%" overflow="visible" preserveAspectRatio="none" style="display: block;" viewBox="0 0 30 30" width="100%">
<g id="icon">
<path d="M26.7188 15C26.7188 15.373 26.5706 15.7307 26.3069 15.9944C26.0431 16.2581 25.6855 16.4063 25.3125 16.4063H4.6875C4.31454 16.4063 3.95686 16.2581 3.69313 15.9944C3.42941 15.7307 3.28125 15.373 3.28125 15C3.28125 14.627 3.42941 14.2694 3.69313 14.0056C3.95686 13.7419 4.31454 13.5938 4.6875 13.5938H25.3125C25.6855 13.5938 26.0431 13.7419 26.3069 14.0056C26.5706 14.2694 26.7188 14.627 26.7188 15ZM4.6875 8.90626H25.3125C25.6855 8.90626 26.0431 8.7581 26.3069 8.49438C26.5706 8.23065 26.7188 7.87297 26.7188 7.50001C26.7188 7.12705 26.5706 6.76936 26.3069 6.50564C26.0431 6.24192 25.6855 6.09376 25.3125 6.09376H4.6875C4.31454 6.09376 3.95686 6.24192 3.69313 6.50564C3.42941 6.76936 3.28125 7.12705 3.28125 7.50001C3.28125 7.87297 3.42941 8.23065 3.69313 8.49438C3.95686 8.7581 4.31454 8.90626 4.6875 8.90626ZM25.3125 21.0938H4.6875C4.31454 21.0938 3.95686 21.2419 3.69313 21.5056C3.42941 21.7694 3.28125 22.127 3.28125 22.5C3.28125 22.873 3.42941 23.2307 3.69313 23.4944C3.95686 23.7581 4.31454 23.9063 4.6875 23.9063H25.3125C25.6855 23.9063 26.0431 23.7581 26.3069 23.4944C26.5706 23.2307 26.7188 22.873 26.7188 22.5C26.7188 22.127 26.5706 21.7694 26.3069 21.5056C26.0431 21.2419 25.6855 21.0938 25.3125 21.0938Z" fill="var(--fill-0, black)" id="Hamburger"/>
</g>
</svg>