<?xml version="1.0" encoding="utf-8"?>
<svg xmlns="http://www.w3.org/2000/svg" fill="none" height="100%" overflow="visible" preserveAspectRatio="none" style="display: block;" viewBox="0 0 31.6611 31.6611" width="100%">
<g id="Avatar">
<rect fill="var(--fill-0, white)" height="31.6611" rx="4.87094" width="31.6611"/>
<rect height="31.0522" rx="4.56651" stroke="var(--stroke-0, #969695)" stroke-opacity="0.24" stroke-width="0.608867" width="31.0522" x="0.304434" y="0.304434"/>
<g clip-path="url(#clip0_0_4555)" id="Logo">
<path clip-rule="evenodd" d="M18.5363 11.7805C17.7353 11.2452 16.7935 10.9596 15.8302 10.9596V6.08862C17.7569 6.08862 19.6404 6.65997 21.2425 7.73042C22.8445 8.80087 24.0931 10.3223 24.8305 12.1024C25.5678 13.8825 25.7607 15.8413 25.3848 17.731C25.009 19.6208 24.0811 21.3566 22.7187 22.719C21.3563 24.0815 19.6204 25.0093 17.7307 25.3852C15.841 25.7611 13.8822 25.5681 12.1021 24.8308C10.322 24.0935 8.80054 22.8448 7.73009 21.2428C6.65964 19.6407 6.08829 17.7572 6.08829 15.8305H10.9592C10.9592 16.7939 11.2449 17.7356 11.7801 18.5366C12.3153 19.3377 13.0761 19.962 13.9662 20.3307C14.8562 20.6993 15.8356 20.7958 16.7804 20.6078C17.7253 20.4199 18.5932 19.956 19.2745 19.2748C19.9557 18.5935 20.4196 17.7256 20.6075 16.7808C20.7955 15.8359 20.699 14.8565 20.3303 13.9665C19.9616 13.0764 19.3373 12.3157 18.5363 11.7805Z" fill="var(--fill-0, #1B1B1D)" fill-rule="evenodd" id="Vector"/>
<path clip-rule="evenodd" d="M10.959 6.08862C10.959 6.72826 10.833 7.36163 10.5883 7.95257C10.3435 8.54352 9.98472 9.08047 9.53242 9.53276C9.08013 9.98505 8.54319 10.3438 7.95224 10.5886C7.36129 10.8334 6.72792 10.9594 6.08829 10.9594L6.08829 15.8301C7.36756 15.8301 8.6343 15.5781 9.8162 15.0886C10.9981 14.599 12.072 13.8815 12.9765 12.9769C13.8811 12.0723 14.5987 10.9984 15.0883 9.81653C15.5778 8.63463 15.8298 7.36789 15.8298 6.08862L10.959 6.08862Z" fill="var(--fill-0, #1B1B1D)" fill-rule="evenodd" id="Vector_2"/>
</g>
</g>
<defs>
<clipPath id="clip0_0_4555">
<rect fill="white" height="19.4838" transform="translate(6.08867 6.08867)" width="19.4838"/>
</clipPath>
</defs>
</svg>