<?xml version="1.0" encoding="utf-8"?>
<svg xmlns="http://www.w3.org/2000/svg" fill="none" height="100%" overflow="visible" preserveAspectRatio="none" style="display: block;" viewBox="0 0 60 60" width="100%">
<g id="Frame">
<path d="M16.6537 13.2799C16.6531 14.547 16.1439 15.7619 15.2383 16.6574C14.3326 17.5529 13.1046 18.0557 11.8245 18.055C10.5443 18.0544 9.31681 17.5504 8.41205 16.654C7.50729 15.7576 6.99936 14.5422 7 13.2751C7.00064 12.008 7.5098 10.7931 8.41546 9.89761C9.32113 9.0021 10.5491 8.49937 11.8293 8.5C13.1094 8.50063 14.3369 9.00459 15.2417 9.90099C16.1464 10.7974 16.6544 12.0128 16.6537 13.2799V13.2799ZM16.7985 21.5928H7.14481V51.5H16.7985V21.5928ZM32.0514 21.5928H22.446V51.5H31.9549V35.8059C31.9549 27.063 43.4669 26.2508 43.4669 35.8059V51.5H53V32.5572C53 17.8185 35.9612 18.368 31.9549 25.6059L32.0514 21.5928V21.5928Z" fill="var(--fill-0, #1900FF)" id="Vector"/>
</g>
</svg>