<?xml version="1.0" encoding="utf-8"?>
<svg xmlns="http://www.w3.org/2000/svg" fill="none" height="100%" overflow="visible" preserveAspectRatio="none" style="display: block;" viewBox="0 0 43.9738 43.9738" width="100%">
<g id="Avatar">
<rect fill="var(--fill-0, white)" height="43.9738" rx="6.76519" width="43.9738"/>
<rect height="43.1281" rx="6.34237" stroke="var(--stroke-0, #969695)" stroke-opacity="0.24" stroke-width="0.845649" width="43.1281" x="0.422825" y="0.422825"/>
<g clip-path="url(#clip0_0_4612)" id="Logo">
<path clip-rule="evenodd" d="M12.2482 12.4331L2.53707 21.9869C4.47948 23.8979 6.69837 25.5084 9.1176 26.7684C9.78629 28.5134 10.8344 30.1499 12.262 31.5543C17.633 36.8383 26.3411 36.8383 31.712 31.5543C33.1396 30.1499 34.1877 28.5134 34.8564 26.7683C37.2756 25.5084 39.4946 23.8979 41.4369 21.9869L31.7336 12.4409C31.7265 12.4338 31.7193 12.4266 31.712 12.4195C26.3411 7.13555 17.633 7.13555 12.262 12.4195C12.2574 12.424 12.2528 12.4286 12.2482 12.4331ZM30.7827 28.492C27.9528 29.4316 24.982 29.9128 21.987 29.9128C18.992 29.9128 16.0213 29.4316 13.1914 28.492C13.498 28.8922 13.8365 29.2763 14.207 29.6409C18.5038 33.868 25.4702 33.868 29.767 29.6409C30.1375 29.2763 30.4761 28.8922 30.7827 28.492ZM14.4065 14.1416C15.1361 14.6159 15.912 15.0217 16.7238 15.3525C18.3925 16.0325 20.1809 16.3825 21.987 16.3825C23.7931 16.3825 25.5815 16.0325 27.2501 15.3525C28.062 15.0217 28.8378 14.6159 29.5676 14.1416C25.3244 10.1696 18.6496 10.1696 14.4065 14.1416Z" fill="var(--fill-0, #1B1B1D)" fill-rule="evenodd" id="Vector"/>
</g>
</g>
<defs>
<clipPath id="clip0_0_4612">
<rect fill="white" height="27.0608" transform="translate(2.53695 8.45649)" width="38.8999"/>
</clipPath>
</defs>
</svg>