<?xml version="1.0" encoding="utf-8"?>
<svg xmlns="http://www.w3.org/2000/svg" fill="none" height="100%" overflow="visible" preserveAspectRatio="none" style="display: block;" viewBox="0 0 50 50" width="100%">
<g id="Frame">
<path d="M29.6875 23.4375H26.5625V10.9375H28.125C29.7826 10.9375 31.3723 11.596 32.5444 12.7681C33.7165 13.9402 34.375 15.5299 34.375 17.1875C34.375 17.6019 34.5396 17.9993 34.8326 18.2924C35.1257 18.5854 35.5231 18.75 35.9375 18.75C36.3519 18.75 36.7493 18.5854 37.0424 18.2924C37.3354 17.9993 37.5 17.6019 37.5 17.1875C37.4974 14.7019 36.5089 12.3188 34.7513 10.5612C32.9937 8.80364 30.6106 7.81509 28.125 7.8125H26.5625V4.6875C26.5625 4.2731 26.3979 3.87567 26.1049 3.58265C25.8118 3.28962 25.4144 3.125 25 3.125C24.5856 3.125 24.1882 3.28962 23.8951 3.58265C23.6021 3.87567 23.4375 4.2731 23.4375 4.6875V7.8125H21.875C19.3886 7.8125 17.004 8.80022 15.2459 10.5584C13.4877 12.3165 12.5 14.7011 12.5 17.1875C12.5 19.6739 13.4877 22.0585 15.2459 23.8166C17.004 25.5748 19.3886 26.5625 21.875 26.5625H23.4375V39.0625H20.3125C18.6549 39.0625 17.0652 38.404 15.8931 37.2319C14.721 36.0598 14.0625 34.4701 14.0625 32.8125C14.0625 32.3981 13.8979 32.0007 13.6049 31.7076C13.3118 31.4146 12.9144 31.25 12.5 31.25C12.0856 31.25 11.6882 31.4146 11.3951 31.7076C11.1021 32.0007 10.9375 32.3981 10.9375 32.8125C10.9401 35.2981 11.9286 37.6812 13.6862 39.4388C15.4438 41.1964 17.8269 42.1849 20.3125 42.1875H23.4375V45.3125C23.4375 45.7269 23.6021 46.1243 23.8951 46.4174C24.1882 46.7104 24.5856 46.875 25 46.875C25.4144 46.875 25.8118 46.7104 26.1049 46.4174C26.3979 46.1243 26.5625 45.7269 26.5625 45.3125V42.1875H29.6875C32.1739 42.1875 34.5585 41.1998 36.3166 39.4416C38.0748 37.6835 39.0625 35.2989 39.0625 32.8125C39.0625 30.3261 38.0748 27.9415 36.3166 26.1834C34.5585 24.4252 32.1739 23.4375 29.6875 23.4375ZM21.875 23.4375C20.2174 23.4375 18.6277 22.779 17.4556 21.6069C16.2835 20.4348 15.625 18.8451 15.625 17.1875C15.625 15.5299 16.2835 13.9402 17.4556 12.7681C18.6277 11.596 20.2174 10.9375 21.875 10.9375H23.4375V23.4375H21.875ZM29.6875 39.0625H26.5625V26.5625H29.6875C31.3451 26.5625 32.9348 27.221 34.1069 28.3931C35.279 29.5652 35.9375 31.1549 35.9375 32.8125C35.9375 34.4701 35.279 36.0598 34.1069 37.2319C32.9348 38.404 31.3451 39.0625 29.6875 39.0625Z" fill="var(--fill-0, #1900FF)" id="Vector"/>
</g>
</svg>