<?xml version="1.0" encoding="utf-8"?>
<svg xmlns="http://www.w3.org/2000/svg" fill="none" height="100%" overflow="visible" preserveAspectRatio="none" style="display: block;" viewBox="0 0 201.931 96.3236" width="100%">
<g filter="url(#filter0_d_0_4591)" id="Union">
<path d="M166.831 12.3C172.796 12.3 177.631 17.1352 177.631 23.0998V61.2238C177.631 67.1883 172.796 72.0236 166.831 72.0236H37.5147C32.6555 72.0236 28.546 68.8141 27.1896 64.3996C23.0416 65.4635 18.2628 65.8414 13.0343 64.8908C15.9196 63.6542 27.0488 56.2345 26.6368 41.3957C26.6618 41.43 26.6889 41.4627 26.7149 41.4963V23.0998C26.715 17.1352 31.5501 12.3 37.5147 12.3H166.831Z" fill="var(--fill-0, white)"/>
<path d="M177.631 23.0998H177.931V23.0998L177.631 23.0998ZM177.631 61.2238L177.931 61.2238V61.2238H177.631ZM27.1896 64.3996L27.4763 64.3115L27.3923 64.0379L27.115 64.109L27.1896 64.3996ZM13.0343 64.8908L12.9161 64.6151L12 65.0077L12.9806 65.186L13.0343 64.8908ZM26.6368 41.3957L26.8794 41.2192L26.3101 40.4366L26.3369 41.404L26.6368 41.3957ZM26.7149 41.4963L26.4779 41.6802L27.0149 42.3722V41.4963H26.7149ZM26.7149 23.0998L26.4149 23.0998V23.0998H26.7149ZM166.831 12.3V12.6C172.63 12.6 177.331 17.3009 177.331 23.0998L177.631 23.0998L177.931 23.0998C177.931 16.9695 172.961 12 166.831 12V12.3ZM177.631 23.0998H177.331V61.2238H177.631H177.931V23.0998H177.631ZM177.631 61.2238L177.331 61.2238C177.331 67.0226 172.63 71.7236 166.831 71.7236V72.0236V72.3236C172.961 72.3236 177.931 67.354 177.931 61.2238L177.631 61.2238ZM166.831 72.0236V71.7236H37.5147V72.0236V72.3236H166.831V72.0236ZM37.5147 72.0236V71.7236C32.791 71.7236 28.7951 68.6037 27.4763 64.3115L27.1896 64.3996L26.9028 64.4877C28.2968 69.0246 32.5201 72.3236 37.5147 72.3236V72.0236ZM27.1896 64.3996L27.115 64.109C23.0048 65.1633 18.2699 65.5378 13.0879 64.5957L13.0343 64.8908L12.9806 65.186C18.2558 66.1451 23.0784 65.7638 27.2641 64.6902L27.1896 64.3996ZM13.0343 64.8908L13.1525 65.1666C14.6411 64.5286 18.1844 62.3339 21.3063 58.4315C24.4341 54.5217 27.145 48.8896 26.9367 41.3874L26.6368 41.3957L26.3369 41.404C26.5406 48.7406 23.8929 54.2377 20.8378 58.0567C17.7768 61.883 14.3128 64.0165 12.9161 64.6151L13.0343 64.8908ZM26.6368 41.3957L26.3942 41.5722C26.4223 41.6108 26.4604 41.6576 26.4779 41.6802L26.7149 41.4963L26.9519 41.3124C26.9174 41.2679 26.9013 41.2493 26.8794 41.2192L26.6368 41.3957ZM26.7149 41.4963H27.0149V23.0998H26.7149H26.4149V41.4963H26.7149ZM26.7149 23.0998L27.0149 23.0998C27.015 17.3009 31.7158 12.6 37.5147 12.6V12.3V12C31.3844 12 26.415 16.9695 26.4149 23.0998L26.7149 23.0998ZM37.5147 12.3V12.6H166.831V12.3V12H37.5147V12.3Z" fill="var(--stroke-0, #CFCFD5)"/>
</g>
<defs>
<filter color-interpolation-filters="sRGB" filterUnits="userSpaceOnUse" height="96.3236" id="filter0_d_0_4591" width="201.931" x="-4.76837e-07" y="1.78814e-07">
<feFlood flood-opacity="0" result="BackgroundImageFix"/>
<feColorMatrix in="SourceAlpha" result="hardAlpha" type="matrix" values="0 0 0 0 0 0 0 0 0 0 0 0 0 0 0 0 0 0 127 0"/>
<feOffset dx="6" dy="6"/>
<feGaussianBlur stdDeviation="9"/>
<feComposite in2="hardAlpha" operator="out"/>
<feColorMatrix type="matrix" values="0 0 0 0 0 0 0 0 0 0 0 0 0 0 0 0 0 0 0.12 0"/>
<feBlend in2="BackgroundImageFix" mode="normal" result="effect1_dropShadow_0_4591"/>
<feBlend in="SourceGraphic" in2="effect1_dropShadow_0_4591" mode="normal" result="shape"/>
</filter>
</defs>
</svg>