<?xml version="1.0" encoding="utf-8"?>
<svg xmlns="http://www.w3.org/2000/svg" fill="none" height="100%" overflow="visible" preserveAspectRatio="none" style="display: block;" viewBox="0 0 240 153" width="100%">
<g id="Vector">
<path d="M179.973 0C181.689 0 182.745 1.87926 181.843 3.3409L91.6549 149.692C90.3901 151.747 88.1464 153 85.7267 153H59.5502C57.8345 153 56.7786 151.121 57.6805 149.659L147.857 3.30793C149.122 1.25284 151.366 0 153.786 0H179.973Z" fill="var(--fill-0, #1900FF)"/>
<path d="M60.0041 126.866L46.9159 148.121C45.97 149.648 43.7483 149.659 42.8025 148.121L1.32705 81.0278C-0.509705 78.0606 -0.432715 74.302 1.51402 71.4117L47.2789 3.48377C48.7527 1.30779 51.2053 0 53.834 0H80.2304C82.0672 0 83.156 2.0441 82.1332 3.5607L35.8514 72.2579C33.9707 75.0493 33.9047 78.676 35.6644 81.5443L59.9931 120.91C61.126 122.734 61.126 125.042 59.9931 126.877L60.0041 126.866Z" fill="var(--fill-0, #1900FF)"/>
<path d="M238.673 81.0171L196.516 149.231C195.075 151.561 192.534 152.978 189.785 152.978H164.268C162.475 152.978 161.375 151.011 162.321 149.495L204.336 81.5226C206.106 78.6653 206.029 75.0277 204.149 72.2363L178.401 34.0137C177.158 32.1674 177.103 29.7607 178.28 27.8594L191.06 7.12169C191.984 5.62708 194.14 5.58312 195.13 7.04476L238.486 71.401C240.433 74.2914 240.51 78.0499 238.673 81.0171Z" fill="var(--fill-0, #1900FF)"/>
</g>
</svg>