<?xml version="1.0" encoding="utf-8"?>
<svg xmlns="http://www.w3.org/2000/svg" fill="none" height="100%" overflow="visible" preserveAspectRatio="none" style="display: block;" viewBox="0 0 194.335 96.3236" width="100%">
<g filter="url(#filter0_d_0_4547)" id="Union">
<path d="M159.235 12.3C165.2 12.3002 170.035 17.1353 170.035 23.0998V61.2238C170.035 67.1882 165.2 72.0234 159.235 72.0236H37.5147C32.6555 72.0236 28.5459 68.8141 27.1895 64.3996C23.0416 65.4635 18.2628 65.8414 13.0343 64.8908C15.9198 63.6541 27.0488 56.2344 26.6368 41.3957C26.6615 41.4297 26.6882 41.4621 26.7139 41.4953V23.0998C26.714 17.1352 31.5501 12.3 37.5147 12.3H159.235Z" fill="var(--fill-0, white)"/>
<path d="M159.235 12.3L159.235 12H159.235V12.3ZM170.035 23.0998H170.335V23.0998L170.035 23.0998ZM170.035 61.2238L170.335 61.2238V61.2238H170.035ZM159.235 72.0236V72.3236H159.235L159.235 72.0236ZM27.1895 64.3996L27.4763 64.3115L27.3922 64.0379L27.115 64.109L27.1895 64.3996ZM13.0343 64.8908L12.9161 64.6151L12 65.0077L12.9806 65.186L13.0343 64.8908ZM26.6368 41.3957L26.8794 41.2192L26.3101 40.4366L26.3369 41.404L26.6368 41.3957ZM26.7139 41.4953L26.4769 41.6792L27.0139 42.3717V41.4953H26.7139ZM26.7139 23.0998L26.4139 23.0998V23.0998H26.7139ZM159.235 12.3L159.235 12.6C165.034 12.6002 169.735 17.301 169.735 23.0998L170.035 23.0998L170.335 23.0998C170.335 16.9696 165.366 12.0002 159.235 12L159.235 12.3ZM170.035 23.0998H169.735V61.2238H170.035H170.335V23.0998H170.035ZM170.035 61.2238L169.735 61.2238C169.735 67.0225 165.034 71.7234 159.235 71.7236L159.235 72.0236L159.235 72.3236C165.365 72.3234 170.335 67.3538 170.335 61.2238L170.035 61.2238ZM159.235 72.0236V71.7236H37.5147V72.0236V72.3236H159.235V72.0236ZM37.5147 72.0236V71.7236C32.7909 71.7236 28.7951 68.6036 27.4763 64.3115L27.1895 64.3996L26.9028 64.4877C28.2968 69.0246 32.52 72.3236 37.5147 72.3236V72.0236ZM27.1895 64.3996L27.115 64.109C23.0048 65.1633 18.2699 65.5378 13.0879 64.5957L13.0343 64.8908L12.9806 65.186C18.2557 66.1451 23.0784 65.7638 27.2641 64.6902L27.1895 64.3996ZM13.0343 64.8908L13.1524 65.1666C14.6411 64.5285 18.1845 62.3338 21.3063 58.4314C24.4341 54.5216 27.145 48.8895 26.9367 41.3874L26.6368 41.3957L26.3369 41.404C26.5406 48.7406 23.8929 54.2376 20.8378 58.0566C17.7768 61.8829 14.3129 64.0164 12.9161 64.6151L13.0343 64.8908ZM26.6368 41.3957L26.3942 41.5722C26.4222 41.6106 26.4585 41.6555 26.4769 41.6792L26.7139 41.4953L26.951 41.3115C26.9178 41.2687 26.9008 41.2487 26.8794 41.2192L26.6368 41.3957ZM26.7139 41.4953H27.0139V23.0998H26.7139H26.4139V41.4953H26.7139ZM26.7139 23.0998L27.0139 23.0998C27.014 17.3009 31.7158 12.6 37.5147 12.6V12.3V12C31.3844 12 26.414 16.9695 26.4139 23.0998L26.7139 23.0998ZM37.5147 12.3V12.6H159.235V12.3V12H37.5147V12.3Z" fill="var(--stroke-0, #CFCFD5)"/>
</g>
<defs>
<filter color-interpolation-filters="sRGB" filterUnits="userSpaceOnUse" height="96.3236" id="filter0_d_0_4547" width="194.335" x="1.19209e-07" y="1.78814e-07">
<feFlood flood-opacity="0" result="BackgroundImageFix"/>
<feColorMatrix in="SourceAlpha" result="hardAlpha" type="matrix" values="0 0 0 0 0 0 0 0 0 0 0 0 0 0 0 0 0 0 127 0"/>
<feOffset dx="6" dy="6"/>
<feGaussianBlur stdDeviation="9"/>
<feComposite in2="hardAlpha" operator="out"/>
<feColorMatrix type="matrix" values="0 0 0 0 0 0 0 0 0 0 0 0 0 0 0 0 0 0 0.12 0"/>
<feBlend in2="BackgroundImageFix" mode="normal" result="effect1_dropShadow_0_4547"/>
<feBlend in="SourceGraphic" in2="effect1_dropShadow_0_4547" mode="normal" result="shape"/>
</filter>
</defs>
</svg>