<?xml version="1.0" encoding="utf-8"?>
<svg xmlns="http://www.w3.org/2000/svg" fill="none" height="100%" overflow="visible" preserveAspectRatio="none" style="display: block;" viewBox="0 0 60 60" width="100%">
<g id="Frame">
<path d="M43.9645 33.9469L36.4645 30.1969C36.1693 30.0498 35.8405 29.9831 35.5113 30.0037C35.1821 30.0243 34.8641 30.1313 34.5895 30.3141L31.1465 32.6109C29.566 31.7421 28.2654 30.4414 27.3965 28.8609L29.6934 25.418C29.8761 25.1434 29.9832 24.8254 30.0038 24.4962C30.0243 24.167 29.9577 23.8382 29.8106 23.543L26.0606 16.043C25.9052 15.7291 25.6649 15.465 25.3671 15.2807C25.0692 15.0963 24.7257 14.9991 24.3754 15C21.889 15 19.5045 15.9877 17.7463 17.7459C15.9882 19.504 15.0004 21.8886 15.0004 24.375C15.0066 29.8432 17.1816 35.0856 21.0482 38.9522C24.9148 42.8188 30.1573 44.9938 35.6254 45C36.8566 45 38.0757 44.7575 39.2131 44.2864C40.3505 43.8152 41.384 43.1247 42.2546 42.2541C43.1251 41.3836 43.8157 40.3501 44.2868 39.2127C44.7579 38.0752 45.0004 36.8561 45.0004 35.625C45.0007 35.2767 44.9039 34.9351 44.7209 34.6387C44.5379 34.3423 44.276 34.1028 43.9645 33.9469ZM35.6254 41.25C31.1514 41.245 26.8621 39.4655 23.6985 36.3019C20.5349 33.1383 18.7554 28.849 18.7504 24.375C18.7501 23.0745 19.2004 21.814 20.0246 20.8081C20.8489 19.8022 21.9963 19.113 23.2715 18.8578L25.9622 24.2484L23.6723 27.6562C23.5012 27.9129 23.3961 28.2079 23.3662 28.5149C23.3364 28.8219 23.3827 29.1316 23.5012 29.4164C24.8427 32.6048 27.3792 35.1413 30.5676 36.4828C30.8533 36.6066 31.1653 36.6572 31.4755 36.6302C31.7856 36.6032 32.0842 36.4994 32.3442 36.3281L35.7684 34.0453L41.159 36.7359C40.9018 38.0126 40.2096 39.1605 39.2004 39.9837C38.1913 40.8069 36.9278 41.2545 35.6254 41.25ZM30.0004 5.625C25.7922 5.62408 21.6553 6.71271 17.9926 8.78491C14.3299 10.8571 11.266 13.8423 9.09928 17.4499C6.93254 21.0575 5.73672 25.1647 5.62822 29.3715C5.51972 33.5784 6.50223 37.7417 8.48013 41.4563L5.81997 49.4367C5.59962 50.0975 5.56764 50.8065 5.72762 51.4844C5.8876 52.1623 6.23321 52.7822 6.72571 53.2747C7.21822 53.7672 7.83816 54.1128 8.51605 54.2728C9.19394 54.4328 9.90298 54.4008 10.5637 54.1805L18.5442 51.5203C21.8132 53.259 25.4353 54.2302 29.1357 54.36C32.836 54.4898 36.5173 53.775 39.9001 52.2697C43.2829 50.7644 46.2784 48.5082 48.6591 45.6724C51.0397 42.8366 52.7431 39.4957 53.6398 35.9033C54.5365 32.3109 54.603 28.5614 53.8343 24.9395C53.0656 21.3175 51.4819 17.9183 49.2033 14.9998C46.9248 12.0813 44.0113 9.72028 40.684 8.09591C37.3567 6.47154 33.7031 5.62652 30.0004 5.625ZM30.0004 50.625C26.3746 50.6275 22.8124 49.6726 19.6739 47.857C19.4441 47.7238 19.1886 47.6409 18.9243 47.6138C18.6601 47.5867 18.3931 47.6161 18.1411 47.7L9.37544 50.625L12.2981 41.8594C12.3823 41.6075 12.4121 41.3406 12.3855 41.0763C12.3588 40.8121 12.2763 40.5565 12.1434 40.3266C9.8699 36.3959 8.9571 31.8248 9.5466 27.3224C10.1361 22.82 12.195 18.638 15.4038 15.4251C18.6126 12.2123 22.792 10.1481 27.2936 9.55294C31.7953 8.95776 36.3675 9.86478 40.3011 12.1333C44.2346 14.4019 47.3096 17.9051 49.0489 22.0996C50.7883 26.2941 51.0948 30.9453 49.921 35.3318C48.7471 39.7182 46.1585 43.5947 42.5567 46.3599C38.9549 49.125 34.5413 50.6243 30.0004 50.625Z" fill="var(--fill-0, #1900FF)" id="Vector"/>
</g>
</svg>