<?xml version="1.0" encoding="utf-8"?>
<svg xmlns="http://www.w3.org/2000/svg" fill="none" height="100%" overflow="visible" preserveAspectRatio="none" style="display: block;" viewBox="0 0 55.8765 55.8765" width="100%">
<g id="icon">
<path d="M48.8919 10.4766H6.98458C6.52148 10.4766 6.07734 10.6605 5.74987 10.988C5.42241 11.3155 5.23844 11.7596 5.23844 12.2227V41.9071C5.23844 42.8333 5.60638 43.7216 6.26131 44.3765C6.91624 45.0314 7.80451 45.3994 8.73072 45.3994H47.1458C48.072 45.3994 48.9603 45.0314 49.6152 44.3765C50.2701 43.7216 50.6381 42.8333 50.6381 41.9071V12.2227C50.6381 11.7596 50.4541 11.3155 50.1267 10.988C49.7992 10.6605 49.355 10.4766 48.8919 10.4766ZM44.4022 13.9688L27.9383 29.062L11.4743 13.9688H44.4022ZM47.1458 41.9071H8.73072V16.193L26.7574 32.718C27.0796 33.0137 27.501 33.1778 27.9383 33.1778C28.3756 33.1778 28.7969 33.0137 29.1191 32.718L47.1458 16.193V41.9071Z" fill="var(--fill-0, #1900FF)" id="Vector"/>
</g>
</svg>