<?xml version="1.0" encoding="utf-8"?>
<svg xmlns="http://www.w3.org/2000/svg" fill="none" height="100%" overflow="visible" preserveAspectRatio="none" style="display: block;" viewBox="0 0 34.5 34.5" width="100%">
<g id="icon">
<rect fill="var(--fill-0, #F0EFFF)" height="34.5" rx="17.25" width="34.5"/>
<g id="Vector">
<path d="M16.7188 9.18697C15.1921 9.18697 13.6998 9.62776 12.4304 10.4536C11.1611 11.2794 10.1718 12.4532 9.58756 13.8265C9.00334 15.1998 8.85049 16.7109 9.14832 18.1688C9.44615 19.6267 10.1813 20.9659 11.2608 22.0169C12.3403 23.068 13.7156 23.7838 15.2129 24.0738C16.7102 24.3638 18.2622 24.215 19.6726 23.6461C21.083 23.0773 22.2885 22.114 23.1367 20.8781C23.9848 19.6421 24.4375 18.189 24.4375 16.7026C24.4353 14.71 23.6214 12.7996 22.1743 11.3906C20.7273 9.98158 18.7652 9.18908 16.7188 9.18697ZM16.7188 23.062C15.427 23.062 14.1642 22.689 13.0902 21.9902C12.0161 21.2915 11.179 20.2983 10.6847 19.1362C10.1903 17.9742 10.061 16.6955 10.313 15.4619C10.565 14.2283 11.1871 13.0952 12.1005 12.2058C13.0139 11.3165 14.1776 10.7108 15.4446 10.4654C16.7115 10.22 18.0247 10.346 19.2182 10.8273C20.4116 11.3086 21.4316 12.1237 22.1493 13.1695C22.867 14.2153 23.25 15.4448 23.25 16.7026C23.248 18.3886 22.5593 20.005 21.3349 21.1972C20.1105 22.3894 18.4503 23.0601 16.7188 23.062Z" fill="var(--fill-0, #3726D8)"/>
<path d="M17.2606 12.374C17.7352 12.374 18.1747 12.4427 18.5786 12.5796C18.8516 12.6721 19.1072 12.7919 19.3453 12.9392C19.5452 13.0628 19.6023 13.3205 19.5 13.5321L19.1865 14.1805C19.0713 14.419 18.7699 14.5012 18.5389 14.3718C18.3738 14.2748 18.1835 14.1936 17.9683 14.128C17.7561 14.0595 17.52 14.0252 17.2606 14.0252C16.8509 14.0252 16.4941 14.1252 16.1905 14.3248C15.8869 14.5244 15.6511 14.8352 15.4831 15.2572C15.4346 15.3812 15.5321 15.5094 15.6653 15.5094H17.7896C18.1324 15.5094 18.3591 15.8655 18.2141 16.1761C18.1371 16.341 17.9715 16.4464 17.7896 16.4464H15.6858C15.4404 16.4464 15.2353 16.6373 15.2353 16.8828C15.2353 17.1183 15.4319 17.302 15.6674 17.302H17.7896C18.1461 17.302 18.3743 17.6777 18.2141 17.9962C18.1327 18.1579 17.9706 18.26 17.7896 18.26H15.6654C15.532 18.26 15.4342 18.3885 15.4831 18.5126C15.6511 18.9288 15.8869 19.2352 16.1905 19.432C16.4941 19.6259 16.8509 19.7228 17.2606 19.7228C17.52 19.7228 17.7561 19.6902 17.9683 19.6246C18.1806 19.559 18.3662 19.4804 18.5254 19.3892C18.7444 19.2659 19.0326 19.3415 19.1431 19.5672L19.4723 20.2395C19.5753 20.45 19.5203 20.7075 19.321 20.8307C19.0856 20.9763 18.8309 21.0933 18.5566 21.1818C18.1498 21.3101 17.7176 21.374 17.2606 21.374C16.4883 21.374 15.8045 21.1971 15.209 20.8436C14.6165 20.4871 14.152 19.9754 13.8159 19.3082C13.7123 19.1015 13.6248 18.8816 13.5532 18.6486C13.4843 18.4242 13.2841 18.26 13.0494 18.26H12.8657C12.5315 18.26 12.3 17.9263 12.417 17.6133L12.4238 17.5952C12.4897 17.4189 12.6582 17.302 12.8464 17.302H12.9042C13.132 17.302 13.3117 17.1105 13.3117 16.8828C13.3117 16.6459 13.125 16.4464 12.8881 16.4464H12.8397C12.5192 16.4464 12.298 16.1252 12.4125 15.8257L12.4183 15.8106C12.4876 15.6292 12.6617 15.5094 12.8559 15.5094H13.0488C13.2836 15.5094 13.4839 15.345 13.5526 15.1206C13.6243 14.8865 13.712 14.6655 13.8159 14.4574C14.152 13.7844 14.6165 13.2696 15.209 12.9132C15.8045 12.5539 16.4883 12.374 17.2606 12.374Z" fill="var(--fill-0, #3726D8)"/>
</g>
</g>
</svg>