<?xml version="1.0" encoding="utf-8"?>
<svg xmlns="http://www.w3.org/2000/svg" fill="none" height="100%" overflow="visible" preserveAspectRatio="none" style="display: block;" viewBox="0 0 15 15" width="100%">
<path d="M12.4142 8.79156C12.4156 9.00242 12.3515 9.2085 12.2309 9.38145C12.1102 9.5544 11.939 9.68572 11.7407 9.75734L8.40633 10.9895L7.1781 14.3264C7.10536 14.524 6.97377 14.6945 6.80107 14.815C6.62837 14.9354 6.42287 15 6.21232 15C6.00176 15 5.79626 14.9354 5.62357 14.815C5.45087 14.6945 5.31927 14.524 5.24654 14.3264L4.01055 10.9895L0.673631 9.76122C0.476034 9.68849 0.305502 9.55689 0.185044 9.38419C0.064586 9.21149 0 9.006 0 8.79544C0 8.58488 0.064586 8.37939 0.185044 8.20669C0.305502 8.03399 0.476034 7.9024 0.673631 7.82966L4.01055 6.59367L5.23878 3.25676C5.31151 3.05916 5.44311 2.88863 5.61581 2.76817C5.78851 2.64771 5.994 2.58313 6.20456 2.58313C6.41512 2.58313 6.62061 2.64771 6.79331 2.76817C6.96601 2.88863 7.0976 3.05916 7.17034 3.25676L8.40633 6.59367L11.7432 7.82191C11.9417 7.89417 12.1129 8.02627 12.233 8.19995C12.3532 8.37364 12.4166 8.58036 12.4142 8.79156ZM8.79419 2.58575H9.82849V3.62006C9.82849 3.75721 9.88298 3.88875 9.97996 3.98574C10.0769 4.08272 10.2085 4.13721 10.3456 4.13721C10.4828 4.13721 10.6143 4.08272 10.7113 3.98574C10.8083 3.88875 10.8628 3.75721 10.8628 3.62006V2.58575H11.8971C12.0343 2.58575 12.1658 2.53127 12.2628 2.43428C12.3598 2.3373 12.4142 2.20576 12.4142 2.0686C12.4142 1.93145 12.3598 1.79991 12.2628 1.70292C12.1658 1.60594 12.0343 1.55145 11.8971 1.55145H10.8628V0.517151C10.8628 0.379994 10.8083 0.248455 10.7113 0.15147C10.6143 0.0544853 10.4828 0 10.3456 0C10.2085 0 10.0769 0.0544853 9.97996 0.15147C9.88298 0.248455 9.82849 0.379994 9.82849 0.517151V1.55145H8.79419C8.65703 1.55145 8.52549 1.60594 8.42851 1.70292C8.33152 1.79991 8.27704 1.93145 8.27704 2.0686C8.27704 2.20576 8.33152 2.3373 8.42851 2.43428C8.52549 2.53127 8.65703 2.58575 8.79419 2.58575ZM14.4828 4.65436H13.9657V4.13721C13.9657 4.00005 13.9112 3.86851 13.8142 3.77153C13.7172 3.67454 13.5857 3.62006 13.4485 3.62006C13.3114 3.62006 13.1799 3.67454 13.0829 3.77153C12.9859 3.86851 12.9314 4.00005 12.9314 4.13721V4.65436H12.4142C12.2771 4.65436 12.1455 4.70884 12.0486 4.80583C11.9516 4.90281 11.8971 5.03435 11.8971 5.17151C11.8971 5.30866 11.9516 5.4402 12.0486 5.53719C12.1455 5.63417 12.2771 5.68866 12.4142 5.68866H12.9314V6.20581C12.9314 6.34297 12.9859 6.47451 13.0829 6.57149C13.1799 6.66847 13.3114 6.72296 13.4485 6.72296C13.5857 6.72296 13.7172 6.66847 13.8142 6.57149C13.9112 6.47451 13.9657 6.34297 13.9657 6.20581V5.68866H14.4828C14.62 5.68866 14.7515 5.63417 14.8485 5.53719C14.9455 5.4402 15 5.30866 15 5.17151C15 5.03435 14.9455 4.90281 14.8485 4.80583C14.7515 4.70884 14.62 4.65436 14.4828 4.65436Z" fill="var(--fill-0, #1900FF)" id="Vector"/>
</svg>