<?xml version="1.0" encoding="utf-8"?>
<svg xmlns="http://www.w3.org/2000/svg" fill="none" height="100%" overflow="visible" preserveAspectRatio="none" style="display: block;" viewBox="0 0 278 177" width="100%">
<g id="Vector">
<path d="M208.469 0C210.456 0 211.679 2.17404 210.635 3.86496L106.167 173.173C104.702 175.551 102.103 177 99.3001 177H68.979C66.9916 177 65.7685 174.826 66.8132 173.135L171.268 3.82682C172.733 1.44936 175.332 0 178.135 0H208.469Z" fill="var(--fill-0, #1900FF)"/>
<path d="M69.5048 146.767L54.3443 171.355C53.2486 173.122 50.6752 173.135 49.5795 171.355L1.53716 93.738C-0.590408 90.3054 -0.501228 85.9573 1.75374 82.6136L54.7647 4.03024C56.4718 1.51293 59.3128 0 62.3577 0H92.9336C95.0611 0 96.3224 2.36475 95.1376 4.11924L41.5279 83.5925C39.3493 86.8218 39.2729 91.0173 41.3113 94.3356L69.4921 139.876C70.8043 141.987 70.8043 144.656 69.4921 146.78L69.5048 146.767Z" fill="var(--fill-0, #1900FF)"/>
<path d="M276.463 93.7257L227.631 172.64C225.962 175.335 223.019 176.975 219.834 176.975H190.277C188.2 176.975 186.926 174.699 188.022 172.945L236.689 94.3105C238.74 91.0049 238.651 86.7967 236.472 83.5674L206.648 39.3492C205.208 37.2133 205.145 34.429 206.508 32.2296L221.312 8.23882C222.382 6.50975 224.879 6.4589 226.025 8.14982L276.246 82.6012C278.501 85.9449 278.59 90.293 276.463 93.7257Z" fill="var(--fill-0, #1900FF)"/>
</g>
</svg>