<?xml version="1.0" encoding="utf-8"?>
<svg xmlns="http://www.w3.org/2000/svg" fill="none" height="100%" overflow="visible" preserveAspectRatio="none" style="display: block;" viewBox="0 0 51.1656 51.1656" width="100%">
<path d="M40.0479 26.6941L28.6743 22.4913L24.4848 11.1089C24.2367 10.4349 23.7878 9.85323 23.1987 9.44235C22.6096 9.03146 21.9087 8.81115 21.1905 8.81115C20.4723 8.81115 19.7713 9.03146 19.1822 9.44235C18.5931 9.85323 18.1443 10.4349 17.8962 11.1089L13.6801 22.4913L2.29778 26.6809C1.62377 26.929 1.04208 27.3778 0.631192 27.9669C0.220306 28.556 0 29.2569 0 29.9752C0 30.6934 0.220306 31.3943 0.631192 31.9834C1.04208 32.5725 1.62377 33.0214 2.29778 33.2695L13.6801 37.4855L17.8697 48.8679C18.1178 49.5419 18.5667 50.1236 19.1558 50.5345C19.7448 50.9453 20.4458 51.1656 21.164 51.1656C21.8822 51.1656 22.5832 50.9453 23.1723 50.5345C23.7614 50.1236 24.2102 49.5419 24.4583 48.8679L28.6743 37.4855L40.0567 33.2959C40.7307 33.0478 41.3124 32.599 41.7233 32.0099C42.1342 31.4208 42.3545 30.7199 42.3545 30.0016C42.3545 29.2834 42.1342 28.5825 41.7233 27.9934C41.3124 27.4043 40.7307 26.9554 40.0567 26.7073L40.0479 26.6941ZM26.6898 34.447C26.4504 34.5352 26.2329 34.6744 26.0525 34.8548C25.872 35.0353 25.7329 35.2527 25.6446 35.4922L21.1772 47.5956L16.7187 35.501C16.6306 35.259 16.4906 35.0393 16.3085 34.8572C16.1264 34.6751 15.9066 34.5351 15.6647 34.447L3.57009 29.9884L15.6647 25.5298C15.9066 25.4417 16.1264 25.3017 16.3085 25.1196C16.4906 24.9375 16.6306 24.7178 16.7187 24.4758L21.1772 12.3812L25.6358 24.4758C25.7241 24.7153 25.8632 24.9327 26.0437 25.1132C26.2241 25.2936 26.4416 25.4328 26.681 25.521L38.7844 29.9884L26.6898 34.447ZM28.2333 7.05609C28.2333 6.58825 28.4192 6.13956 28.75 5.80874C29.0808 5.47792 29.5295 5.29207 29.9974 5.29207H33.5254V1.76402C33.5254 1.29618 33.7113 0.847489 34.0421 0.51667C34.3729 0.185852 34.8216 0 35.2894 0C35.7573 0 36.206 0.185852 36.5368 0.51667C36.8676 0.847489 37.0535 1.29618 37.0535 1.76402V5.29207H40.5815C41.0494 5.29207 41.498 5.47792 41.8289 5.80874C42.1597 6.13956 42.3455 6.58825 42.3455 7.05609C42.3455 7.52394 42.1597 7.97263 41.8289 8.30345C41.498 8.63427 41.0494 8.82012 40.5815 8.82012H37.0535V12.3482C37.0535 12.816 36.8676 13.2647 36.5368 13.5955C36.206 13.9263 35.7573 14.1122 35.2894 14.1122C34.8216 14.1122 34.3729 13.9263 34.0421 13.5955C33.7113 13.2647 33.5254 12.816 33.5254 12.3482V8.82012H29.9974C29.5295 8.82012 29.0808 8.63427 28.75 8.30345C28.4192 7.97263 28.2333 7.52394 28.2333 7.05609ZM51.1656 17.6402C51.1656 18.1081 50.9798 18.5568 50.649 18.8876C50.3182 19.2184 49.8695 19.4043 49.4016 19.4043H47.6376V21.1683C47.6376 21.6361 47.4518 22.0848 47.1209 22.4156C46.7901 22.7465 46.3414 22.9323 45.8736 22.9323C45.4057 22.9323 44.957 22.7465 44.6262 22.4156C44.2954 22.0848 44.1096 21.6361 44.1096 21.1683V19.4043H42.3455C41.8777 19.4043 41.429 19.2184 41.0982 18.8876C40.7674 18.5568 40.5815 18.1081 40.5815 17.6402C40.5815 17.1724 40.7674 16.7237 41.0982 16.3929C41.429 16.0621 41.8777 15.8762 42.3455 15.8762H44.1096V14.1122C44.1096 13.6443 44.2954 13.1957 44.6262 12.8648C44.957 12.534 45.4057 12.3482 45.8736 12.3482C46.3414 12.3482 46.7901 12.534 47.1209 12.8648C47.4518 13.1957 47.6376 13.6443 47.6376 14.1122V15.8762H49.4016C49.8695 15.8762 50.3182 16.0621 50.649 16.3929C50.9798 16.7237 51.1656 17.1724 51.1656 17.6402Z" fill="var(--fill-0, #1900FF)" id="Vector"/>
</svg>