<?xml version="1.0" encoding="utf-8"?>
<svg xmlns="http://www.w3.org/2000/svg" fill="none" height="100%" overflow="visible" preserveAspectRatio="none" style="display: block;" viewBox="0 0 60 60" width="100%">
<g id="Frame">
<path d="M43.125 6.09375H16.875C16.0048 6.09375 15.1702 6.43945 14.5548 7.05481C13.9395 7.67016 13.5938 8.50476 13.5938 9.375V17.8125C13.5948 18.3217 13.7139 18.8237 13.9416 19.2792C14.1694 19.7346 14.4995 20.1311 14.9062 20.4375L27.6562 30L14.9062 39.5625C14.4995 39.8689 14.1694 40.2654 13.9416 40.7208C13.7139 41.1763 13.5948 41.6783 13.5938 42.1875V50.625C13.5938 51.4952 13.9395 52.3298 14.5548 52.9452C15.1702 53.5605 16.0048 53.9062 16.875 53.9062H43.125C43.9952 53.9062 44.8298 53.5605 45.4452 52.9452C46.0605 52.3298 46.4062 51.4952 46.4062 50.625V42.2719C46.4048 41.7647 46.2865 41.2647 46.0605 40.8107C45.8345 40.3566 45.5069 39.9608 45.1031 39.6539L32.3438 30L45.1148 20.3461C45.5165 20.038 45.8418 19.6416 46.0658 19.1877C46.2897 18.7337 46.4062 18.2343 46.4062 17.7281V9.375C46.4063 8.50476 46.0605 7.67016 45.4452 7.05481C44.8298 6.43945 43.9952 6.09375 43.125 6.09375ZM16.875 8.90625H43.125C43.2493 8.90625 43.3685 8.95564 43.4565 9.04354C43.5444 9.13145 43.5938 9.25068 43.5938 9.375V13.5938H16.4062V9.375C16.4062 9.25068 16.4556 9.13145 16.5435 9.04354C16.6315 8.95564 16.7507 8.90625 16.875 8.90625ZM43.5938 42.2719V50.625C43.5938 50.7493 43.5444 50.8685 43.4565 50.9565C43.3685 51.0444 43.2493 51.0938 43.125 51.0938H16.875C16.7507 51.0938 16.6315 51.0444 16.5435 50.9565C16.4556 50.8685 16.4062 50.7493 16.4062 50.625V42.1875C16.4062 42.1147 16.4232 42.043 16.4557 41.9779C16.4883 41.9128 16.5355 41.8562 16.5938 41.8125L30 31.7602L43.4109 41.8969C43.4683 41.941 43.5146 41.9979 43.5464 42.0629C43.5781 42.128 43.5943 42.1995 43.5938 42.2719ZM43.4086 18.1031L30 28.2398L16.5938 18.1875C16.5355 18.1438 16.4883 18.0872 16.4557 18.0221C16.4232 17.957 16.4062 17.8853 16.4062 17.8125V16.4062H43.5938V17.7281C43.594 17.8007 43.5774 17.8723 43.5453 17.9374C43.5132 18.0025 43.4664 18.0592 43.4086 18.1031Z" fill="var(--fill-0, #1900FF)" id="Vector"/>
</g>
</svg>