<?xml version="1.0" encoding="utf-8"?>
<svg xmlns="http://www.w3.org/2000/svg" fill="none" height="100%" overflow="visible" preserveAspectRatio="none" style="display: block;" viewBox="0 0 336.552 160.539" width="100%">
<g filter="url(#filter0_d_0_4545)" id="Union">
<path d="M278.052 20.5C287.993 20.5 296.052 28.5589 296.052 38.5V102.039C296.052 111.98 287.993 120.039 278.052 120.039H62.5236C54.4251 120.039 47.5762 114.69 45.3156 107.333C38.4024 109.106 30.4379 109.736 21.7238 108.151C26.5329 106.09 45.0816 93.7238 44.3947 68.9922C44.4364 69.0496 44.481 69.105 44.5245 69.1611V38.5C44.5245 28.559 52.5827 20.5003 62.5236 20.5H278.052Z" fill="var(--fill-0, white)"/>
<path d="M296.052 38.5H296.552V38.5H296.052ZM62.5236 120.039L62.5236 120.539H62.5236V120.039ZM45.3156 107.333L45.7935 107.186L45.6534 106.73L45.1913 106.849L45.3156 107.333ZM21.7238 108.151L21.5268 107.692L20 108.346L21.6343 108.643L21.7238 108.151ZM44.3947 68.9922L44.799 68.6981L43.8501 67.3933L43.8949 69.0061L44.3947 68.9922ZM44.5245 69.1611L44.1296 69.4677L45.0245 70.6208V69.1611H44.5245ZM62.5236 20.5V20H62.5236L62.5236 20.5ZM278.052 20.5V21C287.717 21 295.552 28.835 295.552 38.5H296.052H296.552C296.552 28.2827 288.269 20 278.052 20V20.5ZM296.052 38.5H295.552V102.039H296.052H296.552V38.5H296.052ZM296.052 102.039H295.552C295.552 111.704 287.717 119.539 278.052 119.539V120.039V120.539C288.269 120.539 296.552 112.256 296.552 102.039H296.052ZM278.052 120.039V119.539H62.5236V120.039V120.539H278.052V120.039ZM62.5236 120.039L62.5236 119.539C54.6508 119.539 47.9915 114.34 45.7935 107.186L45.3156 107.333L44.8376 107.48C47.161 115.041 54.1994 120.539 62.5236 120.539L62.5236 120.039ZM45.3156 107.333L45.1913 106.849C38.3411 108.606 30.4496 109.23 21.8132 107.659L21.7238 108.151L21.6343 108.643C30.4261 110.242 38.4637 109.607 45.4398 107.817L45.3156 107.333ZM21.7238 108.151L21.9207 108.611C24.4019 107.548 30.3075 103.89 35.5107 97.3856C40.7237 90.8692 45.2418 81.4821 44.8945 68.9783L44.3947 68.9922L43.8949 69.0061C44.2345 81.2339 39.8217 90.3959 34.7298 96.7609C29.6281 103.138 23.8548 106.694 21.5268 107.692L21.7238 108.151ZM44.3947 68.9922L43.9903 69.2863C44.0382 69.3521 44.0931 69.4207 44.1296 69.4677L44.5245 69.1611L44.9195 68.8546C44.8688 68.7893 44.8347 68.7471 44.799 68.6981L44.3947 68.9922ZM44.5245 69.1611H45.0245V38.5H44.5245H44.0245V69.1611H44.5245ZM44.5245 38.5H45.0245C45.0245 28.8352 52.8588 21.0003 62.5236 21L62.5236 20.5L62.5236 20C52.3065 20.0003 44.0245 28.2829 44.0245 38.5H44.5245ZM62.5236 20.5V21H278.052V20.5V20H62.5236V20.5Z" fill="var(--stroke-0, #CFCFD5)"/>
</g>
<defs>
<filter color-interpolation-filters="sRGB" filterUnits="userSpaceOnUse" height="160.539" id="filter0_d_0_4545" width="336.552" x="-4.76837e-07" y="0">
<feFlood flood-opacity="0" result="BackgroundImageFix"/>
<feColorMatrix in="SourceAlpha" result="hardAlpha" type="matrix" values="0 0 0 0 0 0 0 0 0 0 0 0 0 0 0 0 0 0 127 0"/>
<feOffset dx="10" dy="10"/>
<feGaussianBlur stdDeviation="15"/>
<feComposite in2="hardAlpha" operator="out"/>
<feColorMatrix type="matrix" values="0 0 0 0 0 0 0 0 0 0 0 0 0 0 0 0 0 0 0.12 0"/>
<feBlend in2="BackgroundImageFix" mode="normal" result="effect1_dropShadow_0_4545"/>
<feBlend in="SourceGraphic" in2="effect1_dropShadow_0_4545" mode="normal" result="shape"/>
</filter>
</defs>
</svg>