<?xml version="1.0" encoding="utf-8"?>
<svg xmlns="http://www.w3.org/2000/svg" fill="none" height="100%" overflow="visible" preserveAspectRatio="none" style="display: block;" viewBox="0 0 790.46 353.195" width="100%">
<g id="shape">
<path d="M198.915 0.274414H785.928C787.574 0.274414 788.916 1.28225 789.632 2.71387C790.348 4.14607 790.423 5.97807 789.543 7.57715L603.528 345.423C600.955 350.098 596.414 352.921 591.536 352.921H4.53223C2.88591 352.921 1.54394 351.913 0.828125 350.481C0.112155 349.049 0.0374931 347.217 0.916992 345.618L186.923 7.77246C189.497 3.09763 194.037 0.274417 198.915 0.274414Z" fill="url(#paint0_linear_0_4559)" id="Vector" stroke="var(--stroke-0, #E5DADA)" stroke-width="0.548303"/>
<path d="M182.698 177.01L141.017 244.524C139.595 246.831 137.078 248.233 134.367 248.233H109.144C107.372 248.233 106.29 246.288 107.22 244.781L148.749 177.511C150.5 174.677 150.428 171.082 148.568 168.32L123.109 130.487C121.88 128.66 121.223 126.631 122.38 124.754L134.604 102.853C135.517 101.371 137.651 101.329 138.623 102.773L182.504 167.486C184.428 170.349 184.503 174.071 182.689 177.006L182.698 177.01Z" fill="url(#paint1_linear_0_4559)" id="Vector_2"/>
</g>
<defs>
<linearGradient gradientUnits="userSpaceOnUse" id="paint0_linear_0_4559" x1="395.23" x2="395.23" y1="0" y2="353.195">
<stop stop-color="#EAEFFF"/>
<stop offset="1" stop-color="white"/>
</linearGradient>
<linearGradient gradientUnits="userSpaceOnUse" id="paint1_linear_0_4559" x1="145.44" x2="145.44" y1="101.715" y2="248.233">
<stop stop-color="#F0E6FF"/>
<stop offset="1" stop-color="#D4E7FF"/>
</linearGradient>
</defs>
</svg>