<?xml version="1.0" encoding="utf-8"?>
<svg xmlns="http://www.w3.org/2000/svg" fill="none" height="100%" overflow="visible" preserveAspectRatio="none" style="display: block;" viewBox="0 0 74.502 74.502" width="100%">
<g id="icon">
<path d="M25.61 27.938C25.61 27.3205 25.8553 26.7283 26.2919 26.2917C26.7285 25.8551 27.3207 25.6098 27.9382 25.6098H46.5637C47.1812 25.6098 47.7734 25.8551 48.21 26.2917C48.6466 26.7283 48.8919 27.3205 48.8919 27.938C48.8919 28.5555 48.6466 29.1477 48.21 29.5843C47.7734 30.0209 47.1812 30.2662 46.5637 30.2662H27.9382C27.3207 30.2662 26.7285 30.0209 26.2919 29.5843C25.8553 29.1477 25.61 28.5555 25.61 27.938ZM27.9382 39.5789H46.5637C47.1812 39.5789 47.7734 39.3336 48.21 38.897C48.6466 38.4604 48.8919 37.8682 48.8919 37.2507C48.8919 36.6333 48.6466 36.0411 48.21 35.6045C47.7734 35.1678 47.1812 34.9226 46.5637 34.9226H27.9382C27.3207 34.9226 26.7285 35.1678 26.2919 35.6045C25.8553 36.0411 25.61 36.6333 25.61 37.2507C25.61 37.8682 25.8553 38.4604 26.2919 38.897C26.7285 39.3336 27.3207 39.5789 27.9382 39.5789ZM37.2509 44.2353H27.9382C27.3207 44.2353 26.7285 44.4806 26.2919 44.9172C25.8553 45.3538 25.61 45.946 25.61 46.5635C25.61 47.181 25.8553 47.7731 26.2919 48.2098C26.7285 48.6464 27.3207 48.8917 27.9382 48.8917H37.2509C37.8684 48.8917 38.4606 48.6464 38.8972 48.2098C39.3338 47.7731 39.5791 47.181 39.5791 46.5635C39.5791 45.946 39.3338 45.3538 38.8972 44.9172C38.4606 44.4806 37.8684 44.2353 37.2509 44.2353ZM65.1892 13.9689V45.6002C65.1911 46.2119 65.0715 46.8179 64.8372 47.383C64.6029 47.948 64.2586 48.4609 63.8243 48.8917L48.8919 63.8241C48.4611 64.2583 47.9482 64.6026 47.3832 64.837C46.8181 65.0713 46.2121 65.1909 45.6004 65.189H13.9691C12.7341 65.189 11.5498 64.6984 10.6765 63.8252C9.80329 62.9519 9.31271 61.7676 9.31271 60.5326V13.9689C9.31271 12.7339 9.80329 11.5496 10.6765 10.6763C11.5498 9.80308 12.7341 9.3125 13.9691 9.3125H60.5328C61.7678 9.3125 62.9521 9.80308 63.8254 10.6763C64.6986 11.5496 65.1892 12.7339 65.1892 13.9689ZM13.9691 60.5326H44.2355V46.5635C44.2355 45.946 44.4808 45.3538 44.9174 44.9172C45.354 44.4806 45.9462 44.2353 46.5637 44.2353H60.5328V13.9689H13.9691V60.5326ZM48.8919 48.8917V57.244L57.2413 48.8917H48.8919Z" fill="var(--fill-0, #1900FF)" id="Vector"/>
</g>
</svg>