<?xml version="1.0" encoding="utf-8"?>
<svg xmlns="http://www.w3.org/2000/svg" fill="none" height="100%" overflow="visible" preserveAspectRatio="none" style="display: block;" viewBox="0 0 41.4 41.4" width="100%">
<g id="icon">
<rect fill="var(--fill-0, #F0EFFF)" height="41.4" rx="20.7" width="41.4"/>
<g id="Vector">
<path d="M20.6625 11.6244C18.8306 11.6244 17.0397 12.1533 15.5165 13.1443C13.9933 14.1353 12.8061 15.5438 12.1051 17.1918C11.404 18.8398 11.2206 20.6531 11.578 22.4026C11.9354 24.1521 12.8175 25.759 14.1129 27.0203C15.4083 28.2816 17.0587 29.1406 18.8555 29.4886C20.6522 29.8366 22.5146 29.658 24.2071 28.9754C25.8996 28.2928 27.3462 27.1368 28.364 25.6537C29.3818 24.1705 29.925 22.4269 29.925 20.6431C29.9224 18.252 28.9457 15.9595 27.2092 14.2687C25.4727 12.5779 23.1183 11.6269 20.6625 11.6244ZM20.6625 28.2744C19.1124 28.2744 17.5971 27.8268 16.3082 26.9883C15.0194 26.1497 14.0148 24.9579 13.4216 23.5635C12.8284 22.169 12.6732 20.6347 12.9756 19.1543C13.278 17.674 14.0245 16.3143 15.1206 15.247C16.2166 14.1798 17.6132 13.453 19.1335 13.1585C20.6538 12.864 22.2297 13.0152 23.6618 13.5928C25.0939 14.1704 26.318 15.1485 27.1791 16.4034C28.0403 17.6584 28.5 19.1338 28.5 20.6431C28.4976 22.6663 27.6712 24.6061 26.2019 26.0367C24.7325 27.4673 22.7404 28.2721 20.6625 28.2744Z" fill="var(--fill-0, #3726D8)"/>
<path d="M21.3127 15.4488C21.8823 15.4488 22.4096 15.5312 22.8943 15.6955C23.222 15.8065 23.5287 15.9503 23.8143 16.127C24.0543 16.2754 24.1228 16.5846 24 16.8386L23.6239 17.6166C23.4855 17.9028 23.1239 18.0014 22.8466 17.8461C22.6485 17.7298 22.4202 17.6323 22.162 17.5536C21.9073 17.4714 21.624 17.4302 21.3127 17.4302C20.8211 17.4303 20.3929 17.5502 20.0286 17.7897C19.6643 18.0293 19.3814 18.4022 19.1797 18.9086C19.1215 19.0574 19.2385 19.2113 19.3983 19.2113H21.9475C22.3588 19.2113 22.6309 19.6386 22.4569 20.0113C22.3645 20.2092 22.1658 20.3357 21.9475 20.3357H19.423C19.1284 20.3357 18.8823 20.5648 18.8823 20.8593C18.8823 21.142 19.1183 21.3624 19.4009 21.3624H21.9475C22.3754 21.3624 22.6491 21.8132 22.4569 22.1955C22.3593 22.3895 22.1647 22.512 21.9475 22.512H19.3985C19.2384 22.512 19.1211 22.6661 19.1797 22.8151C19.3814 23.3145 19.6643 23.6823 20.0286 23.9184C20.3929 24.151 20.8211 24.2673 21.3127 24.2673C21.624 24.2673 21.9073 24.2282 22.162 24.1495C22.4167 24.0708 22.6394 23.9765 22.8304 23.867C23.0932 23.7191 23.4391 23.8099 23.5717 24.0807L23.9667 24.8875C24.0904 25.14 24.0244 25.449 23.7852 25.5969C23.5028 25.7715 23.197 25.912 22.8679 26.0181C22.3797 26.1721 21.8611 26.2488 21.3127 26.2488C20.386 26.2488 19.5654 26.0366 18.8509 25.6123C18.1398 25.1846 17.5824 24.5705 17.1791 23.7698C17.0547 23.5218 16.9497 23.2579 16.8638 22.9783C16.7811 22.7091 16.5409 22.512 16.2592 22.512H16.0389C15.6378 22.512 15.36 22.1116 15.5004 21.7359L15.5085 21.7142C15.5876 21.5026 15.7898 21.3624 16.0157 21.3624H16.0851C16.3583 21.3624 16.574 21.1326 16.574 20.8593C16.574 20.5751 16.35 20.3357 16.0658 20.3357H16.0077C15.623 20.3357 15.3577 19.9502 15.495 19.5908L15.5019 19.5728C15.5851 19.3551 15.794 19.2113 16.0271 19.2113H16.2586C16.5403 19.2113 16.7806 19.0141 16.8631 18.7447C16.9492 18.4639 17.0544 18.1986 17.1791 17.9489C17.5824 17.1412 18.1398 16.5236 18.8509 16.0958C19.5654 15.6647 20.3859 15.4488 21.3127 15.4488Z" fill="var(--fill-0, #3726D8)"/>
</g>
</g>
</svg>