<?xml version="1.0" encoding="utf-8"?>
<svg xmlns="http://www.w3.org/2000/svg" fill="none" height="100%" overflow="visible" preserveAspectRatio="none" style="display: block;" viewBox="0 0 36 36" width="100%">
<g id="social">
<rect height="35" rx="17.5" stroke="var(--stroke-0, #0D062D)" stroke-opacity="0.16" width="35" x="0.5" y="0.5"/>
<g id="icon">
<path d="M14.2051 12.2351C14.2049 12.6329 14.0467 13.0144 13.7652 13.2956C13.4838 13.5767 13.1022 13.7346 12.7043 13.7344C12.3065 13.7342 11.9251 13.576 11.6439 13.2945C11.3627 13.0131 11.2049 12.6314 11.2051 12.2336C11.2053 11.8358 11.3635 11.4543 11.6449 11.1732C11.9264 10.892 12.308 10.7342 12.7058 10.7344C13.1037 10.7346 13.4851 10.8928 13.7663 11.1742C14.0474 11.4557 14.2053 11.8373 14.2051 12.2351V12.2351ZM14.2501 14.8451H11.2501V24.2351H14.2501V14.8451ZM18.9901 14.8451H16.0051V24.2351H18.9601V19.3076C18.9601 16.5626 22.5376 16.3076 22.5376 19.3076V24.2351H25.5001V18.2876C25.5001 13.6601 20.2051 13.8326 18.9601 16.1051L18.9901 14.8451V14.8451Z" fill="var(--fill-0, #0D062D)" id="Vector"/>
</g>
</g>
</svg>