<?xml version="1.0" encoding="utf-8"?>
<svg xmlns="http://www.w3.org/2000/svg" fill="none" height="100%" overflow="visible" preserveAspectRatio="none" style="display: block;" viewBox="0 0 34.5 34.5" width="100%">
<g id="icon">
<rect fill="var(--fill-0, #F0EFFF)" height="34.5" rx="17.25" width="34.5"/>
<g id="Vector">
<path d="M23.0199 13.2113C23.0206 13.3284 22.9861 13.4428 22.9212 13.5389C22.8562 13.6349 22.764 13.7079 22.6572 13.7476L20.8621 14.4319L20.2008 16.2852C20.1616 16.3949 20.0908 16.4896 19.9978 16.5565C19.9048 16.6234 19.7942 16.6593 19.6808 16.6593C19.5675 16.6593 19.4568 16.6234 19.3639 16.5565C19.2709 16.4896 19.2 16.3949 19.1609 16.2852L18.4954 14.4319L16.6989 13.7498C16.5925 13.7094 16.5007 13.6363 16.4358 13.5404C16.371 13.4445 16.3362 13.3303 16.3362 13.2134C16.3362 13.0965 16.371 12.9823 16.4358 12.8864C16.5007 12.7905 16.5925 12.7174 16.6989 12.677L18.4954 11.9906L19.1567 10.1373C19.1959 10.0276 19.2667 9.93287 19.3597 9.86597C19.4527 9.79907 19.5633 9.7632 19.6767 9.7632C19.79 9.7632 19.9007 9.79907 19.9936 9.86597C20.0866 9.93287 20.1575 10.0276 20.1966 10.1373L20.8621 11.9906L22.6586 12.6727C22.7655 12.7129 22.8576 12.7862 22.9223 12.8827C22.9871 12.9791 23.0211 13.094 23.0199 13.2113ZM21.0709 9.76466H21.6277V10.3391C21.6277 10.4153 21.6571 10.4883 21.7093 10.5422C21.7615 10.596 21.8323 10.6263 21.9062 10.6263C21.98 10.6263 22.0508 10.596 22.1031 10.5422C22.1553 10.4883 22.1846 10.4153 22.1846 10.3391V9.76466H22.7415C22.8153 9.76466 22.8861 9.7344 22.9383 9.68053C22.9906 9.62667 23.0199 9.55361 23.0199 9.47744C23.0199 9.40127 22.9906 9.32821 22.9383 9.27435C22.8861 9.22048 22.8153 9.19022 22.7415 9.19022H22.1846V8.61579C22.1846 8.53962 22.1553 8.46656 22.1031 8.4127C22.0508 8.35884 21.98 8.32858 21.9062 8.32858C21.8323 8.32858 21.7615 8.35884 21.7093 8.4127C21.6571 8.46656 21.6277 8.53962 21.6277 8.61579V9.19022H21.0709C20.997 9.19022 20.9262 9.22048 20.874 9.27435C20.8218 9.32821 20.7925 9.40127 20.7925 9.47744C20.7925 9.55361 20.8218 9.62667 20.874 9.68053C20.9262 9.7344 20.997 9.76466 21.0709 9.76466ZM24.1336 10.9135H23.8552V10.6263C23.8552 10.5501 23.8258 10.4771 23.7736 10.4232C23.7214 10.3693 23.6506 10.3391 23.5768 10.3391C23.5029 10.3391 23.4321 10.3693 23.3799 10.4232C23.3277 10.4771 23.2983 10.5501 23.2983 10.6263V10.9135H23.0199C22.9461 10.9135 22.8752 10.9438 22.823 10.9976C22.7708 11.0515 22.7415 11.1246 22.7415 11.2007C22.7415 11.2769 22.7708 11.35 22.823 11.4038C22.8752 11.4577 22.9461 11.488 23.0199 11.488H23.2983V11.7752C23.2983 11.8513 23.3277 11.9244 23.3799 11.9783C23.4321 12.0321 23.5029 12.0624 23.5768 12.0624C23.6506 12.0624 23.7214 12.0321 23.7736 11.9783C23.8258 11.9244 23.8552 11.8513 23.8552 11.7752V11.488H24.1336C24.2075 11.488 24.2783 11.4577 24.3305 11.4038C24.3827 11.35 24.412 11.2769 24.412 11.2007C24.412 11.1246 24.3827 11.0515 24.3305 10.9976C24.2783 10.9438 24.2075 10.9135 24.1336 10.9135Z" fill="var(--fill-0, #1900FF)"/>
<path d="M20.3059 23.763C19.6474 22.5707 18.6191 21.6418 17.3866 21.1256C17.9995 20.6514 18.4523 19.9903 18.6807 19.236C18.9091 18.4816 18.9017 17.6722 18.6594 16.9224C18.4171 16.1727 17.9523 15.5206 17.3308 15.0585C16.7093 14.5964 15.9626 14.3477 15.1964 14.3477C14.4303 14.3477 13.6836 14.5964 13.062 15.0585C12.4405 15.5206 11.9757 16.1727 11.7334 16.9224C11.4911 17.6722 11.4837 18.4816 11.7121 19.236C11.9406 19.9903 12.3933 20.6514 13.0062 21.1256C11.7737 21.6418 10.7454 22.5707 10.0869 23.763C10.0461 23.8307 10.0189 23.9061 10.007 23.9848C9.99499 24.0636 9.99849 24.144 10.0172 24.2213C10.036 24.2986 10.0696 24.3713 10.1162 24.4349C10.1627 24.4986 10.2211 24.5519 10.288 24.5918C10.3549 24.6316 10.4289 24.6572 10.5056 24.667C10.5823 24.6768 10.6601 24.6706 10.7344 24.6487C10.8087 24.6269 10.878 24.5898 10.9381 24.5398C10.9983 24.4898 11.0481 24.4278 11.0845 24.3575C11.9548 22.8057 13.4918 21.8802 15.1964 21.8802C16.901 21.8802 18.438 22.8062 19.3083 24.3575C19.3873 24.4886 19.5126 24.5828 19.6578 24.6203C19.8029 24.6578 19.9565 24.6356 20.0861 24.5583C20.2156 24.4811 20.311 24.355 20.352 24.2065C20.393 24.0581 20.3765 23.8991 20.3059 23.763ZM12.6988 18.1147C12.6988 17.6051 12.8453 17.107 13.1197 16.6833C13.3942 16.2596 13.7843 15.9294 14.2406 15.7344C14.697 15.5394 15.1992 15.4884 15.6837 15.5878C16.1682 15.6872 16.6132 15.9326 16.9625 16.2929C17.3118 16.6532 17.5496 17.1123 17.646 17.6121C17.7424 18.1118 17.6929 18.6299 17.5039 19.1006C17.3148 19.5714 16.9947 19.9738 16.584 20.2569C16.1733 20.54 15.6904 20.6911 15.1964 20.6911C14.5342 20.6903 13.8994 20.4186 13.4312 19.9356C12.963 19.4526 12.6996 18.7978 12.6988 18.1147Z" fill="var(--fill-0, #1900FF)"/>
</g>
</g>
</svg>