<?xml version="1.0" encoding="utf-8"?>
<svg xmlns="http://www.w3.org/2000/svg" fill="none" height="100%" overflow="visible" preserveAspectRatio="none" style="display: block;" viewBox="0 0 31.6611 31.6611" width="100%">
<g id="Avatar">
<rect fill="var(--fill-0, white)" height="31.6611" rx="4.87094" width="31.6611"/>
<rect height="31.0522" rx="4.56651" stroke="var(--stroke-0, #969695)" stroke-opacity="0.24" stroke-width="0.608867" width="31.0522" x="0.304434" y="0.304434"/>
<g clip-path="url(#clip0_0_4560)" id="Logo">
<path clip-rule="evenodd" d="M8.81766 8.95188L1.82565 15.8306C3.22418 17.2065 4.82178 18.3661 6.56363 19.2732C7.04509 20.5297 7.79975 21.708 8.82762 22.7192C12.6947 26.5236 18.9645 26.5236 22.8316 22.7192C23.8595 21.708 24.6141 20.5297 25.0956 19.2732C26.8374 18.3661 28.435 17.2065 29.8335 15.8306L22.8472 8.95748C22.842 8.95233 22.8368 8.94719 22.8316 8.94206C18.9645 5.13762 12.6947 5.13762 8.82762 8.94206C8.82431 8.94533 8.82098 8.9486 8.81766 8.95188ZM22.1625 20.5143C20.125 21.1908 17.986 21.5373 15.8296 21.5373C13.6732 21.5373 11.5343 21.1908 9.49673 20.5143C9.7175 20.8024 9.96124 21.079 10.228 21.3414C13.3217 24.385 18.3375 24.385 21.4312 21.3414C21.6979 21.079 21.9418 20.8024 22.1625 20.5143ZM10.3716 10.182C10.897 10.5234 11.4556 10.8156 12.0401 11.0539C13.2415 11.5434 14.5292 11.7954 15.8296 11.7954C17.13 11.7954 18.4177 11.5434 19.6191 11.0539C20.2036 10.8156 20.7622 10.5234 21.2876 10.182C18.2325 7.32214 13.4267 7.32215 10.3716 10.182Z" fill="var(--fill-0, #1B1B1D)" fill-rule="evenodd" id="Vector"/>
</g>
</g>
<defs>
<clipPath id="clip0_0_4560">
<rect fill="white" height="19.4838" transform="translate(1.8266 6.08867)" width="28.0079"/>
</clipPath>
</defs>
</svg>