<?xml version="1.0" encoding="utf-8"?>
<svg xmlns="http://www.w3.org/2000/svg" fill="none" height="100%" overflow="visible" preserveAspectRatio="none" style="display: block;" viewBox="0 0 60 60" width="100%">
<g id="Frame">
<path d="M58.4435 20.2741L31.256 6.90463C30.9937 6.77588 30.7012 6.70854 30.4041 6.70854C30.107 6.70854 29.8145 6.77588 29.5522 6.90463L2.36472 20.2741C2.07473 20.4166 1.83221 20.6291 1.6631 20.8889C1.494 21.1487 1.40466 21.446 1.40466 21.7489C1.40466 22.0519 1.494 22.3492 1.6631 22.609C1.83221 22.8688 2.07473 23.0813 2.36472 23.2238L8.6541 26.3175V36.4324C8.652 37.2533 8.97968 38.0459 9.57394 38.6572C12.5419 41.705 19.1915 46.8167 30.4041 46.8167C34.1219 46.8451 37.8119 46.2242 41.2791 44.9868V51.8303C41.2791 52.2735 41.4701 52.6986 41.81 53.012C42.1499 53.3254 42.6109 53.5015 43.0916 53.5015C43.5723 53.5015 44.0333 53.3254 44.3732 53.012C44.7131 52.6986 44.9041 52.2735 44.9041 51.8303V43.372C47.2677 42.1141 49.4035 40.5233 51.2343 38.6572C51.8285 38.0459 52.1562 37.2533 52.1541 36.4324V26.3175L58.4435 23.2238C58.7335 23.0813 58.976 22.8688 59.1451 22.609C59.3142 22.3492 59.4035 22.0519 59.4035 21.7489C59.4035 21.446 59.3142 21.1487 59.1451 20.8889C58.976 20.6291 58.7335 20.4166 58.4435 20.2741ZM30.4041 43.4744C20.6007 43.4744 14.8347 39.0583 12.2791 36.4324V28.0994L29.5522 36.5933C29.8145 36.722 30.107 36.7893 30.4041 36.7893C30.7012 36.7893 30.9937 36.722 31.256 36.5933L41.2791 31.6653V41.3457C38.4244 42.574 34.8266 43.4744 30.4041 43.4744ZM48.5291 36.424C47.4426 37.5357 46.227 38.534 44.9041 39.4008V29.8814L48.5291 28.0994V36.424ZM43.9978 26.5411L43.948 26.5139L31.2605 20.2741C30.8372 20.0748 30.3459 20.0367 29.8925 20.1681C29.439 20.2996 29.0597 20.59 28.8363 20.9768C28.6128 21.3637 28.5632 21.8159 28.6979 22.2362C28.8327 22.6565 29.1411 23.0111 29.5568 23.2238L40.1463 28.4337L30.4041 33.2237L7.06816 21.7489L30.4041 10.2742L53.74 21.7489L43.9978 26.5411Z" fill="var(--fill-0, #1900FF)" id="Vector"/>
</g>
</svg>