<?xml version="1.0" encoding="utf-8"?>
<svg xmlns="http://www.w3.org/2000/svg" fill="none" height="100%" overflow="visible" preserveAspectRatio="none" style="display: block;" viewBox="0 0 31.6611 31.6611" width="100%">
<g id="Avatar">
<rect fill="var(--fill-0, white)" height="31.6611" rx="4.87094" width="31.6611"/>
<rect height="31.0522" rx="4.56651" stroke="var(--stroke-0, #969695)" stroke-opacity="0.24" stroke-width="0.608867" width="31.0522" x="0.304434" y="0.304434"/>
<g clip-path="url(#clip0_0_4596)" id="Logo">
<path clip-rule="evenodd" d="M18.5368 11.7806C17.7358 11.2454 16.794 10.9597 15.8307 10.9597V6.08875C17.7574 6.08875 19.6409 6.6601 21.243 7.73055C22.845 8.801 24.0936 10.3225 24.831 12.1026C25.5683 13.8826 25.7612 15.8414 25.3853 17.7312C25.0095 19.6209 24.0816 21.3568 22.7192 22.7192C21.3568 24.0816 19.6209 25.0094 17.7312 25.3853C15.8415 25.7612 13.8827 25.5683 12.1026 24.831C10.3225 24.0936 8.80104 22.845 7.73059 21.2429C6.66014 19.6409 6.08878 17.7574 6.08878 15.8306H10.9597C10.9597 16.794 11.2454 17.7357 11.7806 18.5368C12.3158 19.3378 13.0766 19.9621 13.9667 20.3308C14.8567 20.6995 15.8361 20.7959 16.7809 20.6079C17.7258 20.42 18.5937 19.9561 19.275 19.2749C19.9562 18.5937 20.4201 17.7258 20.608 16.7809C20.7959 15.836 20.6995 14.8566 20.3308 13.9666C19.9621 13.0766 19.3378 12.3158 18.5368 11.7806Z" fill="var(--fill-0, #1B1B1D)" fill-rule="evenodd" id="Vector"/>
<path clip-rule="evenodd" d="M10.9595 6.08875C10.9595 6.72839 10.8335 7.36176 10.5888 7.95271C10.344 8.54365 9.98521 9.0806 9.53292 9.53289C9.08063 9.98519 8.54369 10.344 7.95274 10.5887C7.36179 10.8335 6.72842 10.9595 6.08878 10.9595L6.08878 15.8302C7.36805 15.8302 8.6348 15.5783 9.8167 15.0887C10.9986 14.5992 12.0725 13.8816 12.977 12.977C13.8816 12.0725 14.5992 10.9986 15.0888 9.81666C15.5783 8.63477 15.8303 7.36802 15.8303 6.08875L10.9595 6.08875Z" fill="var(--fill-0, #1B1B1D)" fill-rule="evenodd" id="Vector_2"/>
</g>
</g>
<defs>
<clipPath id="clip0_0_4596">
<rect fill="white" height="19.4838" transform="translate(6.08878 6.08875)" width="19.4838"/>
</clipPath>
</defs>
</svg>