<?xml version="1.0" encoding="utf-8"?>
<svg xmlns="http://www.w3.org/2000/svg" fill="none" height="100%" overflow="visible" preserveAspectRatio="none" style="display: block;" viewBox="0 0 74.502 74.502" width="100%">
<g id="Frame">
<path d="M65.1894 44.2354C65.1894 44.8528 64.9441 45.445 64.5075 45.8816C64.0709 46.3183 63.4787 46.5635 62.8612 46.5635H55.8767V51.2199H60.533C61.1505 51.2199 61.7427 51.4652 62.1793 51.9018C62.6159 52.3385 62.8612 52.9306 62.8612 53.5481C62.8612 54.1656 62.6159 54.7578 62.1793 55.1944C61.7427 55.631 61.1505 55.8763 60.533 55.8763H55.8767V60.5327C55.8767 61.1501 55.6314 61.7423 55.1948 62.1789C54.7581 62.6156 54.1659 62.8609 53.5485 62.8609C52.931 62.8609 52.3388 62.6156 51.9022 62.1789C51.4656 61.7423 51.2203 61.1501 51.2203 60.5327V44.2354C51.2203 43.6179 51.4656 43.0257 51.9022 42.5891C52.3388 42.1525 52.931 41.9072 53.5485 41.9072H62.8612C63.4787 41.9072 64.0709 42.1525 64.5075 42.5891C64.9441 43.0257 65.1894 43.6179 65.1894 44.2354ZM26.7743 50.0558C26.7743 52.217 25.9158 54.2896 24.3876 55.8178C22.8595 57.346 20.7868 58.2045 18.6257 58.2045H16.2975V60.5327C16.2975 61.1501 16.0522 61.7423 15.6156 62.1789C15.179 62.6156 14.5868 62.8609 13.9693 62.8609C13.3518 62.8609 12.7596 62.6156 12.323 62.1789C11.8864 61.7423 11.6411 61.1501 11.6411 60.5327V44.2354C11.6411 43.6179 11.8864 43.0257 12.323 42.5891C12.7596 42.1525 13.3518 41.9072 13.9693 41.9072H18.6257C20.7868 41.9072 22.8595 42.7657 24.3876 44.2939C25.9158 45.822 26.7743 47.8947 26.7743 50.0558ZM22.118 50.0558C22.118 49.1296 21.75 48.2413 21.0951 47.5864C20.4402 46.9315 19.5519 46.5635 18.6257 46.5635H16.2975V53.5481H18.6257C19.5519 53.5481 20.4402 53.1802 21.0951 52.5252C21.75 51.8703 22.118 50.982 22.118 50.0558ZM47.728 52.384C47.728 55.1626 46.6242 57.8275 44.6594 59.7923C42.6946 61.757 40.0298 62.8609 37.2512 62.8609H32.5948C31.9773 62.8609 31.3851 62.6156 30.9485 62.1789C30.5119 61.7423 30.2666 61.1501 30.2666 60.5327V44.2354C30.2666 43.6179 30.5119 43.0257 30.9485 42.5891C31.3851 42.1525 31.9773 41.9072 32.5948 41.9072H37.2512C40.0298 41.9072 42.6946 43.011 44.6594 44.9758C46.6242 46.9406 47.728 49.6054 47.728 52.384ZM43.0716 52.384C43.0716 50.8403 42.4584 49.3599 41.3669 48.2683C40.2753 47.1768 38.7949 46.5635 37.2512 46.5635H34.923V58.2045H37.2512C38.7949 58.2045 40.2753 57.5913 41.3669 56.4997C42.4584 55.4082 43.0716 53.9277 43.0716 52.384ZM11.6411 32.5944V11.6407C11.6411 10.4058 12.1317 9.22144 13.0049 8.3482C13.8782 7.47496 15.0625 6.98438 16.2975 6.98438H44.2357C44.5416 6.98414 44.8444 7.04415 45.1271 7.161C45.4097 7.27785 45.6665 7.44923 45.8829 7.66537L62.1802 23.9627C62.3964 24.1791 62.5678 24.4359 62.6846 24.7185C62.8014 25.0012 62.8615 25.304 62.8612 25.6099V32.5944C62.8612 33.2119 62.6159 33.8041 62.1793 34.2407C61.7427 34.6773 61.1505 34.9226 60.533 34.9226C59.9156 34.9226 59.3234 34.6773 58.8868 34.2407C58.4501 33.8041 58.2048 33.2119 58.2048 32.5944V27.9381H44.2357C43.6183 27.9381 43.0261 27.6928 42.5894 27.2561C42.1528 26.8195 41.9075 26.2273 41.9075 25.6099V11.6407H16.2975V32.5944C16.2975 33.2119 16.0522 33.8041 15.6156 34.2407C15.179 34.6773 14.5868 34.9226 13.9693 34.9226C13.3518 34.9226 12.7596 34.6773 12.323 34.2407C11.8864 33.8041 11.6411 33.2119 11.6411 32.5944ZM46.5639 23.2817H54.9134L46.5639 14.9322V23.2817Z" fill="var(--fill-0, #1900FF)" id="Vector"/>
</g>
</svg>