<?xml version="1.0" encoding="utf-8"?>
<svg xmlns="http://www.w3.org/2000/svg" fill="none" height="100%" overflow="visible" preserveAspectRatio="none" style="display: block;" viewBox="0 0 50 50" width="100%">
<g id="Frame">
<path d="M5.46875 25C5.05435 25 4.65692 24.8354 4.3639 24.5424C4.07087 24.2493 3.90625 23.8519 3.90625 23.4375C3.90625 23.0231 4.07087 22.6257 4.3639 22.3326C4.65692 22.0396 5.05435 21.875 5.46875 21.875H10.9375C11.3519 21.875 11.7493 21.7104 12.0424 21.4174C12.3354 21.1243 12.5 20.7269 12.5 20.3125C12.5 19.8981 12.3354 19.5007 12.0424 19.2076C11.7493 18.9146 11.3519 18.75 10.9375 18.75H7.8125C6.5693 18.75 5.37701 18.2561 4.49794 17.3771C3.61886 16.498 3.125 15.3057 3.125 14.0625C3.125 12.8193 3.61886 11.627 4.49794 10.7479C5.37701 9.86886 6.5693 9.375 7.8125 9.375C7.8125 8.9606 7.97712 8.56317 8.27015 8.27015C8.56317 7.97712 8.9606 7.8125 9.375 7.8125C9.7894 7.8125 10.1868 7.97712 10.4799 8.27015C10.7729 8.56317 10.9375 8.9606 10.9375 9.375H12.5C12.9144 9.375 13.3118 9.53962 13.6049 9.83265C13.8979 10.1257 14.0625 10.5231 14.0625 10.9375C14.0625 11.3519 13.8979 11.7493 13.6049 12.0424C13.3118 12.3354 12.9144 12.5 12.5 12.5H7.8125C7.3981 12.5 7.00067 12.6646 6.70765 12.9576C6.41462 13.2507 6.25 13.6481 6.25 14.0625C6.25 14.4769 6.41462 14.8743 6.70765 15.1674C7.00067 15.4604 7.3981 15.625 7.8125 15.625H10.9375C12.1807 15.625 13.373 16.1189 14.2521 16.9979C15.1311 17.877 15.625 19.0693 15.625 20.3125C15.625 21.5557 15.1311 22.748 14.2521 23.6271C13.373 24.5061 12.1807 25 10.9375 25C10.9375 25.4144 10.7729 25.8118 10.4799 26.1049C10.1868 26.3979 9.7894 26.5625 9.375 26.5625C8.9606 26.5625 8.56317 26.3979 8.27015 26.1049C7.97712 25.8118 7.8125 25.4144 7.8125 25H5.46875ZM45.3125 10.9375V37.5C45.3125 38.3288 44.9833 39.1237 44.3972 39.7097C43.8112 40.2958 43.0163 40.625 42.1875 40.625H7.8125C6.9837 40.625 6.18884 40.2958 5.60279 39.7097C5.01674 39.1237 4.6875 38.3288 4.6875 37.5V29.6875C4.6875 29.2731 4.85212 28.8757 5.14515 28.5826C5.43817 28.2896 5.8356 28.125 6.25 28.125C6.6644 28.125 7.06183 28.2896 7.35485 28.5826C7.64788 28.8757 7.8125 29.2731 7.8125 29.6875V37.5H31.25V31.25H15.625C15.2106 31.25 14.8132 31.0854 14.5201 30.7924C14.2271 30.4993 14.0625 30.1019 14.0625 29.6875C14.0625 29.2731 14.2271 28.8757 14.5201 28.5826C14.8132 28.2896 15.2106 28.125 15.625 28.125H31.25V21.875H20.3125C19.8981 21.875 19.5007 21.7104 19.2076 21.4174C18.9146 21.1243 18.75 20.7269 18.75 20.3125C18.75 19.8981 18.9146 19.5007 19.2076 19.2076C19.5007 18.9146 19.8981 18.75 20.3125 18.75H42.1875V12.5H18.75C18.3356 12.5 17.9382 12.3354 17.6451 12.0424C17.3521 11.7493 17.1875 11.3519 17.1875 10.9375C17.1875 10.5231 17.3521 10.1257 17.6451 9.83265C17.9382 9.53962 18.3356 9.375 18.75 9.375H43.75C44.1644 9.375 44.5618 9.53962 44.8549 9.83265C45.1479 10.1257 45.3125 10.5231 45.3125 10.9375ZM34.375 28.125H42.1875V21.875H34.375V28.125ZM42.1875 37.5V31.25H34.375V37.5H42.1875Z" fill="var(--fill-0, #1900FF)" id="Vector"/>
</g>
</svg>