<?xml version="1.0" encoding="utf-8"?>
<svg xmlns="http://www.w3.org/2000/svg" fill="none" height="100%" overflow="visible" preserveAspectRatio="none" style="display: block;" viewBox="0 0 50 50" width="100%">
<g clip-path="url(#clip0_0_4595)" id="Frame">
<path d="M28.125 30.7969C30.5744 29.2713 32.4603 26.9895 33.4974 24.2966C34.5345 21.6038 34.6663 18.6464 33.873 15.872C33.0796 13.0975 31.4042 10.657 29.1003 8.91949C26.7963 7.18202 23.9892 6.24219 21.1035 6.24219C18.2179 6.24219 15.4107 7.18202 13.1068 8.91949C10.8028 10.657 9.12744 13.0975 8.33408 15.872C7.54072 18.6464 7.67255 21.6038 8.70964 24.2966C9.74672 26.9895 11.6326 29.2713 14.082 30.7969C10.0488 32.1172 6.41992 34.584 3.50195 38.0566C3.23518 38.3739 3.10538 38.7842 3.14109 39.1972C3.1768 39.6101 3.37511 39.992 3.69238 40.2588C4.00966 40.5256 4.41991 40.6554 4.8329 40.6197C5.24588 40.5839 5.62776 40.3856 5.89453 40.0684C9.81445 35.3887 15.2168 32.8125 21.0938 32.8125C26.9707 32.8125 32.373 35.3887 36.3027 40.0684C36.5695 40.3856 36.9514 40.5839 37.3644 40.6197C37.7774 40.6554 38.1876 40.5256 38.5049 40.2588C38.8222 39.992 39.0205 39.6101 39.0562 39.1972C39.0919 38.7842 38.9621 38.3739 38.6953 38.0566C35.7773 34.584 32.1484 32.1172 28.125 30.7969ZM10.9375 19.5313C10.9375 17.5225 11.5332 15.5589 12.6491 13.8887C13.7651 12.2186 15.3513 10.9168 17.2071 10.1481C19.0629 9.3794 21.105 9.17827 23.0751 9.57015C25.0453 9.96203 26.8549 10.9293 28.2753 12.3497C29.6957 13.7701 30.663 15.5797 31.0549 17.5499C31.4467 19.52 31.2456 21.5621 30.4769 23.4179C29.7082 25.2737 28.4064 26.8599 26.7363 27.9759C25.0661 29.0918 23.1025 29.6875 21.0938 29.6875C18.4011 29.6844 15.8196 28.6134 13.9156 26.7094C12.0116 24.8054 10.9406 22.2239 10.9375 19.5313ZM49.543 26.1055L43.293 32.3555C43.1479 32.5007 42.9755 32.616 42.7858 32.6946C42.5962 32.7733 42.3928 32.8137 42.1875 32.8137C41.9822 32.8137 41.7788 32.7733 41.5892 32.6946C41.3995 32.616 41.2271 32.5007 41.082 32.3555L37.957 29.2305C37.6638 28.9373 37.4991 28.5396 37.4991 28.125C37.4991 27.7104 37.6638 27.3127 37.957 27.0195C38.2502 26.7263 38.6479 26.5616 39.0625 26.5616C39.4771 26.5616 39.8748 26.7263 40.168 27.0195L42.1875 29.041L47.332 23.8945C47.6252 23.6013 48.0229 23.4366 48.4375 23.4366C48.8521 23.4366 49.2498 23.6013 49.543 23.8945C49.8362 24.1877 50.0009 24.5854 50.0009 25C50.0009 25.4146 49.8362 25.8123 49.543 26.1055Z" fill="var(--fill-0, #1900FF)" id="Vector"/>
</g>
<defs>
<clipPath id="clip0_0_4595">
<rect fill="white" height="50" width="50"/>
</clipPath>
</defs>
</svg>