<?xml version="1.0" encoding="utf-8"?>
<svg xmlns="http://www.w3.org/2000/svg" fill="none" height="100%" overflow="visible" preserveAspectRatio="none" style="display: block;" viewBox="0 0 20.1314 20.1314" width="100%">
<path d="M18.8606 7.80272C18.5218 7.44862 18.1713 7.08374 18.0392 6.7629C17.917 6.46901 17.9098 5.9819 17.9026 5.51007C17.8891 4.63292 17.8747 3.63893 17.1836 2.94781C16.4925 2.25669 15.4985 2.24232 14.6213 2.22883C14.1495 2.22164 13.6624 2.21445 13.3685 2.09223C13.0486 1.96012 12.6828 1.60961 12.3287 1.2708C11.7086 0.674941 11.004 0 10.0657 0C9.12744 0 8.42374 0.674941 7.80272 1.2708C7.44862 1.60961 7.08374 1.96012 6.7629 2.09223C6.47081 2.21445 5.9819 2.22164 5.51007 2.22883C4.63292 2.24232 3.63893 2.25669 2.94781 2.94781C2.25669 3.63893 2.24681 4.63292 2.22883 5.51007C2.22164 5.9819 2.21445 6.46901 2.09223 6.7629C1.96012 7.08284 1.60961 7.44862 1.2708 7.80272C0.674941 8.42284 0 9.12744 0 10.0657C0 11.004 0.674941 11.7077 1.2708 12.3287C1.60961 12.6828 1.96012 13.0477 2.09223 13.3685C2.21445 13.6624 2.22164 14.1495 2.22883 14.6213C2.24232 15.4985 2.25669 16.4925 2.94781 17.1836C3.63893 17.8747 4.63292 17.8891 5.51007 17.9026C5.9819 17.9098 6.46901 17.917 6.7629 18.0392C7.08284 18.1713 7.44862 18.5218 7.80272 18.8606C8.42284 19.4565 9.12744 20.1314 10.0657 20.1314C11.004 20.1314 11.7077 19.4565 12.3287 18.8606C12.6828 18.5218 13.0477 18.1713 13.3685 18.0392C13.6624 17.917 14.1495 17.9098 14.6213 17.9026C15.4985 17.8891 16.4925 17.8747 17.1836 17.1836C17.8747 16.4925 17.8891 15.4985 17.9026 14.6213C17.9098 14.1495 17.917 13.6624 18.0392 13.3685C18.1713 13.0486 18.5218 12.6828 18.8606 12.3287C19.4565 11.7086 20.1314 11.004 20.1314 10.0657C20.1314 9.12744 19.4565 8.42374 18.8606 7.80272ZM17.8226 11.3338C17.3921 11.7832 16.9463 12.2478 16.71 12.8185C16.4835 13.3667 16.4736 13.9931 16.4646 14.5998C16.4556 15.2289 16.4457 15.8876 16.1662 16.1662C15.8867 16.4448 15.2325 16.4556 14.5998 16.4646C13.9931 16.4736 13.3667 16.4835 12.8185 16.71C12.2478 16.9463 11.7832 17.3921 11.3338 17.8226C10.8844 18.2531 10.4252 18.6935 10.0657 18.6935C9.70621 18.6935 9.24337 18.2513 8.79761 17.8226C8.35184 17.3939 7.8836 16.9463 7.31291 16.71C6.76469 16.4835 6.13828 16.4736 5.53164 16.4646C4.90254 16.4556 4.24377 16.4457 3.96517 16.1662C3.68656 15.8867 3.67578 15.2325 3.66679 14.5998C3.6578 13.9931 3.64792 13.3667 3.42144 12.8185C3.18508 12.2478 2.73931 11.7832 2.30882 11.3338C1.87833 10.8844 1.43796 10.4252 1.43796 10.0657C1.43796 9.70621 1.88013 9.24337 2.30882 8.79761C2.73751 8.35184 3.18508 7.8836 3.42144 7.31291C3.64792 6.76469 3.6578 6.13828 3.66679 5.53164C3.67578 4.90254 3.68567 4.24377 3.96517 3.96517C4.24467 3.68656 4.89894 3.67578 5.53164 3.66679C6.13828 3.6578 6.76469 3.64792 7.31291 3.42144C7.8836 3.18508 8.34824 2.73931 8.79761 2.30882C9.24697 1.87833 9.70621 1.43796 10.0657 1.43796C10.4252 1.43796 10.888 1.88013 11.3338 2.30882C11.7796 2.73751 12.2478 3.18508 12.8185 3.42144C13.3667 3.64792 13.9931 3.6578 14.5998 3.66679C15.2289 3.67578 15.8876 3.68567 16.1662 3.96517C16.4448 4.24467 16.4556 4.89894 16.4646 5.53164C16.4736 6.13828 16.4835 6.76469 16.71 7.31291C16.9463 7.8836 17.3921 8.34824 17.8226 8.79761C18.2531 9.24697 18.6935 9.70621 18.6935 10.0657C18.6935 10.4252 18.2513 10.888 17.8226 11.3338ZM14.1693 7.40009C14.2361 7.46686 14.2892 7.54616 14.3253 7.63344C14.3615 7.72072 14.3801 7.81428 14.3801 7.90877C14.3801 8.00325 14.3615 8.09681 14.3253 8.18409C14.2892 8.27138 14.2361 8.35067 14.1693 8.41745L9.13642 13.4503C9.06965 13.5171 8.99036 13.5702 8.90307 13.6064C8.81579 13.6425 8.72223 13.6612 8.62775 13.6612C8.53326 13.6612 8.4397 13.6425 8.35242 13.6064C8.26514 13.5702 8.18584 13.5171 8.11907 13.4503L5.96213 11.2934C5.82722 11.1585 5.75143 10.9755 5.75143 10.7847C5.75143 10.5939 5.82722 10.4109 5.96213 10.276C6.09704 10.1411 6.28002 10.0653 6.47081 10.0653C6.6616 10.0653 6.84458 10.1411 6.97949 10.276L8.62775 11.9252L13.1519 7.40009C13.2187 7.33324 13.298 7.28021 13.3853 7.24403C13.4726 7.20785 13.5661 7.18922 13.6606 7.18922C13.7551 7.18922 13.8486 7.20785 13.9359 7.24403C14.0232 7.28021 14.1025 7.33324 14.1693 7.40009Z" fill="var(--fill-0, #1900FF)" id="Vector"/>
</svg>